{
.appVersion = "1300";
copyright = "Copyright (c) 2019 by Juan Pablo del Peral. All rights reserved.";
customParameters = (
{
name = Axes;
value = (
{
Name = Weight;
Tag = wght;
},
{
Name = "Optical size";
Tag = opsz;
}
);
},
{
name = vendorID;
value = HT;
},
{
name = "Use Typo Metrics";
value = 1;
},
{
name = "Use Line Breaks";
value = 1;
},
{
name = "EditView Line Height";
value = 1000;
},
{
name = "Enforce Compatibility Check";
value = 1;
},
{
name = "Variable Font Family Name";
value = "Piazzolla Variable";
}
);
date = "2018-06-26 18:10:32 +0000";
designer = "Juan Pablo del Peral";
designerURL = "https://www.huertatipografica.com";
familyName = Piazzolla;
fontMaster = (
{
alignmentZones = (
"{725, 15}",
"{644, 15}",
"{592, 15}",
"{517, 15}",
"{478, 15}",
"{0, -15}",
"{-195, -15}"
);
ascender = 725;
capHeight = 644;
custom = Thin;
customParameters = (
{
name = paramArea;
value = "460";
},
{
name = paramDepth;
value = "27";
},
{
name = paramOver;
value = "8";
},
{
name = smallCapHeight;
value = 517;
},
{
name = underlineThickness;
value = 24;
},
{
name = underlinePosition;
value = -195;
},
{
name = strikeoutSize;
value = 24;
},
{
name = strikeoutPosition;
value = 239;
},
{
name = typoAscender;
value = 760;
},
{
name = hheaAscender;
value = 760;
},
{
name = hheaDescender;
value = -240;
},
{
name = typoLineGap;
value = 200;
},
{
name = typoDescender;
value = -240;
},
{
name = winDescent;
value = 320;
},
{
name = hheaLineGap;
value = 200;
},
{
name = winAscent;
value = 1160;
},
{
name = "Axis Location";
value = (
{
Axis = Weight;
Location = "30";
},
{
Axis = "Optical size";
Location = 30;
}
);
}
);
descender = -195;
horizontalStems = (
30
);
iconName = Light;
id = "0E5388DE-A0E6-4EB4-BC9B-CE5870C9023F";
italicAngle = 11.3;
userData = {
GSOffsetHorizontal = 15;
GSOffsetMakeStroke = 1;
GSOffsetProportional = 1;
GSOffsetVertical = 10;
};
verticalStems = (
30
);
weightValue = 30;
widthValue = 30;
xHeight = 478;
},
{
alignmentZones = (
"{769, 15}",
"{688, 15}",

glyphs = (
{
color = 4;
glyphname = A;
lastChange = "2020-02-24 20:55:26 +0000";
layers = (
{
anchors = (
{
name = bottom;
position = "{274, 0}";
},
{
name = ogonek;
position = "{665, 0}";
},
{
name = top;
position = "{442, 688}";
}
);
background = {
paths = (
{
closed = 1;
nodes = (
"129 10 LINE",
"404 577 LINE",
"374 577 LINE",
"417 10 LINE",
"669 10 LINE",
"568 688 LINE",
"310 688 LINE",
"-54 10 LINE"
);
},
{
closed = 1;
nodes = (
"235 0 LINE",
"245 76 LINE",
"187 112 OFFCURVE",
"124 138 OFFCURVE",
"53 151 CURVE",
"-72 76 LINE",
"-85 0 LINE"
);
},
{
closed = 1;
nodes = (
"695 0 LINE",
"705 76 LINE",
"642 112 OFFCURVE",
"574 139 OFFCURVE",
"500 152 CURVE",
"319 76 LINE",
"305 0 LINE"
);
}
);
};
layerId = "A6FDB8B9-512B-4F31-B986-CD5B604F5662";
paths = (
{
closed = 1;
nodes = (
"568 688 LINE",
"310 688 LINE",
"7 123 LINE",
"-72 76 LINE",
"-85 0 LINE",
"235 0 LINE",
"245 76 LINE",
"224 89 OFFCURVE",
"201 101 OFFCURVE",
"178 112 CURVE",
"421 612 LINE",
"371 621 LINE",
"409 114 LINE",
"319 76 LINE",
"305 0 LINE",
"695 0 LINE",
"705 76 LINE",
"689 85 OFFCURVE",
"672 94 OFFCURVE",
"655 102 CURVE"
);
},
{
closed = 1;
nodes = (
"547 165 LINE",
"535 283 LINE",
"156 283 LINE",
"103 165 LINE"
);
}
);
width = 710;
},
{
anchors = (
{
name = bottom;
position = "{304, 0}";
},
{
name = ogonek;
position = "{603, 10}";
},
{
name = top;
position = "{433, 644}";
}
);
layerId = "0E5388DE-A0E6-4EB4-BC9B-CE5870C9023F";
paths = (
{
closed = 1;
nodes = (
"455 644 LINE",
"415 644 LINE",
"51 26 LINE",
"-19 12 LINE",
"-22 0 LINE",
"211 0 LINE",
"212 10 LINE",
"169 17 OFFCURVE",
"127 22 OFFCURVE",
"85 26 CURVE",
"434 626 LINE",
"425 627 LINE",
"527 26 LINE",
"410 12 LINE",
"407 0 LINE",
"631 0 LINE",
"632 10 LINE",
"611 16 OFFCURVE",
"587 22 OFFCURVE",
"562 25 CURVE"
);
},
{
closed = 1;
nodes = (
"510 235 LINE",
"506 265 LINE",
"206 265 LINE",
"190 235 LINE"
);
}
);
width = 705;
}
);
leftKerningGroup = A;
rightKerningGroup = A;
unicode = 0041;
},
{
color = 4;
glyphname = Aacute;
lastChange = "2020-02-24 20:56:35 +0000";
layers = (
{
anchors = (
{
name = top;
position = "{478, 869}";
}
);
components = (
{
name = A;
}
);
layerId = "0E5388DE-A0E6-4EB4-BC9B-CE5870C9023F";
paths = (
{
closed = 1;
nodes = (
"459 768 OFFCURVE",
"514 806 OFFCURVE",
"569 847 CURVE",
"553 869 LINE",
"547 869 LINE",
"391 740 LINE",
"397 731 LINE"
);
}
);
width = 705;
},
{
anchors = (
{
name = top;
position = "{503, 995}";
}
);
components = (
{
name = A;
}
);
layerId = "A6FDB8B9-512B-4F31-B986-CD5B604F5662";
paths = (
{
closed = 1;
nodes = (
"463 763 OFFCURVE",
"555 797 OFFCURVE",
"646 839 CURVE",
"572 986 LINE",
"545 986 LINE",
"326 808 LINE",
"368 735 LINE"
);
}
);
width = 710;
}
);
leftKerningGroup = A;
rightKerningGroup = A;
unicode = 00C1;
},
{
color = 4;
glyphname = Adieresis;
lastChange = "2020-02-24 20:56:35 +0000";
layers = (
{
anchors = (
{
name = top;
position = "{471, 834}";
}
);
components = (
{
name = A;
}
);
layerId = "0E5388DE-A0E6-4EB4-BC9B-CE5870C9023F";
paths = (
{
closed = 1;
nodes = (
"395 831 OFFCURVE",
"382 823 OFFCURVE",
"370 811 CURVE",
"373 799 OFFCURVE",
"381 786 OFFCURVE",
"392 773 CURVE",
"406 775 OFFCURVE",
"421 783 OFFCURVE",
"431 794 CURVE",
"429 808 OFFCURVE",
"422 822 OFFCURVE",
"410 834 CURVE"
);
},
{
closed = 1;
nodes = (
"524 831 OFFCURVE",
"510 823 OFFCURVE",
"499 811 CURVE",
"503 796 OFFCURVE",
"511 783 OFFCURVE",
"522 773 CURVE",
"535 775 OFFCURVE",
"548 782 OFFCURVE",
"560 794 CURVE",
"558 808 OFFCURVE",
"551 821 OFFCURVE",
"540 834 CURVE"
);
}
);
width = 705;
},
{
anchors = (
{
name = top;
position = "{500, 980}";
}
);
components = (
{
name = A;
}
);
layerId = "A6FDB8B9-512B-4F31-B986-CD5B604F5662";
paths = (
{
closed = 1;
nodes = (
"336 971 OFFCURVE",
"284 939 OFFCURVE",
"247 901 CURVE",
"256 844 OFFCURVE",
"289 789 OFFCURVE",
"330 756 CURVE",
"383 763 OFFCURVE",
"438 797 OFFCURVE",
"472 838 CURVE",
"464 892 OFFCURVE",
"433 943 OFFCURVE",
"391 980 CURVE"
);
},
{
closed = 1;
nodes = (
"572 971 OFFCURVE",
"520 939 OFFCURVE",
"483 901 CURVE",
"492 844 OFFCURVE",
"524 789 OFFCURVE",
"565 756 CURVE",
"619 763 OFFCURVE",
"674 797 OFFCURVE",
"708 838 CURVE",
"700 892 OFFCURVE",
"667 943 OFFCURVE",
"626 980 CURVE"
);
}
);
width = 710;
}
);
leftKerningGroup = A;
rightKerningGroup = A;
unicode = 00C4;
},
{
color = 4;
glyphname = Agrave;
lastChange = "2020-02-24 20:56:35 +0000";
layers = (
{
anchors = (
{
name = top;
position = "{478, 869}";
}
);
components = (
{
name = A;
}
);
layerId = "0E5388DE-A0E6-4EB4-BC9B-CE5870C9023F";
paths = (
{
closed = 1;
nodes = (
"535 740 LINE",
"379 869 LINE",
"373 869 LINE",
"357 847 LINE",
"412 806 OFFCURVE",
"467 768 OFFCURVE",
"529 731 CURVE"
);
}
);
width = 705;
},
{
anchors = (
{
name = top;
position = "{503, 995}";
}
);
components = (
{
name = A;
}
);
layerId = "A6FDB8B9-512B-4F31-B986-CD5B604F5662";
paths = (
{
closed = 1;
nodes = (
"624 808 LINE",
"405 986 LINE",
"378 986 LINE",
"304 839 LINE",
"395 797 OFFCURVE",
"487 763 OFFCURVE",
"582 735 CURVE"
);
}
);
width = 710;
}
);
leftKerningGroup = A;
rightKerningGroup = A;
unicode = 00C0;
},
{
color = 4;
glyphname = Aring;
lastChange = "2020-02-24 20:56:35 +0000";
layers = (
{
anchors = (
{
name = top;
position = "{463, 801}";
}
);
components = (
{
name = A;
}
);
layerId = "0E5388DE-A0E6-4EB4-BC9B-CE5870C9023F";
paths = (
{
closed = 1;
nodes = (
"499 733 OFFCURVE",
"534 768 OFFCURVE",
"534 811 CURVE SMOOTH",
"534 846 OFFCURVE",
"508 871 OFFCURVE",
"473 871 CURVE SMOOTH",
"430 871 OFFCURVE",
"395 836 OFFCURVE",
"395 794 CURVE SMOOTH",
"395 758 OFFCURVE",
"421 733 OFFCURVE",
"457 733 CURVE SMOOTH"
);
},
{
closed = 1;
nodes = (
"434 757 OFFCURVE",
"419 771 OFFCURVE",
"419 793 CURVE SMOOTH",
"419 823 OFFCURVE",
"443 847 OFFCURVE",
"473 847 CURVE SMOOTH",
"495 847 OFFCURVE",
"510 833 OFFCURVE",
"510 811 CURVE SMOOTH",
"510 781 OFFCURVE",
"486 757 OFFCURVE",
"457 757 CURVE SMOOTH"
);
}
);
width = 705;
},
{
anchors = (
{
name = top;
position = "{493, 973}";
}
);
components = (
{
name = A;
}
);
layerId = "A6FDB8B9-512B-4F31-B986-CD5B604F5662";
paths = (
{
closed = 1;
nodes = (
"551 727 OFFCURVE",
"622 799 OFFCURVE",
"622 886 CURVE SMOOTH",
"622 959 OFFCURVE",
"567 1013 OFFCURVE",
"492 1013 CURVE SMOOTH",
"406 1013 OFFCURVE",
"334 941 OFFCURVE",
"334 854 CURVE SMOOTH",
"334 781 OFFCURVE",
"389 727 OFFCURVE",
"464 727 CURVE SMOOTH"
);
},
{
closed = 1;
nodes = (
"437 811 OFFCURVE",
"419 829 OFFCURVE",
"419 859 CURVE SMOOTH",
"419 898 OFFCURVE",
"450 929 OFFCURVE",
"488 929 CURVE SMOOTH",
"519 929 OFFCURVE",
"537 911 OFFCURVE",
"537 881 CURVE SMOOTH",
"537 842 OFFCURVE",
"507 811 OFFCURVE",
"468 811 CURVE SMOOTH"
);
}
);
width = 710;
}
);
leftKerningGroup = A;
rightKerningGroup = A;
unicode = 00C5;
},
{
color = 4;
glyphname = Atilde;
lastChange = "2020-02-24 20:56:35 +0000";
layers = (
{
anchors = (
{
name = top;
position = "{474, 853}";
}
);
components = (
{
name = A;
}
);
layerId = "0E5388DE-A0E6-4EB4-BC9B-CE5870C9023F";
paths = (
{
closed = 1;
nodes = (
"399 807 LINE",
"505 778 LINE SMOOTH",
"531 771 OFFCURVE",
"541 778 OFFCURVE",
"599 846 CURVE",
"592 853 LINE",
"531 801 LINE",
"424 830 LINE SMOOTH",
"401 836 OFFCURVE",
"394 838 OFFCURVE",
"330 763 CURVE",
"337 755 LINE"
);
}
);
width = 705;
},
{
anchors = (
{
name = top;
position = "{501, 980}";
}
);
components = (
{
name = A;
}
);
layerId = "A6FDB8B9-512B-4F31-B986-CD5B604F5662";
paths = (
{
closed = 1;
nodes = (
"385 816 LINE",
"511 782 LINE SMOOTH",
"558 769 OFFCURVE",
"588 766 OFFCURVE",
"686 940 CURVE",
"644 980 LINE",
"572 926 LINE",
"446 960 LINE SMOOTH",
"393 974 OFFCURVE",
"367 968 OFFCURVE",
"272 802 CURVE",
"313 762 LINE"
);
}
);
width = 710;
}
);
leftKerningGroup = A;
rightKerningGroup = A;
unicode = 00C3;
},
{
color = 4;
glyphname = AE;
lastChange = "2020-02-24 20:55:26 +0000";
layers = (
{
anchors = (
{
name = bottom;
position = "{426, 0}";
},
{
name = top;
position = "{625, 644}";
}
);
layerId = "0E5388DE-A0E6-4EB4-BC9B-CE5870C9023F";
paths = (
{
closed = 1;
nodes = (
"61 10 LINE",
"481 629 LINE",
"470 629 LINE",
"514 10 LINE",
"546 10 LINE",
"499 634 LINE",
"451 634 LINE",
"24 10 LINE"
);
},
{
closed = 1;
nodes = (
"192 0 LINE",
"194 10 LINE",
"141 19 OFFCURVE",
"91 24 OFFCURVE",
"40 28 CURVE",
"-18 12 LINE",
"-20 0 LINE"
);
},
{
closed = 1;
nodes = (
"508 235 LINE",
"508 265 LINE",
"207 265 LINE",
"201 235 LINE"
);
},
{
closed = 1;
nodes = (
"735 321 LINE",
"741 351 LINE",
"506 351 LINE",
"506 321 LINE"
);
},
{
closed = 1;
nodes = (
"728 232 LINE",
"770 441 LINE",
"763 441 LINE",
"709 336 LINE",
"721 232 LINE"
);
},
{
closed = 1;
nodes = (
"758 17 LINE",
"776 30 LINE",
"540 30 LINE",
"391 12 LINE",
"389 0 LINE",
"796 0 LINE",
"837 205 LINE",
"829 205 LINE"
);
},
{
closed = 1;
nodes = (
"333 644 LINE",
"330 633 LINE",
"454 614 LINE",
"866 614 LINE",
"853 627 LINE",
"852 460 LINE",
"860 460 LINE",
"897 644 LINE"
);
}
);
width = 942;
},
{
anchors = (
{
name = bottom;
position = "{448, 0}";
},
{
name = top;
position = "{684, 688}";
}
);
layerId = "A6FDB8B9-512B-4F31-B986-CD5B604F5662";
paths = (
{
closed = 1;
nodes = (
"108 10 LINE",
"456 581 LINE",
"436 581 LINE",
"415 10 LINE",
"639 10 LINE",
"631 678 LINE",
"361 678 LINE",
"-79 10 LINE"
);
},
{
closed = 1;
nodes = (
"209 0 LINE",
"224 77 LINE",
"167 112 OFFCURVE",
"107 136 OFFCURVE",
"36 148 CURVE",
"-74 74 LINE",
"-89 0 LINE"
);
},
{
closed = 1;
nodes = (
"503 165 LINE",
"503 283 LINE",
"153 283 LINE",
"127 165 LINE"
);
},
{
closed = 1;
nodes = (
"799 283 LINE",
"826 412 LINE",
"548 412 LINE",
"548 283 LINE"
);
},
{
closed = 1;
nodes = (
"816 209 LINE",
"870 479 LINE",
"789 479 LINE",
"694 344 LINE",
"735 209 LINE"
);
},
{
closed = 1;
nodes = (
"785 49 LINE",
"934 132 LINE",
"453 132 LINE",
"307 74 LINE",
"292 0 LINE",
"950 0 LINE",
"1001 255 LINE",
"912 255 LINE"
);
},
{
closed = 1;
nodes = (
"220 688 LINE",
"204 608 LINE",
"347 556 LINE",
"989 556 LINE",
"866 651 LINE",
"918 452 LINE",
"1007 452 LINE",
"1054 688 LINE"
);
}
);
width = 1035;
}
);
leftKerningGroup = A;
rightKerningGroup = E;
unicode = 00C6;
},
{
color = 4;
glyphname = B;
lastChange = "2020-02-24 20:55:26 +0000";
layers = (
{
anchors = (
{
name = bottom;
position = "{318, 0}";
},
{
name = top;
position = "{456, 688}";
}
);
layerId = "A6FDB8B9-512B-4F31-B986-CD5B604F5662";
paths = (
{
closed = 1;
nodes = (
"380 0 LINE SMOOTH",
"584 0 OFFCURVE",
"711 84 OFFCURVE",
"711 207 CURVE SMOOTH",
"711 298 OFFCURVE",
"643 350 OFFCURVE",
"499 365 CURVE",
"493 338 LINE",
"642 353 OFFCURVE",
"756 435 OFFCURVE",
"756 540 CURVE SMOOTH",
"756 637 OFFCURVE",
"658 688 OFFCURVE",
"519 688 CURVE SMOOTH",
"93 688 LINE",
"77 605 LINE",
"163 572 LINE",
"58 112 LINE",
"14 96 OFFCURVE",
"-5 88 OFFCURVE",
"-29 76 CURVE",
"-44 0 LINE"
);
},
{
closed = 1;
nodes = (
"381 556 LINE",
"443 556 LINE SMOOTH",
"487 556 OFFCURVE",
"510 538 OFFCURVE",
"510 503 CURVE SMOOTH",
"510 467 OFFCURVE",
"491 433 OFFCURVE",
"455 406 CURVE",
"225 406 LINE",
"199 274 LINE",
"418 274 LINE SMOOTH",
"457 274 OFFCURVE",
"476 257 OFFCURVE",
"476 221 CURVE SMOOTH",
"476 184 OFFCURVE",
"455 149 OFFCURVE",
"421 131 CURVE",
"296 131 LINE"
);
}
);
width = 739;
},
{
anchors = (
{
name = bottom;
position = "{286, 0}";
},
{
name = top;
position = "{415, 644}";
}
);
layerId = "0E5388DE-A0E6-4EB4-BC9B-CE5870C9023F";
paths = (
{
closed = 1;
nodes = (
"316 0 LINE SMOOTH",
"463 0 OFFCURVE",
"579 86 OFFCURVE",
"579 195 CURVE SMOOTH",
"579 274 OFFCURVE",
"519 327 OFFCURVE",
"417 340 CURVE",
"417 333 LINE",
"534 358 OFFCURVE",
"610 432 OFFCURVE",
"610 520 CURVE SMOOTH",
"610 596 OFFCURVE",
"547 644 OFFCURVE",
"448 644 CURVE SMOOTH",
"130 644 LINE",
"127 633 LINE",
"249 615 LINE",
"124 29 LINE",
"66 27 OFFCURVE",
"28 21 OFFCURVE",
"3 10 CURVE",
"1 0 LINE"
);
},
{
closed = 1;
nodes = (
"279 614 LINE",
"444 614 LINE SMOOTH",
"528 614 OFFCURVE",
"576 579 OFFCURVE",
"576 517 CURVE SMOOTH",
"576 442 OFFCURVE",
"511 378 OFFCURVE",
"404 348 CURVE",
"211 348 LINE",
"205 318 LINE",
"379 318 LINE SMOOTH",
"481 318 OFFCURVE",
"544 271 OFFCURVE",
"544 194 CURVE SMOOTH",
"544 116 OFFCURVE",
"477 50 OFFCURVE",
"378 30 CURVE",
"162 30 LINE"
);
}
);
width = 668;
}
);
leftKerningGroup = H;
rightKerningGroup = B;
unicode = 0042;
},
{
color = 4;
glyphname = C;
lastChange = "2020-02-24 20:55:26 +0000";
layers = (
{
anchors = (
{
name = bottom;
position = "{337, 0}";
},
{
name = top;
position = "{446, 688}";
}
);
layerId = "A6FDB8B9-512B-4F31-B986-CD5B604F5662";
paths = (
{
closed = 1;
nodes = (
"402 -14 OFFCURVE",
"486 -1 OFFCURVE",
"581 23 CURVE",
"526 184 LINE",
"451 153 OFFCURVE",
"393 137 OFFCURVE",
"351 137 CURVE SMOOTH",
"289 137 OFFCURVE",
"261 172 OFFCURVE",
"261 249 CURVE SMOOTH",
"261 363 OFFCURVE",
"311 509 OFFCURVE",
"381 586 CURVE",
"270 527 LINE",
"326 542 OFFCURVE",
"374 542 OFFCURVE",
"415 542 CURVE SMOOTH",
"487 542 OFFCURVE",
"543 533 OFFCURVE",
"602 513 CURVE",
"679 673 LINE",
"598 692 OFFCURVE",
"516 703 OFFCURVE",
"451 703 CURVE SMOOTH",
"194 703 OFFCURVE",
"26 533 OFFCURVE",
"26 273 CURVE SMOOTH",
"26 90 OFFCURVE",
"138 -14 OFFCURVE",
"333 -14 CURVE SMOOTH"
);
},
{
closed = 1;
nodes = (
"581 23 LINE",
"619 264 LINE",
"520 264 LINE",
"368 19 LINE"
);
},
{
closed = 1;
nodes = (
"641 433 LINE",
"679 673 LINE",
"471 676 LINE",
"544 433 LINE"
);
}
);
width = 664;
},
{
anchors = (
{
name = bottom;
position = "{352, 0}";
},
{
name = top;
position = "{454, 644}";
}
);
layerId = "0E5388DE-A0E6-4EB4-BC9B-CE5870C9023F";
paths = (
{
closed = 1;
nodes = (
"404 -7 OFFCURVE",
"440 -2 OFFCURVE",
"527 16 CURVE",
"526 48 LINE",
"463 31 OFFCURVE",
"411 23 OFFCURVE",
"365 23 CURVE SMOOTH",
"212 23 OFFCURVE",
"125 104 OFFCURVE",
"125 248 CURVE SMOOTH",
"125 365 OFFCURVE",
"173 482 OFFCURVE",
"259 572 CURVE",
"244 560 LINE",
"325 601 OFFCURVE",
"396 620 OFFCURVE",
"470 620 CURVE SMOOTH",
"516 620 OFFCURVE",
"564 613 OFFCURVE",
"615 597 CURVE",
"624 632 LINE",
"566 646 OFFCURVE",
"510 653 OFFCURVE",
"468 653 CURVE SMOOTH",
"247 653 OFFCURVE",
"91 486 OFFCURVE",
"91 248 CURVE SMOOTH",
"91 84 OFFCURVE",
"190 -7 OFFCURVE",
"368 -7 CURVE SMOOTH"
);
},
{
closed = 1;
nodes = (
"527 16 LINE",
"555 197 LINE",
"547 197 LINE",
"480 16 LINE"
);
},
{
closed = 1;
nodes = (
"596 451 LINE",
"624 632 LINE",
"578 632 LINE",
"588 451 LINE"
);
}
);
width = 667;
}
);
leftKerningGroup = O;
rightKerningGroup = C;
unicode = 0043;
},
{
color = 4;
glyphname = Ccedilla;
lastChange = "2020-02-24 20:56:35 +0000";
layers = (
{
anchors = (
{
name = _bottom;
position = "{352, 0}";
},
{
name = bottom;
position = "{340, -206}";
}
);
components = (
{
name = C;
}
);
layerId = "0E5388DE-A0E6-4EB4-BC9B-CE5870C9023F";
paths = (
{
closed = 1;
nodes = (
"347 -223 OFFCURVE",
"426 -192 OFFCURVE",
"426 -129 CURVE SMOOTH",
"426 -95 OFFCURVE",
"398 -71 OFFCURVE",
"333 -49 CURVE",
"318 -72 LINE",
"379 -94 OFFCURVE",
"402 -111 OFFCURVE",
"402 -135 CURVE SMOOTH",
"402 -150 OFFCURVE",
"391 -170 OFFCURVE",
"376 -181 CURVE",
"268 -175 LINE",
"266 -192 LINE"
);
},
{
closed = 1;
nodes = (
"318 -72 LINE",
"340 -72 LINE",
"367 11 LINE",
"345 11 LINE"
);
}
);
width = 667;
},
{
anchors = (
{
name = _bottom;
position = "{337, 0}";
},
{
name = bottom;
position = "{324, -259}";
}
);
components = (
{
name = C;
}
);
layerId = "A6FDB8B9-512B-4F31-B986-CD5B604F5662";
paths = (
{
closed = 1;
nodes = (
"362 -279 OFFCURVE",
"470 -233 OFFCURVE",
"470 -130 CURVE SMOOTH",
"470 -75 OFFCURVE",
"428 -43 OFFCURVE",
"321 -17 CURVE",
"263 -110 LINE",
"347 -141 OFFCURVE",
"364 -150 OFFCURVE",
"364 -161 CURVE SMOOTH",
"364 -163 OFFCURVE",
"363 -166 OFFCURVE",
"361 -168 CURVE",
"221 -144 LINE",
"207 -241 LINE"
);
},
{
closed = 1;
nodes = (
"263 -110 LINE",
"336 -110 LINE",
"385 19 LINE",
"309 19 LINE"
);
}
);
width = 664;
}
);
leftKerningGroup = O;
rightKerningGroup = C;
unicode = 00C7;
},
{
color = 4;
glyphname = D;
lastChange = "2020-02-24 20:55:26 +0000";
layers = (
{
anchors = (
{
name = bottom;
position = "{328, 0}";
},
{
name = center;
position = "{227, 344}";
},
{
name = top;
position = "{466, 688}";
}
);
layerId = "A6FDB8B9-512B-4F31-B986-CD5B604F5662";
paths = (
{
closed = 1;
nodes = (
"92 688 LINE",
"76 605 LINE",
"164 572 LINE",
"59 112 LINE",
"16 97 OFFCURVE",
"-10 86 OFFCURVE",
"-30 76 CURVE",
"-45 0 LINE",
"348 0 LINE SMOOTH",
"597 0 OFFCURVE",
"785 183 OFFCURVE",
"785 427 CURVE SMOOTH",
"785 597 OFFCURVE",
"692 688 OFFCURVE",
"518 688 CURVE SMOOTH"
);
},
{
closed = 1;
nodes = (
"298 135 LINE",
"381 554 LINE",
"462 554 LINE SMOOTH",
"518 554 OFFCURVE",
"545 516 OFFCURVE",
"545 436 CURVE SMOOTH",
"545 312 OFFCURVE",
"486 167 OFFCURVE",
"423 135 CURVE"
);
}
);
width = 769;
},
{
anchors = (
{
name = bottom;
position = "{310, 0}";
},
{
name = center;
position = "{218, 334}";
},
{
name = top;
position = "{418, 644}";
}
);
layerId = "0E5388DE-A0E6-4EB4-BC9B-CE5870C9023F";
paths = (
{
closed = 1;
nodes = (
"130 644 LINE",
"127 633 LINE",
"249 615 LINE",
"124 29 LINE",
"74 27 OFFCURVE",
"34 21 OFFCURVE",
"3 10 CURVE",
"1 0 LINE",
"328 0 LINE SMOOTH",
"515 0 OFFCURVE",
"681 192 OFFCURVE",
"681 409 CURVE SMOOTH",
"681 555 OFFCURVE",
"595 644 OFFCURVE",
"454 644 CURVE SMOOTH"
);
},
{
closed = 1;
nodes = (
"162 30 LINE",
"279 614 LINE",
"454 614 LINE SMOOTH",
"571 614 OFFCURVE",
"645 535 OFFCURVE",
"645 408 CURVE SMOOTH",
"645 235 OFFCURVE",
"548 89 OFFCURVE",
"395 30 CURVE"
);
}
);
width = 734;
}
);
leftKerningGroup = H;
rightKerningGroup = O;
unicode = 0044;
},
{
color = 4;
glyphname = Eth;
lastChange = "2020-02-24 20:56:35 +0000";
layers = (
{
anchors = (
{
name = _center;
position = "{243, 334}";
}
);
components = (
{
name = D;
transform = "{1, 0, 0, 1, 25, 0}";
}
);
layerId = "0E5388DE-A0E6-4EB4-BC9B-CE5870C9023F";
leftMetricsKey = "=+25";
paths = (
{
closed = 1;
nodes = (
"87 320 LINE",
"393 320 LINE",
"399 347 LINE",
"93 347 LINE"
);
}
);
width = 759;
},
{
anchors = (
{
name = _center;
position = "{264, 344}";
}
);
components = (
{
name = D;
transform = "{1, 0, 0, 1, 37, 0}";
}
);
layerId = "A6FDB8B9-512B-4F31-B986-CD5B604F5662";
leftMetricsKey = "=+37";
paths = (
{
closed = 1;
nodes = (
"33 289 LINE",
"473 289 LINE",
"495 399 LINE",
"55 399 LINE"
);
}
);
width = 806;
}
);
leftKerningGroup = H;
rightKerningGroup = O;
unicode = 00D0;
},
{
color = 4;
glyphname = E;
lastChange = "2020-02-24 20:55:26 +0000";
layers = (
{
anchors = (
{
name = bottom;
position = "{324, 0}";
},
{
name = ogonek;
position = "{639, 10}";
},
{
name = top;
position = "{461, 688}";
},
{
name = topleft;
position = "{93, 688}";
}
);
background = {
paths = (
{
closed = 1;
nodes = (
"270 0 LINE",
"407 688 LINE",
"92 688 LINE",
"76 605 LINE",
"163 572 LINE",
"58 112 LINE",
"27 102 OFFCURVE",
"-2 90 OFFCURVE",
"-30 76 CURVE",
"-45 0 LINE"
);
},
{
closed = 1;
nodes = (
"627 0 LINE",
"654 133 LINE",
"175 133 LINE",
"148 0 LINE"
);
},
{
closed = 1;
nodes = (
"645 0 LINE",
"696 256 LINE",
"604 256 LINE",
"443 0 LINE"
);
},
{
closed = 1;
nodes = (
"534 280 LINE",
"560 412 LINE",
"233 412 LINE",
"207 280 LINE"
);
},
{
closed = 1;
nodes = (
"528 203 LINE",
"584 485 LINE",
"500 485 LINE",
"403 344 LINE",
"444 203 LINE"
);
},
{
closed = 1;
nodes = (
"721 556 LINE",
"747 688 LINE",
"285 688 LINE",
"259 556 LINE"
);
},
{
closed = 1;
nodes = (
"726 450 LINE",
"773 688 LINE",
"570 688 LINE",
"633 450 LINE"
);
}
);
};
layerId = "A6FDB8B9-512B-4F31-B986-CD5B604F5662";
paths = (
{
closed = 1;
nodes = (
"645 0 LINE",
"696 256 LINE",
"604 256 LINE",
"527 133 LINE",
"296 133 LINE",
"326 280 LINE",
"422 280 LINE",
"444 203 LINE",
"528 203 LINE",
"584 485 LINE",
"500 485 LINE",
"450 412 LINE",
"352 412 LINE",
"381 556 LINE",
"605 556 LINE",
"633 450 LINE",
"726 450 LINE",
"773 688 LINE",
"92 688 LINE",
"76 605 LINE",
"163 572 LINE",
"58 112 LINE",
"27 102 OFFCURVE",
"-2 90 OFFCURVE",
"-30 76 CURVE",
"-45 0 LINE"
);
}
);
width = 742;
},
{
anchors = (
{
name = bottom;
position = "{292, 0}";
},
{
name = ogonek;
position = "{505, 10}";
},
{
name = top;
position = "{431, 644}";
},
{
name = topleft;
position = "{123, 644}";
}
);
background = {
paths = (
{
closed = 1;
nodes = (
"156 0 LINE",
"285 644 LINE",
"130 644 LINE",
"127 633 LINE",
"249 615 LINE",
"124 29 LINE",
"87 27 OFFCURVE",
"46 21 OFFCURVE",
"3 10 CURVE",
"1 0 LINE"
);
},
{
closed = 1;
nodes = (
"508 0 LINE",
"514 30 LINE",
"145 30 LINE",
"139 0 LINE"
);
},
{
closed = 1;
nodes = (
"522 0 LINE",
"563 205 LINE",
"555 205 LINE",
"478 0 LINE"
);
},
{
closed = 1;
nodes = (
"472 319 LINE",
"478 349 LINE",
"209 349 LINE",
"203 319 LINE"
);
},
{
closed = 1;
nodes = (
"461 230 LINE",
"503 439 LINE",
"496 439 LINE",
"442 334 LINE",
"454 230 LINE"
);
},
{
closed = 1;
nodes = (
"616 614 LINE",
"622 644 LINE",
"268 644 LINE",
"262 614 LINE"
);
},
{
closed = 1;
nodes = (
"604 460 LINE",
"641 644 LINE",
"597 644 LINE",
"596 460 LINE"
);
}
);
};
layerId = "0E5388DE-A0E6-4EB4-BC9B-CE5870C9023F";
paths = (
{
closed = 1;
nodes = (
"522 0 LINE",
"563 205 LINE",
"555 205 LINE",
"489 30 LINE",
"162 30 LINE",
"220 319 LINE",
"444 319 LINE",
"454 230 LINE",
"461 230 LINE",
"503 439 LINE",
"496 439 LINE",
"450 349 LINE",
"226 349 LINE",
"279 614 LINE",
"597 614 LINE",
"596 460 LINE",
"604 460 LINE",
"641 644 LINE",
"130 644 LINE",
"127 633 LINE",
"249 615 LINE",
"124 29 LINE",
"87 27 OFFCURVE",
"46 21 OFFCURVE",
"3 10 CURVE",
"1 0 LINE"
);
}
);
width = 677;
}
);
leftKerningGroup = H;
rightKerningGroup = E;
unicode = 0045;
},
{
color = 4;
glyphname = Eacute;
lastChange = "2020-02-24 20:56:35 +0000";
layers = (
{
anchors = (
{
name = top;
position = "{476, 869}";
}
);
components = (
{
name = E;
}
);
layerId = "0E5388DE-A0E6-4EB4-BC9B-CE5870C9023F";
paths = (
{
closed = 1;
nodes = (
"457 768 OFFCURVE",
"512 806 OFFCURVE",
"567 847 CURVE",
"551 869 LINE",
"545 869 LINE",
"389 740 LINE",
"395 731 LINE"
);
}
);
width = 677;
},
{
anchors = (
{
name = top;
position = "{522, 995}";
}
);
components = (
{
name = E;
}
);
layerId = "A6FDB8B9-512B-4F31-B986-CD5B604F5662";
paths = (
{
closed = 1;
nodes = (
"482 763 OFFCURVE",
"574 797 OFFCURVE",
"665 839 CURVE",
"591 986 LINE",
"564 986 LINE",
"345 808 LINE",
"387 735 LINE"
);
}
);
width = 742;
}
);
leftKerningGroup = H;
rightKerningGroup = E;
unicode = 00C9;
},
{
color = 4;
glyphname = Edieresis;
lastChange = "2020-02-24 20:56:35 +0000";
layers = (
{
anchors = (
{
name = top;
position = "{469, 834}";
}
);
components = (
{
name = E;
}
);
layerId = "0E5388DE-A0E6-4EB4-BC9B-CE5870C9023F";
paths = (
{
closed = 1;
nodes = (
"393 831 OFFCURVE",
"380 823 OFFCURVE",
"368 811 CURVE",
"371 799 OFFCURVE",
"379 786 OFFCURVE",
"390 773 CURVE",
"404 775 OFFCURVE",
"419 783 OFFCURVE",
"429 794 CURVE",
"427 808 OFFCURVE",
"420 822 OFFCURVE",
"408 834 CURVE"
);
},
{
closed = 1;
nodes = (
"522 831 OFFCURVE",
"508 823 OFFCURVE",
"497 811 CURVE",
"501 796 OFFCURVE",
"509 783 OFFCURVE",
"520 773 CURVE",
"533 775 OFFCURVE",
"546 782 OFFCURVE",
"558 794 CURVE",
"556 808 OFFCURVE",
"549 821 OFFCURVE",
"538 834 CURVE"
);
}
);
width = 677;
},
{
anchors = (
{
name = top;
position = "{519, 980}";
}
);
components = (
{
name = E;
}
);
layerId = "A6FDB8B9-512B-4F31-B986-CD5B604F5662";
paths = (
{
closed = 1;
nodes = (
"355 971 OFFCURVE",
"303 939 OFFCURVE",
"266 901 CURVE",
"275 844 OFFCURVE",
"308 789 OFFCURVE",
"349 756 CURVE",
"402 763 OFFCURVE",
"457 797 OFFCURVE",
"491 838 CURVE",
"483 892 OFFCURVE",
"452 943 OFFCURVE",
"410 980 CURVE"
);
},
{
closed = 1;
nodes = (
"591 971 OFFCURVE",
"539 939 OFFCURVE",
"502 901 CURVE",
"511 844 OFFCURVE",
"543 789 OFFCURVE",
"584 756 CURVE",
"638 763 OFFCURVE",
"693 797 OFFCURVE",
"727 838 CURVE",
"719 892 OFFCURVE",
"686 943 OFFCURVE",
"645 980 CURVE"
);
}
);
width = 742;
}
);
leftKerningGroup = H;
rightKerningGroup = E;
unicode = 00CB;
},
{
color = 4;
glyphname = Egrave;
lastChange = "2020-02-24 20:56:35 +0000";
layers = (
{
anchors = (
{
name = top;
position = "{476, 869}";
}
);
components = (
{
name = E;
}
);
layerId = "0E5388DE-A0E6-4EB4-BC9B-CE5870C9023F";
paths = (
{
closed = 1;
nodes = (
"533 740 LINE",
"377 869 LINE",
"371 869 LINE",
"355 847 LINE",
"410 806 OFFCURVE",
"465 768 OFFCURVE",
"527 731 CURVE"
);
}
);
width = 677;
},
{
anchors = (
{
name = top;
position = "{522, 995}";
}
);
components = (
{
name = E;
}
);
layerId = "A6FDB8B9-512B-4F31-B986-CD5B604F5662";
paths = (
{
closed = 1;
nodes = (
"643 808 LINE",
"424 986 LINE",
"397 986 LINE",
"323 839 LINE",
"414 797 OFFCURVE",
"506 763 OFFCURVE",
"601 735 CURVE"
);
}
);
width = 742;
}
);
leftKerningGroup = H;
rightKerningGroup = E;
unicode = 00C8;
},
{
color = 4;
glyphname = F;
lastChange = "2020-02-24 20:55:26 +0000";
layers = (
{
anchors = (
{
name = bottom;
position = "{291, 0}";
},
{
name = center;
position = "{191, 181}";
},
{
name = top;
position = "{428, 688}";
}
);
layerId = "A6FDB8B9-512B-4F31-B986-CD5B604F5662";
paths = (
{
closed = 1;
nodes = (
"92 688 LINE",
"76 605 LINE",
"163 572 LINE",
"58 112 LINE",
"27 102 OFFCURVE",
"-2 90 OFFCURVE",
"-30 76 CURVE",
"-45 0 LINE",
"391 0 LINE",
"408 84 LINE",
"291 107 LINE",
"381 556 LINE",
"591 556 LINE",
"619 444 LINE",
"712 444 LINE",
"760 688 LINE"
);
},
{
closed = 1;
nodes = (
"492 252 LINE",
"519 384 LINE",
"229 384 LINE",
"202 252 LINE"
);
},
{
closed = 1;
nodes = (
"513 175 LINE",
"569 456 LINE",
"485 456 LINE",
"388 315 LINE",
"429 175 LINE"
);
}
);
width = 666;
},
{
anchors = (
{
name = bottom;
position = "{140, 0}";
},
{
name = center;
position = "{176, 162}";
},
{
name = top;
position = "{419, 644}";
}
);
layerId = "0E5388DE-A0E6-4EB4-BC9B-CE5870C9023F";
paths = (
{
closed = 1;
nodes = (
"130 644 LINE",
"127 633 LINE",
"249 615 LINE",
"124 29 LINE",
"87 27 OFFCURVE",
"46 21 OFFCURVE",
"3 10 CURVE",
"1 0 LINE",
"298 0 LINE",
"300 12 LINE",
"162 30 LINE",
"279 614 LINE",
"564 614 LINE",
"563 460 LINE",
"571 460 LINE",
"608 644 LINE"
);
},
{
closed = 1;
nodes = (
"434 305 LINE",
"440 335 LINE",
"206 335 LINE",
"200 305 LINE"
);
},
{
closed = 1;
nodes = (
"433 216 LINE",
"475 425 LINE",
"468 425 LINE",
"414 320 LINE",
"426 216 LINE"
);
}
);
width = 592;
}
);
leftKerningGroup = H;
rightKerningGroup = F;
unicode = 0046;
},
{
color = 4;
glyphname = G;
lastChange = "2020-02-24 20:55:26 +0000";
layers = (
{
anchors = (
{
name = bottom;
position = "{331, 0}";
},
{
name = top;
position = "{449, 688}";
}
);
background = {
paths = (
{
closed = 1;
nodes = (
"412 -14 OFFCURVE",
"499 0 OFFCURVE",
"608 25 CURVE",
"566 172 LINE",
"487 143 OFFCURVE",
"425 128 OFFCURVE",
"378 128 CURVE SMOOTH",
"299 128 OFFCURVE",
"262 170 OFFCURVE",
"262 255 CURVE SMOOTH",
"262 362 OFFCURVE",
"315 518 OFFCURVE",
"381 581 CURVE",
"271 531 LINE",
"320 538 OFFCURVE",
"367 542 OFFCURVE",
"413 542 CURVE SMOOTH",
"478 542 OFFCURVE",
"541 534 OFFCURVE",
"603 513 CURVE",
"726 673 LINE",
"635 693 OFFCURVE",
"526 703 OFFCURVE",
"466 703 CURVE SMOOTH",
"199 703 OFFCURVE",
"27 540 OFFCURVE",
"27 287 CURVE SMOOTH",
"27 89 OFFCURVE",
"132 -14 OFFCURVE",
"336 -14 CURVE SMOOTH"
);
},
{
closed = 1;
nodes = (
"608 25 LINE",
"649 256 LINE",
"686 268 OFFCURVE",
"711 278 OFFCURVE",
"731 289 CURVE",
"739 370 LINE",
"351 370 LINE",
"338 286 LINE",
"426 253 LINE",
"383 25 LINE"
);
},
{
closed = 1;
nodes = (
"679 437 LINE",
"726 673 LINE",
"518 676 LINE",
"582 437 LINE"
);
}
);
};
layerId = "A6FDB8B9-512B-4F31-B986-CD5B604F5662";
paths = (
{
closed = 1;
nodes = (
"412 -14 OFFCURVE",
"499 0 OFFCURVE",
"608 25 CURVE",
"566 172 LINE",
"487 143 OFFCURVE",
"425 128 OFFCURVE",
"378 128 CURVE SMOOTH",
"299 128 OFFCURVE",
"262 170 OFFCURVE",
"262 255 CURVE SMOOTH",
"262 362 OFFCURVE",
"315 518 OFFCURVE",
"381 581 CURVE",
"271 531 LINE",
"315 539 OFFCURVE",
"358 543 OFFCURVE",
"400 543 CURVE SMOOTH",
"470 543 OFFCURVE",
"538 532 OFFCURVE",
"603 513 CURVE",
"726 673 LINE",
"635 693 OFFCURVE",
"526 703 OFFCURVE",
"466 703 CURVE SMOOTH",
"199 703 OFFCURVE",
"27 540 OFFCURVE",
"27 287 CURVE SMOOTH",
"27 89 OFFCURVE",
"132 -14 OFFCURVE",
"336 -14 CURVE SMOOTH"
);
},
{
closed = 1;
nodes = (
"608 25 LINE",
"649 256 LINE",
"686 268 OFFCURVE",
"711 278 OFFCURVE",
"731 289 CURVE",
"739 370 LINE",
"351 370 LINE",
"338 286 LINE",
"426 253 LINE",
"383 25 LINE"
);
},
{
closed = 1;
nodes = (
"679 437 LINE",
"726 673 LINE",
"518 676 LINE",
"582 437 LINE"
);
}
);
width = 726;
},
{
anchors = (
{
name = bottom;
position = "{331, 0}";
},
{
name = top;
position = "{450, 644}";
}
);
background = {
paths = (
{
closed = 1;
nodes = (
"411 -7 OFFCURVE",
"452 -2 OFFCURVE",
"530 14 CURVE",
"529 46 LINE",
"469 31 OFFCURVE",
"416 23 OFFCURVE",
"371 23 CURVE SMOOTH",
"214 23 OFFCURVE",
"126 106 OFFCURVE",
"126 253 CURVE SMOOTH",
"126 365 OFFCURVE",
"177 485 OFFCURVE",
"260 572 CURVE",
"246 561 LINE",
"320 599 OFFCURVE",
"401 619 OFFCURVE",
"485 619 CURVE SMOOTH",
"537 619 OFFCURVE",
"589 612 OFFCURVE",
"642 597 CURVE",
"651 632 LINE",
"593 646 OFFCURVE",
"539 653 OFFCURVE",
"488 653 CURVE SMOOTH",
"250 653 OFFCURVE",
"92 497 OFFCURVE",
"92 262 CURVE SMOOTH",
"92 83 OFFCURVE",
"184 -7 OFFCURVE",
"369 -7 CURVE SMOOTH"
);
},
{
closed = 1;
nodes = (
"530 14 LINE",
"584 286 LINE",
"623 289 OFFCURVE",
"654 295 OFFCURVE",
"678 305 CURVE",
"680 314 LINE",
"402 314 LINE",
"399 303 LINE",
"549 285 LINE",
"492 14 LINE"
);
},
{
closed = 1;
nodes = (
"615 451 LINE",
"651 632 LINE",
"605 632 LINE",
"607 451 LINE"
);
}
);
};
layerId = "0E5388DE-A0E6-4EB4-BC9B-CE5870C9023F";
paths = (
{
closed = 1;
nodes = (
"411 -7 OFFCURVE",
"452 -2 OFFCURVE",
"530 14 CURVE",
"529 46 LINE",
"469 31 OFFCURVE",
"416 23 OFFCURVE",
"371 23 CURVE SMOOTH",
"214 23 OFFCURVE",
"126 106 OFFCURVE",
"126 253 CURVE SMOOTH",
"126 365 OFFCURVE",
"177 485 OFFCURVE",
"260 572 CURVE",
"246 561 LINE",
"320 599 OFFCURVE",
"398 619 OFFCURVE",
"482 619 CURVE SMOOTH",
"533 619 OFFCURVE",
"587 612 OFFCURVE",
"642 597 CURVE",
"651 632 LINE",
"593 646 OFFCURVE",
"539 653 OFFCURVE",
"488 653 CURVE SMOOTH",
"250 653 OFFCURVE",
"92 497 OFFCURVE",
"92 262 CURVE SMOOTH",
"92 83 OFFCURVE",
"184 -7 OFFCURVE",
"369 -7 CURVE SMOOTH"
);
},
{
closed = 1;
nodes = (
"530 14 LINE",
"584 286 LINE",
"623 289 OFFCURVE",
"654 295 OFFCURVE",
"678 305 CURVE",
"680 314 LINE",
"402 314 LINE",
"399 303 LINE",
"549 285 LINE",
"492 14 LINE"
);
},
{
closed = 1;
nodes = (
"615 451 LINE",
"651 632 LINE",
"605 632 LINE",
"607 451 LINE"
);
}
);
width = 718;
}
);
leftKerningGroup = O;
rightKerningGroup = G;
unicode = 0047;
},
{
color = 4;
glyphname = H;
lastChange = "2020-02-24 20:55:26 +0000";
layers = (
{
anchors = (
{
name = bottom;
position = "{365, 0}";
},
{
name = center;
position = "{469, 520}";
},
{
name = top;
position = "{502, 688}";
},
{
name = topleft;
position = "{93, 688}";
}
);
layerId = "A6FDB8B9-512B-4F31-B986-CD5B604F5662";
paths = (
{
closed = 1;
nodes = (
"774 0 LINE",
"791 84 LINE",
"715 107 LINE",
"809 576 LINE",
"840 586 OFFCURVE",
"869 599 OFFCURVE",
"896 612 CURVE",
"911 688 LINE",
"527 688 LINE",
"511 605 LINE",
"588 572 LINE",
"482 112 LINE",
"455 102 OFFCURVE",
"428 90 OFFCURVE",
"405 77 CURVE",
"390 0 LINE"
);
},
{
closed = 1;
nodes = (
"340 0 LINE",
"357 84 LINE",
"291 107 LINE",
"385 576 LINE",
"411 586 OFFCURVE",
"438 599 OFFCURVE",
"462 612 CURVE",
"477 688 LINE",
"92 688 LINE",
"76 605 LINE",
"163 572 LINE",
"58 112 LINE",
"27 102 OFFCURVE",
"-2 90 OFFCURVE",
"-30 76 CURVE",
"-45 0 LINE"
);
},
{
closed = 1;
nodes = (
"637 270 LINE",
"663 402 LINE",
"240 402 LINE",
"214 270 LINE"
);
}
);
width = 836;
},
{
anchors = (
{
name = bottom;
position = "{350, 0}";
},
{
name = center;
position = "{448, 496}";
},
{
name = top;
position = "{479, 644}";
},
{
name = topleft;
position = "{123, 644}";
}
);
layerId = "0E5388DE-A0E6-4EB4-BC9B-CE5870C9023F";
paths = (
{
closed = 1;
nodes = (
"695 0 LINE",
"697 12 LINE",
"584 30 LINE",
"701 616 LINE",
"732 618 OFFCURVE",
"765 623 OFFCURVE",
"822 635 CURVE",
"824 644 LINE",
"552 644 LINE",
"549 633 LINE",
"671 615 LINE",
"546 29 LINE",
"508 27 OFFCURVE",
"466 19 OFFCURVE",
"424 7 CURVE",
"423 0 LINE"
);
},
{
closed = 1;
nodes = (
"273 0 LINE",
"275 12 LINE",
"162 30 LINE",
"279 616 LINE",
"312 618 OFFCURVE",
"348 624 OFFCURVE",
"400 635 CURVE",
"402 644 LINE",
"130 644 LINE",
"127 633 LINE",
"249 615 LINE",
"124 29 LINE",
"87 27 OFFCURVE",
"46 21 OFFCURVE",
"3 10 CURVE",
"1 0 LINE"
);
},
{
closed = 1;
nodes = (
"626 319 LINE",
"632 349 LINE",
"209 349 LINE",
"203 319 LINE"
);
}
);
width = 793;
}
);
leftKerningGroup = H;
rightKerningGroup = H;
unicode = 0048;
},
{
color = 4;
glyphname = I;
lastChange = "2020-02-24 20:55:26 +0000";
layers = (
{
anchors = (
{
name = bottom;
position = "{153, 0}";
},
{
name = ogonek;
position = "{331, 10}";
},
{
name = top;
position = "{290, 688}";
},
{
name = topleft;
position = "{93, 688}";
}
);
layerId = "A6FDB8B9-512B-4F31-B986-CD5B604F5662";
paths = (
{
closed = 1;
nodes = (
"350 0 LINE",
"367 84 LINE",
"291 107 LINE",
"385 576 LINE",
"415 586 OFFCURVE",
"445 599 OFFCURVE",
"472 612 CURVE",
"487 688 LINE",
"92 688 LINE",
"76 605 LINE",
"163 572 LINE",
"58 112 LINE",
"27 102 OFFCURVE",
"-2 90 OFFCURVE",
"-30 76 CURVE",
"-45 0 LINE"
);
}
);
width = 412;
},
{
anchors = (
{
name = bottom;
position = "{139, 0}";
},
{
name = ogonek;
position = "{247, 10}";
},
{
name = top;
position = "{268, 644}";
},
{
name = topleft;
position = "{123, 644}";
}
);
layerId = "0E5388DE-A0E6-4EB4-BC9B-CE5870C9023F";
paths = (
{
closed = 1;
nodes = (
"273 0 LINE",
"275 12 LINE",
"162 30 LINE",
"279 616 LINE",
"310 618 OFFCURVE",
"343 623 OFFCURVE",
"400 635 CURVE",
"402 644 LINE",
"130 644 LINE",
"127 633 LINE",
"249 615 LINE",
"124 29 LINE",
"87 27 OFFCURVE",
"46 21 OFFCURVE",
"3 10 CURVE",
"1 0 LINE"
);
}
);
width = 371;
}
);
leftKerningGroup = H;
rightKerningGroup = H;
unicode = 0049;
},
{
color = 4;
glyphname = Iacute;
lastChange = "2020-02-24 20:56:35 +0000";
layers = (
{
anchors = (
{
name = top;
position = "{313, 869}";
}
);
components = (
{
name = I;
}
);
layerId = "0E5388DE-A0E6-4EB4-BC9B-CE5870C9023F";
paths = (
{
closed = 1;
nodes = (
"294 768 OFFCURVE",
"349 806 OFFCURVE",
"404 847 CURVE",
"388 869 LINE",
"382 869 LINE",
"226 740 LINE",
"232 731 LINE"
);
}
);
width = 371;
},
{
anchors = (
{
name = top;
position = "{351, 995}";
}
);
components = (
{
name = I;
}
);
layerId = "A6FDB8B9-512B-4F31-B986-CD5B604F5662";
paths = (
{
closed = 1;
nodes = (
"311 763 OFFCURVE",
"403 797 OFFCURVE",
"494 839 CURVE",
"420 986 LINE",
"393 986 LINE",
"174 808 LINE",
"216 735 LINE"
);
}
);
width = 412;
}
);
leftKerningGroup = H;
rightKerningGroup = H;
unicode = 00CD;
},
{
color = 4;
glyphname = Idieresis;
lastChange = "2020-02-24 20:56:35 +0000";
layers = (
{
anchors = (
{
name = top;
position = "{306, 834}";
}
);
components = (
{
name = I;
}
);
layerId = "0E5388DE-A0E6-4EB4-BC9B-CE5870C9023F";
paths = (
{
closed = 1;
nodes = (
"230 831 OFFCURVE",
"217 823 OFFCURVE",
"205 811 CURVE",
"208 799 OFFCURVE",
"216 786 OFFCURVE",
"227 773 CURVE",
"241 775 OFFCURVE",
"256 783 OFFCURVE",
"266 794 CURVE",
"264 808 OFFCURVE",
"257 822 OFFCURVE",
"245 834 CURVE"
);
},
{
closed = 1;
nodes = (
"359 831 OFFCURVE",
"345 823 OFFCURVE",
"334 811 CURVE",
"338 796 OFFCURVE",
"346 783 OFFCURVE",
"357 773 CURVE",
"370 775 OFFCURVE",
"383 782 OFFCURVE",
"395 794 CURVE",
"393 808 OFFCURVE",
"386 821 OFFCURVE",
"375 834 CURVE"
);
}
);
width = 371;
},
{
anchors = (
{
name = top;
position = "{348, 980}";
}
);
components = (
{
name = I;
}
);
layerId = "A6FDB8B9-512B-4F31-B986-CD5B604F5662";
paths = (
{
closed = 1;
nodes = (
"184 971 OFFCURVE",
"132 939 OFFCURVE",
"95 901 CURVE",
"104 844 OFFCURVE",
"137 789 OFFCURVE",
"178 756 CURVE",
"231 763 OFFCURVE",
"286 797 OFFCURVE",
"320 838 CURVE",
"312 892 OFFCURVE",
"281 943 OFFCURVE",
"239 980 CURVE"
);
},
{
closed = 1;
nodes = (
"420 971 OFFCURVE",
"368 939 OFFCURVE",
"331 901 CURVE",
"340 844 OFFCURVE",
"372 789 OFFCURVE",
"413 756 CURVE",
"467 763 OFFCURVE",
"522 797 OFFCURVE",
"556 838 CURVE",
"548 892 OFFCURVE",
"515 943 OFFCURVE",
"474 980 CURVE"
);
}
);
width = 412;
}
);
leftKerningGroup = H;
rightKerningGroup = H;
unicode = 00CF;
},
{
color = 4;
glyphname = Igrave;
lastChange = "2020-02-24 20:56:35 +0000";
layers = (
{
anchors = (
{
name = top;
position = "{313, 869}";
}
);
components = (
{
name = I;
}
);
layerId = "0E5388DE-A0E6-4EB4-BC9B-CE5870C9023F";
paths = (
{
closed = 1;
nodes = (
"370 740 LINE",
"214 869 LINE",
"208 869 LINE",
"192 847 LINE",
"247 806 OFFCURVE",
"302 768 OFFCURVE",
"364 731 CURVE"
);
}
);
width = 371;
},
{
anchors = (
{
name = top;
position = "{351, 995}";
}
);
components = (
{
name = I;
}
);
layerId = "A6FDB8B9-512B-4F31-B986-CD5B604F5662";
paths = (
{
closed = 1;
nodes = (
"472 808 LINE",
"253 986 LINE",
"226 986 LINE",
"152 839 LINE",
"243 797 OFFCURVE",
"335 763 OFFCURVE",
"430 735 CURVE"
);
}
);
width = 412;
}
);
leftKerningGroup = H;
rightKerningGroup = H;
unicode = 00CC;
},
{
color = 4;
glyphname = J;
lastChange = "2020-02-24 20:55:26 +0000";
layers = (
{
anchors = (
{
name = bottom;
position = "{207, 0}";
},
{
name = top;
position = "{452, 688}";
}
);
layerId = "A6FDB8B9-512B-4F31-B986-CD5B604F5662";
paths = (
{
closed = 1;
nodes = (
"8 -11 OFFCURVE",
"62 -16 OFFCURVE",
"111 -16 CURVE SMOOTH",
"318 -16 OFFCURVE",
"443 76 OFFCURVE",
"479 256 CURVE SMOOTH",
"543 576 LINE",
"569 585 OFFCURVE",
"605 602 OFFCURVE",
"627 612 CURVE",
"642 688 LINE",
"185 688 LINE",
"169 605 LINE",
"321 572 LINE",
"229 148 LINE",
"212 138 OFFCURVE",
"192 134 OFFCURVE",
"169 134 CURVE SMOOTH",
"122 134 OFFCURVE",
"64 155 OFFCURVE",
"8 194 CURVE",
"-51 0 LINE"
);
},
{
closed = 1;
nodes = (
"148 0 LINE",
"95 269 LINE",
"3 269 LINE",
"-51 0 LINE"
);
}
);
width = 545;
},
{
anchors = (
{
name = bottom;
position = "{192, 0}";
},
{
name = top;
position = "{409, 644}";
}
);
layerId = "0E5388DE-A0E6-4EB4-BC9B-CE5870C9023F";
paths = (
{
closed = 1;
nodes = (
"45 -5 OFFCURVE",
"69 -7 OFFCURVE",
"90 -7 CURVE SMOOTH",
"225 -7 OFFCURVE",
"307 63 OFFCURVE",
"334 201 CURVE SMOOTH",
"416 616 LINE",
"459 619 OFFCURVE",
"496 625 OFFCURVE",
"530 635 CURVE",
"532 644 LINE",
"248 644 LINE",
"245 633 LINE",
"386 615 LINE",
"282 117 LINE",
"236 47 OFFCURVE",
"190 24 OFFCURVE",
"100 24 CURVE SMOOTH",
"72 24 OFFCURVE",
"48 25 OFFCURVE",
"25 28 CURVE",
"13 0 LINE"
);
},
{
closed = 1;
nodes = (
"54 0 LINE",
"61 205 LINE",
"54 205 LINE",
"13 0 LINE"
);
}
);
width = 486;
}
);
leftKerningGroup = J;
rightKerningGroup = U;
unicode = 004A;
},
{
color = 4;
glyphname = K;
lastChange = "2020-02-24 20:55:26 +0000";
layers = (
{
anchors = (
{
name = bottom;
position = "{353, 0}";
},
{
name = top;
position = "{490, 688}";
}
);
layerId = "A6FDB8B9-512B-4F31-B986-CD5B604F5662";
paths = (
{
closed = 1;
nodes = (
"350 0 LINE",
"367 84 LINE",
"291 107 LINE",
"385 576 LINE",
"415 586 OFFCURVE",
"445 599 OFFCURVE",
"472 612 CURVE",
"487 688 LINE",
"92 688 LINE",
"76 605 LINE",
"163 572 LINE",
"58 112 LINE",
"27 102 OFFCURVE",
"-2 90 OFFCURVE",
"-30 76 CURVE",
"-45 0 LINE"
);
},
{
closed = 1;
nodes = (
"753 0 LINE",
"770 84 LINE",
"613 152 LINE",
"543 141 OFFCURVE",
"467 116 OFFCURVE",
"394 77 CURVE",
"379 0 LINE"
);
},
{
closed = 1;
nodes = (
"732 549 OFFCURVE",
"792 573 OFFCURVE",
"854 612 CURVE",
"869 688 LINE",
"551 688 LINE",
"534 603 LINE",
"670 536 LINE"
);
},
{
closed = 1;
nodes = (
"665 678 LINE",
"335 333 LINE",
"466 10 LINE",
"691 10 LINE",
"717 68 LINE",
"537 458 LINE",
"509 300 LINE",
"817 611 LINE",
"821 678 LINE"
);
}
);
width = 787;
},
{
anchors = (
{
name = bottom;
position = "{320, 0}";
},
{
name = top;
position = "{449, 644}";
}
);
layerId = "0E5388DE-A0E6-4EB4-BC9B-CE5870C9023F";
paths = (
{
closed = 1;
nodes = (
"273 0 LINE",
"275 12 LINE",
"162 30 LINE",
"279 616 LINE",
"310 618 OFFCURVE",
"343 623 OFFCURVE",
"400 635 CURVE",
"402 644 LINE",
"130 644 LINE",
"127 633 LINE",
"249 615 LINE",
"124 29 LINE",
"87 27 OFFCURVE",
"46 21 OFFCURVE",
"3 10 CURVE",
"1 0 LINE"
);
},
{
closed = 1;
nodes = (
"655 0 LINE",
"657 12 LINE",
"545 32 LINE",
"491 30 OFFCURVE",
"439 22 OFFCURVE",
"384 7 CURVE",
"383 0 LINE"
);
},
{
closed = 1;
nodes = (
"667 614 OFFCURVE",
"712 622 OFFCURVE",
"763 637 CURVE",
"765 644 LINE",
"493 644 LINE",
"490 632 LINE",
"622 612 LINE"
);
},
{
closed = 1;
nodes = (
"631 634 LINE",
"271 333 LINE",
"529 10 LINE",
"567 10 LINE",
"569 18 LINE",
"306 341 LINE",
"305 322 LINE",
"673 631 LINE",
"674 634 LINE"
);
}
);
width = 742;
}
);
leftKerningGroup = H;
rightKerningGroup = X;
unicode = 004B;
},
{
color = 4;
glyphname = L;
lastChange = "2020-02-24 20:55:26 +0000";
layers = (
{
anchors = (
{
name = bottom;
position = "{276, 0}";
},
{
name = center;
position = "{244, 361}";
},
{
name = top;
position = "{309, 688}";
},
{
name = topright;
position = "{659, 688}";
}
);
layerId = "A6FDB8B9-512B-4F31-B986-CD5B604F5662";
paths = (
{
closed = 1;
nodes = (
"449 132 LINE",
"296 132 LINE",
"385 576 LINE",
"427 586 OFFCURVE",
"467 599 OFFCURVE",
"503 612 CURVE",
"518 688 LINE",
"92 688 LINE",
"76 605 LINE",
"163 572 LINE",
"58 112 LINE",
"27 102 OFFCURVE",
"-2 90 OFFCURVE",
"-30 76 CURVE",
"-45 0 LINE",
"576 0 LINE",
"638 305 LINE",
"543 305 LINE"
);
}
);
width = 632;
},
{
anchors = (
{
name = bottom;
position = "{255, 0}";
},
{
name = center;
position = "{229, 366}";
},
{
name = top;
position = "{274, 644}";
},
{
name = topright;
position = "{576, 644}";
}
);
layerId = "0E5388DE-A0E6-4EB4-BC9B-CE5870C9023F";
paths = (
{
closed = 1;
nodes = (
"444 30 LINE",
"162 30 LINE",
"279 616 LINE",
"317 618 OFFCURVE",
"358 624 OFFCURVE",
"410 635 CURVE",
"412 644 LINE",
"130 644 LINE",
"127 633 LINE",
"249 615 LINE",
"124 29 LINE",
"87 27 OFFCURVE",
"46 21 OFFCURVE",
"3 10 CURVE",
"1 0 LINE",
"475 0 LINE",
"525 250 LINE",
"518 250 LINE"
);
}
);
width = 592;
}
);
leftKerningGroup = H;
rightKerningGroup = L;
unicode = 004C;
},
{
color = 4;
glyphname = M;
lastChange = "2020-02-24 20:55:26 +0000";
layers = (
{
anchors = (
{
name = bottom;
position = "{417, 0}";
},
{
name = top;
position = "{594, 688}";
}
);
layerId = "A6FDB8B9-512B-4F31-B986-CD5B604F5662";
paths = (
{
closed = 1;
nodes = (
"282 0 LINE",
"299 84 LINE",
"206 107 LINE",
"309 600 LINE",
"278 601 LINE",
"348 0 LINE",
"487 0 LINE",
"807 617 LINE",
"783 625 LINE",
"669 112 LINE",
"638 102 OFFCURVE",
"610 90 OFFCURVE",
"583 76 CURVE",
"568 0 LINE",
"958 0 LINE",
"975 84 LINE",
"895 107 LINE",
"985 576 LINE",
"1017 586 OFFCURVE",
"1048 599 OFFCURVE",
"1076 612 CURVE",
"1091 688 LINE",
"697 688 LINE",
"470 235 LINE",
"523 225 LINE",
"481 688 LINE",
"92 688 LINE",
"76 605 LINE",
"166 572 LINE",
"56 112 LINE",
"23 102 OFFCURVE",
"-4 90 OFFCURVE",
"-30 76 CURVE",
"-45 0 LINE"
);
}
);
width = 1016;
},
{
anchors = (
{
name = bottom;
position = "{413, 0}";
},
{
name = top;
position = "{553, 644}";
}
);
background = {
paths = (
{
closed = 1;
nodes = (
"421 0 LINE",
"833 644 LINE",
"798 644 LINE",
"418 51 LINE",
"434 51 LINE",
"305 644 LINE",
"272 644 LINE",
"412 0 LINE"
);
},
{
closed = 1;
nodes = (
"283 0 LINE",
"285 12 LINE",
"155 30 LINE",
"290 644 LINE",
"134 644 LINE",
"131 633 LINE",
"257 615 LINE",
"120 29 LINE",
"84 27 OFFCURVE",
"44 21 OFFCURVE",
"-4 10 CURVE",
"-6 0 LINE"
);
},
{
closed = 1;
nodes = (
"850 0 LINE",
"852 12 LINE",
"735 30 LINE",
"842 616 LINE",
"874 618 OFFCURVE",
"909 623 OFFCURVE",
"966 635 CURVE",
"968 644 LINE",
"816 644 LINE",
"697 29 LINE",
"660 27 OFFCURVE",
"621 21 OFFCURVE",
"573 10 CURVE",
"571 0 LINE"
);
}
);
};
layerId = "0E5388DE-A0E6-4EB4-BC9B-CE5870C9023F";
paths = (
{
closed = 1;
nodes = (
"283 0 LINE",
"285 12 LINE",
"155 30 LINE",
"284 616 LINE",
"278 616 LINE",
"412 0 LINE",
"421 0 LINE",
"816 617 LINE",
"812 619 LINE",
"697 29 LINE",
"660 27 OFFCURVE",
"621 21 OFFCURVE",
"573 10 CURVE",
"571 0 LINE",
"850 0 LINE",
"852 12 LINE",
"735 30 LINE",
"842 616 LINE",
"874 618 OFFCURVE",
"909 623 OFFCURVE",
"966 635 CURVE",
"968 644 LINE",
"798 644 LINE",
"423 59 LINE",
"433 57 LINE",
"305 644 LINE",
"134 644 LINE",
"131 633 LINE",
"257 615 LINE",
"120 29 LINE",
"84 27 OFFCURVE",
"44 21 OFFCURVE",
"-4 10 CURVE",
"-6 0 LINE"
);
}
);
width = 941;
}
);
leftKerningGroup = M;
rightKerningGroup = M;
unicode = 004D;
},
{
color = 4;
glyphname = N;
lastChange = "2020-02-24 20:55:26 +0000";
layers = (
{
anchors = (
{
name = bottom;
position = "{359, 0}";
},
{
name = top;
position = "{496, 688}";
}
);
background = {
paths = (
{
closed = 1;
nodes = (
"692 0 LINE",
"695 19 LINE",
"438 688 LINE",
"181 688 LINE",
"446 0 LINE"
);
},
{
closed = 1;
nodes = (
"293 0 LINE",
"310 84 LINE",
"209 107 LINE",
"325 688 LINE",
"93 688 LINE",
"77 605 LINE",
"161 572 LINE",
"56 112 LINE",
"25 102 OFFCURVE",
"-1 90 OFFCURVE",
"-26 76 CURVE",
"-41 0 LINE"
);
},
{
closed = 1;
nodes = (
"692 0 LINE",
"808 576 LINE",
"841 586 OFFCURVE",
"865 598 OFFCURVE",
"893 612 CURVE",
"908 688 LINE",
"584 688 LINE",
"568 605 LINE",
"655 581 LINE",
"555 0 LINE"
);
}
);
};
layerId = "A6FDB8B9-512B-4F31-B986-CD5B604F5662";
paths = (
{
closed = 1;
nodes = (
"568 605 LINE",
"655 581 LINE",
"585 169 LINE",
"636 174 LINE",
"438 688 LINE",
"93 688 LINE",
"77 605 LINE",
"161 572 LINE",
"56 112 LINE",
"25 102 OFFCURVE",
"-1 90 OFFCURVE",
"-26 76 CURVE",
"-41 0 LINE",
"293 0 LINE",
"310 84 LINE",
"209 107 LINE",
"295 538 LINE",
"241 533 LINE",
"446 0 LINE",
"692 0 LINE",
"808 576 LINE",
"841 586 OFFCURVE",
"865 598 OFFCURVE",
"893 612 CURVE",
"908 688 LINE",
"584 688 LINE"
);
}
);
width = 820;
},
{
anchors = (
{
name = bottom;
position = "{346, 0}";
},
{
name = top;
position = "{475, 644}";
}
);
background = {
paths = (
{
closed = 1;
nodes = (
"555 633 LINE",
"672 615 LINE",
"567 45 LINE",
"282 644 LINE",
"130 644 LINE",
"127 633 LINE",
"249 615 LINE",
"124 29 LINE",
"87 27 OFFCURVE",
"46 21 OFFCURVE",
"3 10 CURVE",
"1 0 LINE",
"282 0 LINE",
"284 12 LINE",
"158 30 LINE",
"270 589 LINE",
"551 0 LINE",
"583 0 LINE",
"707 616 LINE",
"746 618 OFFCURVE",
"784 624 OFFCURVE",
"827 635 CURVE",
"829 644 LINE",
"558 644 LINE"
);
}
);
};
layerId = "0E5388DE-A0E6-4EB4-BC9B-CE5870C9023F";
paths = (
{
closed = 1;
nodes = (
"555 633 LINE",
"672 615 LINE",
"565 32 LINE",
"573 33 LINE",
"282 644 LINE",
"130 644 LINE",
"127 633 LINE",
"249 615 LINE",
"124 29 LINE",
"87 27 OFFCURVE",
"46 21 OFFCURVE",
"3 10 CURVE",
"1 0 LINE",
"282 0 LINE",
"284 12 LINE",
"158 30 LINE",
"273 602 LINE",
"264 601 LINE",
"551 0 LINE",
"583 0 LINE",
"707 616 LINE",
"746 618 OFFCURVE",
"784 624 OFFCURVE",
"827 635 CURVE",
"829 644 LINE",
"558 644 LINE"
);
}
);
width = 782;
}
);
leftKerningGroup = H;
rightKerningGroup = H;
unicode = 004E;
},
{
color = 4;
glyphname = Ntilde;
lastChange = "2020-02-24 20:56:35 +0000";
layers = (
{
anchors = (
{
name = top;
position = "{516, 853}";
}
);
components = (
{
name = N;
}
);
layerId = "0E5388DE-A0E6-4EB4-BC9B-CE5870C9023F";
paths = (
{
closed = 1;
nodes = (
"441 807 LINE",
"547 778 LINE SMOOTH",
"573 771 OFFCURVE",
"583 778 OFFCURVE",
"641 846 CURVE",
"634 853 LINE",
"573 801 LINE",
"466 830 LINE SMOOTH",
"443 836 OFFCURVE",
"436 838 OFFCURVE",
"372 763 CURVE",
"379 755 LINE"
);
}
);
width = 782;
},
{
anchors = (
{
name = top;
position = "{555, 980}";
}
);
components = (
{
name = N;
}
);
layerId = "A6FDB8B9-512B-4F31-B986-CD5B604F5662";
paths = (
{
closed = 1;
nodes = (
"439 816 LINE",
"565 782 LINE SMOOTH",
"612 769 OFFCURVE",
"642 766 OFFCURVE",
"740 940 CURVE",
"698 980 LINE",
"626 926 LINE",
"500 960 LINE SMOOTH",
"447 974 OFFCURVE",
"421 968 OFFCURVE",
"326 802 CURVE",
"367 762 LINE"
);
}
);
width = 820;
}
);
leftKerningGroup = H;
rightKerningGroup = H;
unicode = 00D1;
},
{
color = 4;
glyphname = O;
lastChange = "2020-02-24 20:55:26 +0000";
layers = (
{
anchors = (
{
name = bottom;
position = "{327, 0}";
},
{
name = center;
position = "{382, 344}";
},
{
name = ogonek;
position = "{565, 13}";
},
{
name = top;
position = "{436, 688}";
},
{
name = topleft;
position = "{77, 688}";
},
{
name = topright;
position = "{698, 688}";
}
);
layerId = "A6FDB8B9-512B-4F31-B986-CD5B604F5662";
paths = (
{
closed = 1;
nodes = (
"577 -15 OFFCURVE",
"737 153 OFFCURVE",
"737 415 CURVE SMOOTH",
"737 596 OFFCURVE",
"624 703 OFFCURVE",
"435 703 CURVE SMOOTH",
"194 703 OFFCURVE",
"26 527 OFFCURVE",
"26 274 CURVE SMOOTH",
"26 93 OFFCURVE",
"139 -15 OFFCURVE",
"328 -15 CURVE SMOOTH"
);
},
{
closed = 1;
nodes = (
"283 122 OFFCURVE",
"259 156 OFFCURVE",
"259 231 CURVE SMOOTH",
"259 351 OFFCURVE",
"303 487 OFFCURVE",
"371 581 CURVE",
"290 528 LINE",
"342 550 OFFCURVE",
"371 558 OFFCURVE",
"407 558 CURVE SMOOTH",
"476 558 OFFCURVE",
"504 526 OFFCURVE",
"504 450 CURVE SMOOTH",
"504 402 OFFCURVE",
"483 291 OFFCURVE",
"464 236 CURVE SMOOTH",
"435 158 OFFCURVE",
"395 122 OFFCURVE",
"338 122 CURVE SMOOTH"
);
}
);
width = 730;
},
{
anchors = (
{
name = bottom;
position = "{327, 0}";
},
{
name = center;
position = "{378, 322}";
},
{
name = ogonek;
position = "{498, 30}";
},
{
name = top;
position = "{427, 644}";
},
{
name = topleft;
position = "{104, 644}";
},
{
name = topright;
position = "{680, 644}";
}
);
layerId = "0E5388DE-A0E6-4EB4-BC9B-CE5870C9023F";
paths = (
{
closed = 1;
nodes = (
"510 -7 OFFCURVE",
"666 176 OFFCURVE",
"666 392 CURVE SMOOTH",
"666 547 OFFCURVE",
"572 651 OFFCURVE",
"433 651 CURVE SMOOTH",
"247 651 OFFCURVE",
"89 468 OFFCURVE",
"89 253 CURVE SMOOTH",
"89 99 OFFCURVE",
"185 -7 OFFCURVE",
"324 -7 CURVE SMOOTH"
);
},
{
closed = 1;
nodes = (
"205 23 OFFCURVE",
"124 116 OFFCURVE",
"124 255 CURVE SMOOTH",
"124 363 OFFCURVE",
"172 479 OFFCURVE",
"255 569 CURVE",
"241 557 LINE",
"297 596 OFFCURVE",
"364 618 OFFCURVE",
"427 618 CURVE SMOOTH",
"551 618 OFFCURVE",
"631 530 OFFCURVE",
"631 392 CURVE SMOOTH",
"631 340 OFFCURVE",
"618 277 OFFCURVE",
"597 226 CURVE SMOOTH",
"544 103 OFFCURVE",
"438 23 OFFCURVE",
"327 23 CURVE SMOOTH"
);
}
);
width = 722;
}
);
leftKerningGroup = O;
rightKerningGroup = O;
unicode = 004F;
},
{
color = 4;
glyphname = Oacute;
lastChange = "2020-02-24 20:56:35 +0000";
layers = (
{
anchors = (
{
name = top;
position = "{472, 869}";
}
);
components = (
{
name = O;
}
);
layerId = "0E5388DE-A0E6-4EB4-BC9B-CE5870C9023F";
paths = (
{
closed = 1;
nodes = (
"453 768 OFFCURVE",
"508 806 OFFCURVE",
"563 847 CURVE",
"547 869 LINE",
"541 869 LINE",
"385 740 LINE",
"391 731 LINE"
);
}
);
width = 722;
},
{
anchors = (
{
name = top;
position = "{497, 995}";
}
);
components = (
{
name = O;
}
);
layerId = "A6FDB8B9-512B-4F31-B986-CD5B604F5662";
paths = (
{
closed = 1;
nodes = (
"457 763 OFFCURVE",
"549 797 OFFCURVE",
"640 839 CURVE",
"566 986 LINE",
"539 986 LINE",
"320 808 LINE",
"362 735 LINE"
);
}
);
width = 730;
}
);
leftKerningGroup = O;
rightKerningGroup = O;
unicode = 00D3;
},
{
color = 4;
glyphname = Odieresis;
lastChange = "2020-02-24 20:56:35 +0000";
layers = (
{
anchors = (
{
name = top;
position = "{465, 834}";
}
);
components = (
{
name = O;
}
);
layerId = "0E5388DE-A0E6-4EB4-BC9B-CE5870C9023F";
paths = (
{
closed = 1;
nodes = (
"389 831 OFFCURVE",
"376 823 OFFCURVE",
"364 811 CURVE",
"367 799 OFFCURVE",
"375 786 OFFCURVE",
"386 773 CURVE",
"400 775 OFFCURVE",
"415 783 OFFCURVE",
"425 794 CURVE",
"423 808 OFFCURVE",
"416 822 OFFCURVE",
"404 834 CURVE"
);
},
{
closed = 1;
nodes = (
"518 831 OFFCURVE",
"504 823 OFFCURVE",
"493 811 CURVE",
"497 796 OFFCURVE",
"505 783 OFFCURVE",
"516 773 CURVE",
"529 775 OFFCURVE",
"542 782 OFFCURVE",
"554 794 CURVE",
"552 808 OFFCURVE",
"545 821 OFFCURVE",
"534 834 CURVE"
);
}
);
width = 722;
},
{
anchors = (
{
name = top;
position = "{494, 980}";
}
);
components = (
{
name = O;
}
);
layerId = "A6FDB8B9-512B-4F31-B986-CD5B604F5662";
paths = (
{
closed = 1;
nodes = (
"330 971 OFFCURVE",
"278 939 OFFCURVE",
"241 901 CURVE",
"250 844 OFFCURVE",
"283 789 OFFCURVE",
"324 756 CURVE",
"377 763 OFFCURVE",
"432 797 OFFCURVE",
"466 838 CURVE",
"458 892 OFFCURVE",
"427 943 OFFCURVE",
"385 980 CURVE"
);
},
{
closed = 1;
nodes = (
"566 971 OFFCURVE",
"514 939 OFFCURVE",
"477 901 CURVE",
"486 844 OFFCURVE",
"518 789 OFFCURVE",
"559 756 CURVE",
"613 763 OFFCURVE",
"668 797 OFFCURVE",
"702 838 CURVE",
"694 892 OFFCURVE",
"661 943 OFFCURVE",
"620 980 CURVE"
);
}
);
width = 730;
}
);
leftKerningGroup = O;
rightKerningGroup = O;
unicode = 00D6;
},
{
color = 4;
glyphname = Ograve;
lastChange = "2020-02-24 20:56:35 +0000";
layers = (
{
anchors = (
{
name = top;
position = "{472, 869}";
}
);
components = (
{
name = O;
}
);
layerId = "0E5388DE-A0E6-4EB4-BC9B-CE5870C9023F";
paths = (
{
closed = 1;
nodes = (
"529 740 LINE",
"373 869 LINE",
"367 869 LINE",
"351 847 LINE",
"406 806 OFFCURVE",
"461 768 OFFCURVE",
"523 731 CURVE"
);
}
);
width = 722;
},
{
anchors = (
{
name = top;
position = "{497, 995}";
}
);
components = (
{
name = O;
}
);
layerId = "A6FDB8B9-512B-4F31-B986-CD5B604F5662";
paths = (
{
closed = 1;
nodes = (
"618 808 LINE",
"399 986 LINE",
"372 986 LINE",
"298 839 LINE",
"389 797 OFFCURVE",
"481 763 OFFCURVE",
"576 735 CURVE"
);
}
);
width = 730;
}
);
leftKerningGroup = O;
rightKerningGroup = O;
unicode = 00D2;
},
{
color = 4;
glyphname = Oslash;
lastChange = "2020-02-24 20:55:26 +0000";
layers = (
{
anchors = (
{
name = bottom;
position = "{345, 0}";
},
{
name = center;
position = "{378, 322}";
},
{
name = ogonek;
position = "{498, 30}";
},
{
name = top;
position = "{345, 644}";
},
{
name = topleft;
position = "{104, 644}";
},
{
name = topright;
position = "{680, 644}";
}
);
layerId = "0E5388DE-A0E6-4EB4-BC9B-CE5870C9023F";
paths = (
{
closed = 1;
nodes = (
"192 55 LINE",
"120 -67 LINE",
"145 -81 LINE",
"216 40 LINE"
);
},
{
closed = 1;
nodes = (
"510 -7 OFFCURVE",
"666 176 OFFCURVE",
"666 392 CURVE SMOOTH",
"666 547 OFFCURVE",
"572 651 OFFCURVE",
"433 651 CURVE SMOOTH",
"247 651 OFFCURVE",
"89 468 OFFCURVE",
"89 253 CURVE SMOOTH",
"89 99 OFFCURVE",
"185 -7 OFFCURVE",
"324 -7 CURVE SMOOTH"
);
},
{
closed = 1;
nodes = (
"205 23 OFFCURVE",
"124 116 OFFCURVE",
"124 255 CURVE SMOOTH",
"124 363 OFFCURVE",
"172 479 OFFCURVE",
"255 569 CURVE",
"241 557 LINE",
"297 596 OFFCURVE",
"364 618 OFFCURVE",
"427 618 CURVE SMOOTH",
"551 618 OFFCURVE",
"631 530 OFFCURVE",
"631 392 CURVE SMOOTH",
"631 340 OFFCURVE",
"618 277 OFFCURVE",
"597 226 CURVE SMOOTH",
"544 103 OFFCURVE",
"438 23 OFFCURVE",
"327 23 CURVE SMOOTH"
);
},
{
closed = 1;
nodes = (
"548 603 LINE",
"613 713 LINE",
"588 727 LINE",
"524 619 LINE"
);
},
{
closed = 1;
nodes = (
"216 40 LINE",
"548 603 LINE",
"524 619 LINE",
"192 55 LINE"
);
}
);
width = 722;
},
{
anchors = (
{
name = bottom;
position = "{379, 0}";
},
{
name = center;
position = "{382, 344}";
},
{
name = ogonek;
position = "{565, 13}";
},
{
name = top;
position = "{379, 688}";
},
{
name = topleft;
position = "{77, 688}";
},
{
name = topright;
position = "{698, 688}";
}
);
layerId = "A6FDB8B9-512B-4F31-B986-CD5B604F5662";
paths = (
{
closed = 1;
nodes = (
"198 116 LINE",
"102 -62 LINE",
"195 -109 LINE",
"288 64 LINE"
);
},
{
closed = 1;
nodes = (
"577 -15 OFFCURVE",
"737 153 OFFCURVE",
"737 415 CURVE SMOOTH",
"737 596 OFFCURVE",
"624 703 OFFCURVE",
"435 703 CURVE SMOOTH",
"194 703 OFFCURVE",
"26 527 OFFCURVE",
"26 274 CURVE SMOOTH",
"26 93 OFFCURVE",
"139 -15 OFFCURVE",
"328 -15 CURVE SMOOTH"
);
},
{
closed = 1;
nodes = (
"283 122 OFFCURVE",
"259 156 OFFCURVE",
"259 231 CURVE SMOOTH",
"259 351 OFFCURVE",
"303 487 OFFCURVE",
"371 581 CURVE",
"290 528 LINE",
"342 550 OFFCURVE",
"371 558 OFFCURVE",
"407 558 CURVE SMOOTH",
"476 558 OFFCURVE",
"504 526 OFFCURVE",
"504 450 CURVE SMOOTH",
"504 402 OFFCURVE",
"483 291 OFFCURVE",
"464 236 CURVE SMOOTH",
"435 158 OFFCURVE",
"395 122 OFFCURVE",
"338 122 CURVE SMOOTH"
);
},
{
closed = 1;
nodes = (
"566 585 LINE",
"646 734 LINE",
"553 780 LINE",
"473 631 LINE"
);
},
{
closed = 1;
nodes = (
"288 64 LINE",
"566 585 LINE",
"473 631 LINE",
"198 116 LINE"
);
}
);
width = 730;
}
);
leftKerningGroup = O;
rightKerningGroup = O;
unicode = 00D8;
},
{
color = 4;
glyphname = Otilde;
lastChange = "2020-02-24 20:56:35 +0000";
layers = (
{
anchors = (
{
name = top;
position = "{468, 853}";
}
);
components = (
{
name = O;
}
);
layerId = "0E5388DE-A0E6-4EB4-BC9B-CE5870C9023F";
paths = (
{
closed = 1;
nodes = (
"393 807 LINE",
"499 778 LINE SMOOTH",
"525 771 OFFCURVE",
"535 778 OFFCURVE",
"593 846 CURVE",
"586 853 LINE",
"525 801 LINE",
"418 830 LINE SMOOTH",
"395 836 OFFCURVE",
"388 838 OFFCURVE",
"324 763 CURVE",
"331 755 LINE"
);
}
);
width = 722;
},
{
anchors = (
{
name = top;
position = "{495, 980}";
}
);
components = (
{
name = O;
}
);
layerId = "A6FDB8B9-512B-4F31-B986-CD5B604F5662";
paths = (
{
closed = 1;
nodes = (
"379 816 LINE",
"505 782 LINE SMOOTH",
"552 769 OFFCURVE",
"582 766 OFFCURVE",
"680 940 CURVE",
"638 980 LINE",
"566 926 LINE",
"440 960 LINE SMOOTH",
"387 974 OFFCURVE",
"361 968 OFFCURVE",
"266 802 CURVE",
"307 762 LINE"
);
}
);
width = 730;
}
);
leftKerningGroup = O;
rightKerningGroup = O;
unicode = 00D5;
},
{
color = 4;
glyphname = OE;
lastChange = "2020-02-24 20:55:26 +0000";
layers = (
{
anchors = (
{
name = bottom;
position = "{458, 0}";
},
{
name = top;
position = "{586, 644}";
}
);
background = {
anchors = (
{
name = bottom;
position = "{458, 0}";
},
{
name = top;
position = "{586, 644}";
}
);
paths = (
{
closed = 1;
nodes = (
"832 0 LINE",
"838 30 LINE",
"370 30 LINE",
"301 0 LINE"
);
},
{
closed = 1;
nodes = (
"846 0 LINE",
"887 205 LINE",
"879 205 LINE",
"803 0 LINE"
);
},
{
closed = 1;
nodes = (
"940 614 LINE",
"946 644 LINE",
"439 644 LINE",
"473 614 LINE"
);
},
{
closed = 1;
nodes = (
"928 460 LINE",
"964 644 LINE",
"921 644 LINE",
"920 460 LINE"
);
},
{
closed = 1;
nodes = (
"485 0 OFFCURVE",
"632 182 OFFCURVE",
"632 413 CURVE SMOOTH",
"632 553 OFFCURVE",
"554 644 OFFCURVE",
"435 644 CURVE SMOOTH",
"248 644 OFFCURVE",
"88 464 OFFCURVE",
"88 253 CURVE SMOOTH",
"88 103 OFFCURVE",
"173 0 OFFCURVE",
"298 0 CURVE SMOOTH"
);
},
{
closed = 1;
nodes = (
"196 29 OFFCURVE",
"125 122 OFFCURVE",
"125 259 CURVE SMOOTH",
"125 456 OFFCURVE",
"258 612 OFFCURVE",
"425 612 CURVE SMOOTH",
"480 612 OFFCURVE",
"529 593 OFFCURVE",
"564 558 CURVE",
"666 325 OFFCURVE",
"519 29 OFFCURVE",
"301 29 CURVE SMOOTH"
);
}
);
};
layerId = "0E5388DE-A0E6-4EB4-BC9B-CE5870C9023F";
paths = (
{
closed = 1;
nodes = (
"846 0 LINE",
"887 205 LINE",
"879 205 LINE",
"814 30 LINE",
"412 30 LINE",
"418 27 LINE",
"544 85 OFFCURVE",
"632 235 OFFCURVE",
"632 413 CURVE SMOOTH",
"632 509 OFFCURVE",
"595 582 OFFCURVE",
"534 618 CURVE",
"528 614 LINE",
"921 614 LINE",
"920 460 LINE",
"928 460 LINE",
"964 644 LINE",
"435 644 LINE SMOOTH",
"248 644 OFFCURVE",
"88 464 OFFCURVE",
"88 253 CURVE SMOOTH",
"88 103 OFFCURVE",
"173 0 OFFCURVE",
"298 0 CURVE SMOOTH"
);
},
{
closed = 1;
nodes = (
"196 29 OFFCURVE",
"125 122 OFFCURVE",
"125 259 CURVE SMOOTH",
"125 456 OFFCURVE",
"258 612 OFFCURVE",
"425 612 CURVE SMOOTH",
"480 612 OFFCURVE",
"529 593 OFFCURVE",
"564 558 CURVE",
"666 325 OFFCURVE",
"519 29 OFFCURVE",
"301 29 CURVE SMOOTH"
);
},
{
closed = 1;
nodes = (
"799 317 LINE",
"805 347 LINE",
"611 347 LINE",
"604 317 LINE"
);
},
{
closed = 1;
nodes = (
"788 228 LINE",
"830 437 LINE",
"822 437 LINE",
"769 332 LINE",
"780 228 LINE"
);
}
);
width = 1001;
},
{
anchors = (
{
name = bottom;
position = "{509, 0}";
},
{
name = top;
position = "{646, 688}";
}
);
background = {
paths = (
{
closed = 1;
nodes = (
"974 0 LINE",
"1002 139 LINE",
"481 139 LINE",
"295 0 LINE"
);
},
{
closed = 1;
nodes = (
"992 0 LINE",
"1043 256 LINE",
"951 256 LINE",
"790 0 LINE"
);
},
{
closed = 1;
nodes = (
"884 281 LINE",
"912 420 LINE",
"577 420 LINE",
"549 281 LINE"
);
},
{
closed = 1;
nodes = (
"877 207 LINE",
"934 489 LINE",
"850 489 LINE",
"754 348 LINE",
"793 207 LINE"
);
},
{
closed = 1;
nodes = (
"1068 550 LINE",
"1095 688 LINE",
"447 688 LINE",
"575 550 LINE"
);
},
{
closed = 1;
nodes = (
"1073 450 LINE",
"1120 688 LINE",
"918 688 LINE",
"980 450 LINE"
);
},
{
closed = 1;
nodes = (
"537 0 OFFCURVE",
"711 190 OFFCURVE",
"711 454 CURVE SMOOTH",
"711 607 OFFCURVE",
"621 688 OFFCURVE",
"449 688 CURVE SMOOTH",
"194 688 OFFCURVE",
"22 521 OFFCURVE",
"22 272 CURVE SMOOTH",
"22 107 OFFCURVE",
"129 0 OFFCURVE",
"294 0 CURVE SMOOTH"
);
},
{
closed = 1;
nodes = (
"282 139 OFFCURVE",
"260 172 OFFCURVE",
"260 247 CURVE SMOOTH",
"260 431 OFFCURVE",
"325 550 OFFCURVE",
"426 550 CURVE SMOOTH",
"448 550 OFFCURVE",
"469 545 OFFCURVE",
"490 535 CURVE",
"454 241 OFFCURVE",
"413 139 OFFCURVE",
"331 139 CURVE SMOOTH"
);
}
);
};
layerId = "A6FDB8B9-512B-4F31-B986-CD5B604F5662";
paths = (
{
closed = 1;
nodes = (
"992 0 LINE",
"1043 256 LINE",
"951 256 LINE",
"877 139 LINE",
"505 139 LINE",
"561 96 LINE",
"654 178 OFFCURVE",
"711 304 OFFCURVE",
"711 454 CURVE SMOOTH",
"711 514 OFFCURVE",
"697 563 OFFCURVE",
"669 601 CURVE",
"598 550 LINE",
"954 550 LINE",
"980 450 LINE",
"1073 450 LINE",
"1120 688 LINE",
"447 688 LINE SMOOTH",
"193 687 OFFCURVE",
"22 520 OFFCURVE",
"22 272 CURVE SMOOTH",
"22 107 OFFCURVE",
"129 0 OFFCURVE",
"294 0 CURVE SMOOTH"
);
},
{
closed = 1;
nodes = (
"282 139 OFFCURVE",
"260 172 OFFCURVE",
"260 247 CURVE SMOOTH",
"260 431 OFFCURVE",
"325 550 OFFCURVE",
"426 550 CURVE SMOOTH",
"448 550 OFFCURVE",
"469 545 OFFCURVE",
"490 535 CURVE",
"454 241 OFFCURVE",
"413 139 OFFCURVE",
"331 139 CURVE SMOOTH"
);
},
{
closed = 1;
nodes = (
"884 281 LINE",
"912 420 LINE",
"587 420 LINE",
"559 281 LINE"
);
},
{
closed = 1;
nodes = (
"877 207 LINE",
"934 489 LINE",
"850 489 LINE",
"754 348 LINE",
"793 207 LINE"
);
}
);
width = 1089;
}
);
leftKerningGroup = O;
rightKerningGroup = E;
unicode = 0152;
},
{
color = 4;
glyphname = P;
lastChange = "2020-02-24 20:55:26 +0000";
layers = (
{
anchors = (
{
name = bottom;
position = "{302, 0}";
},
{
name = top;
position = "{439, 688}";
}
);
background = {
paths = (
{
closed = 1;
nodes = (
"391 0 LINE",
"408 84 LINE",
"291 107 LINE",
"407 688 LINE",
"92 688 LINE",
"76 605 LINE",
"163 572 LINE",
"58 112 LINE",
"24 101 OFFCURVE",
"-3 90 OFFCURVE",
"-30 76 CURVE",
"-45 0 LINE"
);
},
{
closed = 1;
nodes = (
"404 229 LINE SMOOTH",
"601 229 OFFCURVE",
"748 344 OFFCURVE",
"748 498 CURVE SMOOTH",
"748 613 OFFCURVE",
"663 688 OFFCURVE",
"533 688 CURVE SMOOTH",
"289 688 LINE",
"263 556 LINE",
"441 556 LINE SMOOTH",
"486 556 OFFCURVE",
"508 535 OFFCURVE",
"508 494 CURVE SMOOTH",
"508 452 OFFCURVE",
"486 395 OFFCURVE",
"457 361 CURVE",
"224 361 LINE",
"198 229 LINE"
);
}
);
};
layerId = "A6FDB8B9-512B-4F31-B986-CD5B604F5662";
paths = (
{
closed = 1;
nodes = (
"391 0 LINE",
"408 84 LINE",
"291 107 LINE",
"381 556 LINE",
"441 556 LINE SMOOTH",
"486 556 OFFCURVE",
"508 535 OFFCURVE",
"508 494 CURVE SMOOTH",
"508 452 OFFCURVE",
"486 395 OFFCURVE",
"457 361 CURVE",
"224 361 LINE",
"198 229 LINE",
"404 229 LINE SMOOTH",
"601 229 OFFCURVE",
"748 344 OFFCURVE",
"748 498 CURVE SMOOTH",
"748 613 OFFCURVE",
"663 688 OFFCURVE",
"533 688 CURVE SMOOTH",
"92 688 LINE",
"76 605 LINE",
"163 572 LINE",
"58 112 LINE",
"24 101 OFFCURVE",
"-3 90 OFFCURVE",
"-30 76 CURVE",
"-45 0 LINE"
);
}
);
width = 694;
},
{
anchors = (
{
name = bottom;
position = "{139, 0}";
},
{
name = top;
position = "{389, 644}";
}
);
layerId = "0E5388DE-A0E6-4EB4-BC9B-CE5870C9023F";
paths = (
{
closed = 1;
nodes = (
"301 0 LINE",
"303 12 LINE",
"162 30 LINE",
"279 614 LINE",
"434 614 LINE SMOOTH",
"522 614 OFFCURVE",
"571 574 OFFCURVE",
"571 501 CURVE SMOOTH",
"571 411 OFFCURVE",
"528 348 OFFCURVE",
"430 298 CURVE",
"199 298 LINE",
"193 268 LINE",
"353 268 LINE SMOOTH",
"496 268 OFFCURVE",
"605 370 OFFCURVE",
"605 502 CURVE SMOOTH",
"605 590 OFFCURVE",
"543 644 OFFCURVE",
"443 644 CURVE SMOOTH",
"130 644 LINE",
"127 633 LINE",
"249 615 LINE",
"124 29 LINE",
"66 27 OFFCURVE",
"28 21 OFFCURVE",
"3 10 CURVE",
"1 0 LINE"
);
}
);
width = 614;
}
);
leftKerningGroup = H;
rightKerningGroup = P;
unicode = 0050;
},
{
color = 4;
glyphname = Thorn;
lastChange = "2020-02-24 20:55:26 +0000";
layers = (
{
anchors = (
{
name = bottom;
position = "{139, 0}";
},
{
name = top;
position = "{268, 644}";
}
);
layerId = "0E5388DE-A0E6-4EB4-BC9B-CE5870C9023F";
paths = (
{
closed = 1;
nodes = (
"273 0 LINE",
"275 12 LINE",
"162 30 LINE",
"279 616 LINE",
"310 618 OFFCURVE",
"343 623 OFFCURVE",
"400 635 CURVE",
"402 644 LINE",
"130 644 LINE",
"127 633 LINE",
"249 615 LINE",
"124 29 LINE",
"89 27 OFFCURVE",
"51 21 OFFCURVE",
"3 10 CURVE",
"1 0 LINE"
);
},
{
closed = 1;
nodes = (
"319 148 LINE SMOOTH",
"465 148 OFFCURVE",
"581 251 OFFCURVE",
"581 381 CURVE SMOOTH",
"581 473 OFFCURVE",
"523 524 OFFCURVE",
"419 524 CURVE SMOOTH",
"244 524 LINE",
"238 494 LINE",
"414 494 LINE SMOOTH",
"503 494 OFFCURVE",
"547 456 OFFCURVE",
"547 379 CURVE SMOOTH",
"547 296 OFFCURVE",
"497 227 OFFCURVE",
"404 178 CURVE",
"175 178 LINE",
"169 148 LINE"
);
}
);
width = 613;
},
{
anchors = (
{
name = bottom;
position = "{144, 0}";
},
{
name = top;
position = "{281, 688}";
}
);
background = {
paths = (
{
closed = 1;
nodes = (
"350 0 LINE",
"366 81 LINE",
"291 104 LINE",
"386 580 LINE",
"422 590 OFFCURVE",
"449 605 OFFCURVE",
"473 616 CURVE",
"487 688 LINE",
"92 688 LINE",
"76 605 LINE",
"163 572 LINE",
"58 112 LINE",
"29 102 OFFCURVE",
"0 90 OFFCURVE",
"-30 76 CURVE",
"-45 0 LINE"
);
},
{
closed = 1;
nodes = (
"388 133 LINE SMOOTH",
"581 133 OFFCURVE",
"727 240 OFFCURVE",
"727 382 CURVE SMOOTH",
"727 488 OFFCURVE",
"643 555 OFFCURVE",
"510 555 CURVE SMOOTH",
"266 555 LINE",
"239 420 LINE",
"428 420 LINE SMOOTH",
"475 420 OFFCURVE",
"497 403 OFFCURVE",
"497 367 CURVE SMOOTH",
"497 334 OFFCURVE",
"479 294 OFFCURVE",
"453 268 CURVE",
"209 268 LINE",
"182 133 LINE"
);
}
);
};
layerId = "A6FDB8B9-512B-4F31-B986-CD5B604F5662";
paths = (
{
closed = 1;
nodes = (
"350 0 LINE",
"366 81 LINE",
"291 104 LINE",
"386 580 LINE",
"422 590 OFFCURVE",
"449 605 OFFCURVE",
"473 616 CURVE",
"487 688 LINE",
"92 688 LINE",
"76 605 LINE",
"163 572 LINE",
"58 112 LINE",
"29 102 OFFCURVE",
"0 90 OFFCURVE",
"-30 76 CURVE",
"-45 0 LINE"
);
},
{
closed = 1;
nodes = (
"395 139 LINE SMOOTH",
"588 139 OFFCURVE",
"727 240 OFFCURVE",
"727 382 CURVE SMOOTH",
"727 488 OFFCURVE",
"643 549 OFFCURVE",
"510 549 CURVE SMOOTH",
"266 549 LINE",
"239 420 LINE",
"428 420 LINE SMOOTH",
"475 420 OFFCURVE",
"497 403 OFFCURVE",
"497 367 CURVE SMOOTH",
"497 334 OFFCURVE",
"479 294 OFFCURVE",
"453 268 CURVE",
"209 268 LINE",
"183 139 LINE"
);
}
);
width = 691;
}
);
leftKerningGroup = H;
rightKerningGroup = P;
unicode = 00DE;
},
{
color = 4;
glyphname = Q;
lastChange = "2020-02-24 20:55:26 +0000";
layers = (
{
anchors = (
{
name = bottom;
position = "{335, 0}";
},
{
name = top;
position = "{440, 688}";
}
);
layerId = "A6FDB8B9-512B-4F31-B986-CD5B604F5662";
paths = (
{
closed = 1;
nodes = (
"676 -136 OFFCURVE",
"726 -92 OFFCURVE",
"782 -31 CURVE",
"619 18 LINE SMOOTH",
"525 46 OFFCURVE",
"436 66 OFFCURVE",
"348 76 CURVE",
"228 34 LINE",
"606 -187 LINE"
);
},
{
closed = 1;
nodes = (
"577 -15 OFFCURVE",
"737 153 OFFCURVE",
"737 415 CURVE SMOOTH",
"737 596 OFFCURVE",
"624 703 OFFCURVE",
"435 703 CURVE SMOOTH",
"194 703 OFFCURVE",
"26 527 OFFCURVE",
"26 274 CURVE SMOOTH",
"26 93 OFFCURVE",
"139 -15 OFFCURVE",
"328 -15 CURVE SMOOTH"
);
},
{
closed = 1;
nodes = (
"283 122 OFFCURVE",
"259 156 OFFCURVE",
"259 231 CURVE SMOOTH",
"259 351 OFFCURVE",
"303 487 OFFCURVE",
"371 581 CURVE",
"290 528 LINE",
"342 550 OFFCURVE",
"371 558 OFFCURVE",
"407 558 CURVE SMOOTH",
"476 558 OFFCURVE",
"504 526 OFFCURVE",
"504 450 CURVE SMOOTH",
"504 402 OFFCURVE",
"483 291 OFFCURVE",
"464 236 CURVE SMOOTH",
"435 158 OFFCURVE",
"395 122 OFFCURVE",
"338 122 CURVE SMOOTH"
);
}
);
width = 740;
},
{
anchors = (
{
name = bottom;
position = "{331, 0}";
},
{
name = top;
position = "{433, 644}";
}
);
layerId = "0E5388DE-A0E6-4EB4-BC9B-CE5870C9023F";
paths = (
{
closed = 1;
nodes = (
"642 -104 OFFCURVE",
"654 -95 OFFCURVE",
"668 -83 CURVE",
"512 -28 LINE SMOOTH",
"452 -7 OFFCURVE",
"410 4 OFFCURVE",
"351 17 CURVE",
"341 1 LINE",
"632 -109 LINE"
);
},
{
closed = 1;
nodes = (
"510 -7 OFFCURVE",
"666 176 OFFCURVE",
"666 392 CURVE SMOOTH",
"666 547 OFFCURVE",
"572 651 OFFCURVE",
"433 651 CURVE SMOOTH",
"247 651 OFFCURVE",
"89 468 OFFCURVE",
"89 253 CURVE SMOOTH",
"89 99 OFFCURVE",
"185 -7 OFFCURVE",
"324 -7 CURVE SMOOTH"
);
},
{
closed = 1;
nodes = (
"205 23 OFFCURVE",
"124 116 OFFCURVE",
"124 255 CURVE SMOOTH",
"124 363 OFFCURVE",
"172 479 OFFCURVE",
"255 569 CURVE",
"241 557 LINE",
"297 596 OFFCURVE",
"364 618 OFFCURVE",
"427 618 CURVE SMOOTH",
"551 618 OFFCURVE",
"631 530 OFFCURVE",
"631 392 CURVE SMOOTH",
"631 340 OFFCURVE",
"618 277 OFFCURVE",
"597 226 CURVE SMOOTH",
"544 103 OFFCURVE",
"438 23 OFFCURVE",
"327 23 CURVE SMOOTH"
);
}
);
width = 726;
}
);
leftKerningGroup = O;
rightKerningGroup = O;
unicode = 0051;
},
{
color = 4;
glyphname = R;
lastChange = "2020-02-24 20:55:26 +0000";
layers = (
{
anchors = (
{
name = bottom;
position = "{337, 0}";
},
{
name = top;
position = "{474, 688}";
}
);
background = {
paths = (
{
closed = 1;
nodes = (
"353 0 LINE",
"370 84 LINE",
"292 107 LINE",
"408 688 LINE",
"92 688 LINE",
"76 605 LINE",
"164 572 LINE",
"59 112 LINE",
"17 98 OFFCURVE",
"-5 88 OFFCURVE",
"-30 76 CURVE",
"-45 0 LINE"
);
},
{
closed = 1;
nodes = (
"673 285 OFFCURVE",
"620 327 OFFCURVE",
"468 333 CURVE",
"504 310 LINE",
"651 325 OFFCURVE",
"765 420 OFFCURVE",
"765 529 CURVE SMOOTH",
"765 627 OFFCURVE",
"674 688 OFFCURVE",
"528 688 CURVE SMOOTH",
"294 688 LINE",
"268 556 LINE",
"451 556 LINE SMOOTH",
"496 556 OFFCURVE",
"519 532 OFFCURVE",
"519 487 CURVE SMOOTH",
"519 450 OFFCURVE",
"498 413 OFFCURVE",
"462 386 CURVE",
"234 386 LINE",
"208 254 LINE",
"382 254 LINE SMOOTH",
"430 254 OFFCURVE",
"441 239 OFFCURVE",
"438 183 CURVE SMOOTH",
"427 0 LINE",
"729 0 LINE",
"746 84 LINE",
"589 133 LINE",
"665 0 LINE",
"670 168 LINE SMOOTH"
);
}
);
};
layerId = "A6FDB8B9-512B-4F31-B986-CD5B604F5662";
paths = (
{
closed = 1;
nodes = (
"353 0 LINE",
"370 84 LINE",
"292 107 LINE",
"382 556 LINE",
"451 556 LINE SMOOTH",
"496 556 OFFCURVE",
"519 532 OFFCURVE",
"519 487 CURVE SMOOTH",
"519 450 OFFCURVE",
"498 413 OFFCURVE",
"462 386 CURVE",
"234 386 LINE",
"208 254 LINE",
"382 254 LINE SMOOTH",
"430 254 OFFCURVE",
"441 239 OFFCURVE",
"438 183 CURVE SMOOTH",
"427 0 LINE",
"729 0 LINE",
"746 84 LINE",
"668 108 LINE",
"670 168 LINE SMOOTH",
"673 284 OFFCURVE",
"622 325 OFFCURVE",
"474 333 CURVE",
"486 309 LINE",
"642 318 OFFCURVE",
"765 415 OFFCURVE",
"765 529 CURVE SMOOTH",
"765 627 OFFCURVE",
"674 688 OFFCURVE",
"528 688 CURVE SMOOTH",
"92 688 LINE",
"76 605 LINE",
"164 572 LINE",
"59 112 LINE",
"17 98 OFFCURVE",
"-5 88 OFFCURVE",
"-30 76 CURVE",
"-45 0 LINE"
);
}
);
width = 760;
},
{
anchors = (
{
name = bottom;
position = "{299, 0}";
},
{
name = top;
position = "{428, 644}";
}
);
background = {
paths = (
{
closed = 1;
nodes = (
"273 0 LINE",
"275 12 LINE",
"162 30 LINE",
"285 644 LINE",
"130 644 LINE",
"127 633 LINE",
"249 615 LINE",
"124 29 LINE",
"64 27 OFFCURVE",
"26 21 OFFCURVE",
"3 10 CURVE",
"1 0 LINE"
);
},
{
closed = 1;
nodes = (
"513 274 OFFCURVE",
"483 311 OFFCURVE",
"408 318 CURVE",
"417 311 LINE",
"534 337 OFFCURVE",
"614 415 OFFCURVE",
"614 503 CURVE SMOOTH",
"614 587 OFFCURVE",
"551 644 OFFCURVE",
"458 644 CURVE SMOOTH",
"275 644 LINE",
"269 614 LINE",
"449 614 LINE SMOOTH",
"530 614 OFFCURVE",
"579 571 OFFCURVE",
"579 501 CURVE SMOOTH",
"579 426 OFFCURVE",
"525 370 OFFCURVE",
"414 328 CURVE",
"212 328 LINE",
"206 298 LINE",
"368 298 LINE SMOOTH",
"449 298 OFFCURVE",
"479 267 OFFCURVE",
"478 182 CURVE SMOOTH",
"476 0 LINE",
"609 0 LINE",
"611 12 LINE",
"494 36 LINE",
"514 0 LINE",
"513 185 LINE SMOOTH"
);
}
);
};
layerId = "0E5388DE-A0E6-4EB4-BC9B-CE5870C9023F";
paths = (
{
closed = 1;
nodes = (
"273 0 LINE",
"275 12 LINE",
"162 30 LINE",
"279 614 LINE",
"449 614 LINE SMOOTH",
"530 614 OFFCURVE",
"579 571 OFFCURVE",
"579 501 CURVE SMOOTH",
"579 426 OFFCURVE",
"525 370 OFFCURVE",
"414 328 CURVE",
"212 328 LINE",
"206 298 LINE",
"368 298 LINE SMOOTH",
"449 298 OFFCURVE",
"479 267 OFFCURVE",
"478 182 CURVE SMOOTH",
"476 0 LINE",
"609 0 LINE",
"611 12 LINE",
"514 32 LINE",
"513 185 LINE SMOOTH",
"513 268 OFFCURVE",
"486 306 OFFCURVE",
"421 317 CURVE",
"420 312 LINE",
"536 339 OFFCURVE",
"614 416 OFFCURVE",
"614 503 CURVE SMOOTH",
"614 587 OFFCURVE",
"551 644 OFFCURVE",
"458 644 CURVE SMOOTH",
"130 644 LINE",
"127 633 LINE",
"249 615 LINE",
"124 29 LINE",
"64 27 OFFCURVE",
"26 21 OFFCURVE",
"3 10 CURVE",
"1 0 LINE"
);
}
);
width = 689;
}
);
leftKerningGroup = H;
rightKerningGroup = R;
unicode = 0052;
},
{
color = 4;
glyphname = S;
lastChange = "2020-02-24 20:55:26 +0000";
layers = (
{
anchors = (
{
name = bottom;
position = "{279, 0}";
},
{
name = top;
position = "{417, 688}";
}
);
background = {
paths = (
{
closed = 1;
nodes = (
"103 5 OFFCURVE",
"203 -14 OFFCURVE",
"286 -14 CURVE SMOOTH",
"491 -14 OFFCURVE",
"635 82 OFFCURVE",
"635 218 CURVE SMOOTH",
"635 417 OFFCURVE",
"305 451 OFFCURVE",
"305 525 CURVE SMOOTH",
"305 535 OFFCURVE",
"308 543 OFFCURVE",
"314 549 CURVE",
"420 552 OFFCURVE",
"510 536 OFFCURVE",
"582 501 CURVE",
"674 658 LINE",
"601 685 OFFCURVE",
"513 699 OFFCURVE",
"425 699 CURVE SMOOTH",
"214 699 OFFCURVE",
"76 609 OFFCURVE",
"76 472 CURVE SMOOTH",
"76 270 OFFCURVE",
"407 243 OFFCURVE",
"407 167 CURVE SMOOTH",
"407 152 OFFCURVE",
"400 137 OFFCURVE",
"387 121 CURVE",
"462 146 LINE",
"352 126 OFFCURVE",
"243 137 OFFCURVE",
"133 180 CURVE",
"8 38 LINE"
);
},
{
closed = 1;
nodes = (
"153 265 LINE",
"53 265 LINE",
"8 38 LINE",
"218 25 LINE"
);
},
{
closed = 1;
nodes = (
"628 432 LINE",
"674 658 LINE",
"463 670 LINE",
"527 432 LINE"
);
}
);
};
layerId = "A6FDB8B9-512B-4F31-B986-CD5B604F5662";
paths = (
{
closed = 1;
nodes = (
"105 5 OFFCURVE",
"205 -14 OFFCURVE",
"286 -14 CURVE SMOOTH",
"491 -14 OFFCURVE",
"635 82 OFFCURVE",
"635 218 CURVE SMOOTH",
"635 417 OFFCURVE",
"305 451 OFFCURVE",
"305 525 CURVE SMOOTH",
"305 538 OFFCURVE",
"310 547 OFFCURVE",
"320 556 CURVE",
"236 544 LINE",
"374 559 OFFCURVE",
"491 544 OFFCURVE",
"582 501 CURVE",
"674 658 LINE",
"603 685 OFFCURVE",
"515 699 OFFCURVE",
"425 699 CURVE SMOOTH",
"214 699 OFFCURVE",
"76 609 OFFCURVE",
"76 472 CURVE SMOOTH",
"76 270 OFFCURVE",
"407 243 OFFCURVE",
"407 167 CURVE SMOOTH",
"407 152 OFFCURVE",
"400 137 OFFCURVE",
"387 121 CURVE",
"462 146 LINE",
"352 126 OFFCURVE",
"243 137 OFFCURVE",
"133 180 CURVE",
"8 38 LINE"
);
},
{
closed = 1;
nodes = (
"153 265 LINE",
"53 265 LINE",
"8 38 LINE",
"218 25 LINE"
);
},
{
closed = 1;
nodes = (
"628 432 LINE",
"674 658 LINE",
"463 670 LINE",
"527 432 LINE"
);
}
);
width = 661;
},
{
anchors = (
{
name = bottom;
position = "{258, 0}";
},
{
name = top;
position = "{387, 644}";
}
);
background = {
paths = (
{
closed = 1;
nodes = (
"139 3 OFFCURVE",
"212 -10 OFFCURVE",
"275 -10 CURVE SMOOTH",
"416 -10 OFFCURVE",
"515 58 OFFCURVE",
"515 154 CURVE SMOOTH",
"515 318 OFFCURVE",
"186 347 OFFCURVE",
"186 501 CURVE SMOOTH",
"186 548 OFFCURVE",
"217 593 OFFCURVE",
"266 617 CURVE",
"337 627 OFFCURVE",
"461 618 OFFCURVE",
"555 596 CURVE",
"564 621 LINE",
"499 643 OFFCURVE",
"438 654 OFFCURVE",
"383 654 CURVE SMOOTH",
"247 654 OFFCURVE",
"152 587 OFFCURVE",
"152 490 CURVE SMOOTH",
"152 321 OFFCURVE",
"479 289 OFFCURVE",
"479 147 CURVE SMOOTH",
"479 98 OFFCURVE",
"440 49 OFFCURVE",
"380 21 CURVE",
"263 15 OFFCURVE",
"163 26 OFFCURVE",
"74 56 CURVE",
"61 29 LINE"
);
},
{
closed = 1;
nodes = (
"103 210 LINE",
"95 210 LINE",
"61 29 LINE",
"102 26 LINE"
);
},
{
closed = 1;
nodes = (
"531 450 LINE",
"564 621 LINE",
"523 625 LINE",
"523 450 LINE"
);
}
);
};
layerId = "0E5388DE-A0E6-4EB4-BC9B-CE5870C9023F";
paths = (
{
closed = 1;
nodes = (
"139 3 OFFCURVE",
"212 -10 OFFCURVE",
"275 -10 CURVE SMOOTH",
"416 -10 OFFCURVE",
"515 58 OFFCURVE",
"515 154 CURVE SMOOTH",
"515 318 OFFCURVE",
"186 347 OFFCURVE",
"186 501 CURVE SMOOTH",
"186 551 OFFCURVE",
"221 598 OFFCURVE",
"275 621 CURVE",
"260 616 LINE",
"329 628 OFFCURVE",
"458 619 OFFCURVE",
"555 596 CURVE",
"564 621 LINE",
"499 643 OFFCURVE",
"438 654 OFFCURVE",
"383 654 CURVE SMOOTH",
"247 654 OFFCURVE",
"152 587 OFFCURVE",
"152 490 CURVE SMOOTH",
"152 321 OFFCURVE",
"479 289 OFFCURVE",
"479 147 CURVE SMOOTH",
"479 95 OFFCURVE",
"436 44 OFFCURVE",
"370 17 CURVE",
"390 22 LINE",
"269 14 OFFCURVE",
"166 25 OFFCURVE",
"74 56 CURVE",
"61 29 LINE"
);
},
{
closed = 1;
nodes = (
"103 210 LINE",
"95 210 LINE",
"61 29 LINE",
"102 26 LINE"
);
},
{
closed = 1;
nodes = (
"531 450 LINE",
"564 621 LINE",
"523 625 LINE",
"523 450 LINE"
);
}
);
width = 611;
}
);
leftKerningGroup = S;
rightKerningGroup = S;
unicode = 0053;
},
{
color = 4;
glyphname = Scaron;
lastChange = "2020-02-24 20:56:35 +0000";
layers = (
{
anchors = (
{
name = top;
position = "{428, 850}";
}
);
components = (
{
name = S;
}
);
layerId = "0E5388DE-A0E6-4EB4-BC9B-CE5870C9023F";
paths = (
{
closed = 1;
nodes = (
"410 747 LINE",
"527 838 LINE",
"517 850 LINE",
"408 778 LINE",
"321 850 LINE",
"309 838 LINE",
"398 747 LINE"
);
}
);
width = 611;
},
{
anchors = (
{
name = top;
position = "{479, 999}";
}
);
components = (
{
name = S;
}
);
layerId = "A6FDB8B9-512B-4F31-B986-CD5B604F5662";
paths = (
{
closed = 1;
nodes = (
"504 753 LINE",
"663 925 LINE",
"597 999 LINE",
"449 897 LINE",
"336 999 LINE",
"246 925 LINE",
"362 753 LINE"
);
}
);
width = 661;
}
);
leftKerningGroup = S;
rightKerningGroup = S;
unicode = 0160;
},
{
color = 4;
glyphname = T;
lastChange = "2020-02-24 20:55:26 +0000";
layers = (
{
anchors = (
{
name = bottom;
position = "{308, 0}";
},
{
name = center;
position = "{374, 330}";
},
{
name = top;
position = "{446, 688}";
}
);
layerId = "A6FDB8B9-512B-4F31-B986-CD5B604F5662";
paths = (
{
closed = 1;
nodes = (
"92 688 LINE",
"31 383 LINE",
"125 383 LINE",
"220 556 LINE",
"309 556 LINE",
"202 114 LINE",
"155 104 OFFCURVE",
"114 94 OFFCURVE",
"72 79 CURVE",
"63 0 LINE",
"541 0 LINE",
"558 84 LINE",
"441 107 LINE",
"536 556 LINE",
"622 556 LINE",
"648 383 LINE",
"738 383 LINE",
"799 688 LINE"
);
}
);
width = 717;
},
{
anchors = (
{
name = bottom;
position = "{298, 0}";
},
{
name = center;
position = "{363, 322}";
},
{
name = top;
position = "{428, 644}";
}
);
layerId = "0E5388DE-A0E6-4EB4-BC9B-CE5870C9023F";
paths = (
{
closed = 1;
nodes = (
"152 644 LINE",
"100 383 LINE",
"108 383 LINE",
"184 614 LINE",
"407 614 LINE",
"281 29 LINE",
"232 27 OFFCURVE",
"184 21 OFFCURVE",
"137 10 CURVE",
"136 0 LINE",
"455 0 LINE",
"458 12 LINE",
"320 30 LINE",
"438 614 LINE",
"658 614 LINE",
"642 383 LINE",
"650 383 LINE",
"702 644 LINE"
);
}
);
width = 691;
}
);
leftKerningGroup = T;
rightKerningGroup = T;
unicode = 0054;
},
{
color = 4;
glyphname = U;
lastChange = "2020-02-24 20:55:26 +0000";
layers = (
{
anchors = (
{
name = bottom;
position = "{312, 0}";
},
{
name = ogonek;
position = "{533, 10}";
},
{
name = top;
position = "{490, 688}";
},
{
name = topright;
position = "{817, 688}";
}
);
layerId = "A6FDB8B9-512B-4F31-B986-CD5B604F5662";
paths = (
{
closed = 1;
nodes = (
"523 -15 OFFCURVE",
"640 74 OFFCURVE",
"674 241 CURVE SMOOTH",
"741 576 LINE",
"774 587 OFFCURVE",
"802 599 OFFCURVE",
"829 612 CURVE",
"845 688 LINE",
"525 688 LINE",
"508 605 LINE",
"579 572 LINE",
"488 164 LINE",
"461 144 OFFCURVE",
"419 131 OFFCURVE",
"380 131 CURVE SMOOTH",
"322 131 OFFCURVE",
"285 159 OFFCURVE",
"285 200 CURVE SMOOTH",
"285 205 OFFCURVE",
"286 210 OFFCURVE",
"287 215 CURVE SMOOTH",
"359 576 LINE",
"392 587 OFFCURVE",
"412 596 OFFCURVE",
"437 612 CURVE",
"453 688 LINE",
"70 688 LINE",
"53 605 LINE",
"140 572 LINE",
"62 228 LINE",
"59 212 OFFCURVE",
"57 196 OFFCURVE",
"57 181 CURVE SMOOTH",
"57 61 OFFCURVE",
"162 -15 OFFCURVE",
"336 -15 CURVE SMOOTH"
);
}
);
width = 745;
},
{
anchors = (
{
name = bottom;
position = "{339, 0}";
},
{
name = ogonek;
position = "{472, 10}";
},
{
name = top;
position = "{467, 644}";
},
{
name = topright;
position = "{811, 644}";
}
);
layerId = "0E5388DE-A0E6-4EB4-BC9B-CE5870C9023F";
paths = (
{
closed = 1;
nodes = (
"486 -8 OFFCURVE",
"587 70 OFFCURVE",
"614 205 CURVE SMOOTH",
"696 616 LINE",
"747 619 OFFCURVE",
"785 625 OFFCURVE",
"816 635 CURVE",
"818 644 LINE",
"546 644 LINE",
"544 633 LINE",
"665 615 LINE",
"562 120 LINE",
"502 51 OFFCURVE",
"437 22 OFFCURVE",
"342 22 CURVE SMOOTH",
"229 22 OFFCURVE",
"174 63 OFFCURVE",
"174 147 CURVE SMOOTH",
"174 158 OFFCURVE",
"176 173 OFFCURVE",
"179 195 CURVE SMOOTH",
"263 616 LINE",
"314 619 OFFCURVE",
"352 625 OFFCURVE",
"383 635 CURVE",
"385 644 LINE",
"113 644 LINE",
"111 633 LINE",
"232 615 LINE",
"142 195 LINE",
"138 174 OFFCURVE",
"137 160 OFFCURVE",
"137 149 CURVE SMOOTH",
"137 49 OFFCURVE",
"211 -8 OFFCURVE",
"340 -8 CURVE SMOOTH"
);
}
);
width = 769;
}
);
leftKerningGroup = U;
rightKerningGroup = U;
unicode = 0055;
},
{
color = 4;
glyphname = Uacute;
lastChange = "2020-02-24 20:56:35 +0000";
layers = (
{
anchors = (
{
name = top;
position = "{512, 869}";
}
);
components = (
{
name = U;
}
);
layerId = "0E5388DE-A0E6-4EB4-BC9B-CE5870C9023F";
paths = (
{
closed = 1;
nodes = (
"493 768 OFFCURVE",
"548 806 OFFCURVE",
"603 847 CURVE",
"587 869 LINE",
"581 869 LINE",
"425 740 LINE",
"431 731 LINE"
);
}
);
width = 769;
},
{
anchors = (
{
name = top;
position = "{551, 995}";
}
);
components = (
{
name = U;
}
);
layerId = "A6FDB8B9-512B-4F31-B986-CD5B604F5662";
paths = (
{
closed = 1;
nodes = (
"511 763 OFFCURVE",
"603 797 OFFCURVE",
"694 839 CURVE",
"620 986 LINE",
"593 986 LINE",
"374 808 LINE",
"416 735 LINE"
);
}
);
width = 745;
}
);
leftKerningGroup = U;
rightKerningGroup = U;
unicode = 00DA;
},
{
color = 4;
glyphname = Udieresis;
lastChange = "2020-02-24 20:56:35 +0000";
layers = (
{
anchors = (
{
name = top;
position = "{505, 834}";
}
);
components = (
{
name = U;
}
);
layerId = "0E5388DE-A0E6-4EB4-BC9B-CE5870C9023F";
paths = (
{
closed = 1;
nodes = (
"429 831 OFFCURVE",
"416 823 OFFCURVE",
"404 811 CURVE",
"407 799 OFFCURVE",
"415 786 OFFCURVE",
"426 773 CURVE",
"440 775 OFFCURVE",
"455 783 OFFCURVE",
"465 794 CURVE",
"463 808 OFFCURVE",
"456 822 OFFCURVE",
"444 834 CURVE"
);
},
{
closed = 1;
nodes = (
"558 831 OFFCURVE",
"544 823 OFFCURVE",
"533 811 CURVE",
"537 796 OFFCURVE",
"545 783 OFFCURVE",
"556 773 CURVE",
"569 775 OFFCURVE",
"582 782 OFFCURVE",
"594 794 CURVE",
"592 808 OFFCURVE",
"585 821 OFFCURVE",
"574 834 CURVE"
);
}
);
width = 769;
},
{
anchors = (
{
name = top;
position = "{548, 980}";
}
);
components = (
{
name = U;
}
);
layerId = "A6FDB8B9-512B-4F31-B986-CD5B604F5662";
paths = (
{
closed = 1;
nodes = (
"384 971 OFFCURVE",
"332 939 OFFCURVE",
"295 901 CURVE",
"304 844 OFFCURVE",
"337 789 OFFCURVE",
"378 756 CURVE",
"431 763 OFFCURVE",
"486 797 OFFCURVE",
"520 838 CURVE",
"512 892 OFFCURVE",
"481 943 OFFCURVE",
"439 980 CURVE"
);
},
{
closed = 1;
nodes = (
"620 971 OFFCURVE",
"568 939 OFFCURVE",
"531 901 CURVE",
"540 844 OFFCURVE",
"572 789 OFFCURVE",
"613 756 CURVE",
"667 763 OFFCURVE",
"722 797 OFFCURVE",
"756 838 CURVE",
"748 892 OFFCURVE",
"715 943 OFFCURVE",
"674 980 CURVE"
);
}
);
width = 745;
}
);
leftKerningGroup = U;
rightKerningGroup = U;
unicode = 00DC;
},
{
color = 4;
glyphname = Ugrave;
lastChange = "2020-02-24 20:56:35 +0000";
layers = (
{
anchors = (
{
name = top;
position = "{512, 869}";
}
);
components = (
{
name = U;
}
);
layerId = "0E5388DE-A0E6-4EB4-BC9B-CE5870C9023F";
paths = (
{
closed = 1;
nodes = (
"569 740 LINE",
"413 869 LINE",
"407 869 LINE",
"391 847 LINE",
"446 806 OFFCURVE",
"501 768 OFFCURVE",
"563 731 CURVE"
);
}
);
width = 769;
},
{
anchors = (
{
name = top;
position = "{551, 995}";
}
);
components = (
{
name = U;
}
);
layerId = "A6FDB8B9-512B-4F31-B986-CD5B604F5662";
paths = (
{
closed = 1;
nodes = (
"672 808 LINE",
"453 986 LINE",
"426 986 LINE",
"352 839 LINE",
"443 797 OFFCURVE",
"535 763 OFFCURVE",
"630 735 CURVE"
);
}
);
width = 745;
}
);
leftKerningGroup = U;
rightKerningGroup = U;
unicode = 00D9;
},
{
color = 4;
glyphname = V;
lastChange = "2020-02-24 20:55:26 +0000";
layers = (
{
anchors = (
{
name = bottom;
position = "{301, 0}";
},
{
name = top;
position = "{439, 688}";
}
);
layerId = "A6FDB8B9-512B-4F31-B986-CD5B604F5662";
paths = (
{
closed = 1;
nodes = (
"433 0 LINE",
"802 688 LINE",
"616 688 LINE",
"336 111 LINE",
"372 111 LINE",
"328 688 LINE",
"74 688 LINE",
"175 0 LINE"
);
},
{
closed = 1;
nodes = (
"425 612 LINE",
"439 688 LINE",
"48 688 LINE",
"39 613 LINE",
"101 576 OFFCURVE",
"168 549 OFFCURVE",
"242 536 CURVE"
);
},
{
closed = 1;
nodes = (
"815 612 LINE",
"829 688 LINE",
"508 688 LINE",
"499 613 LINE",
"556 576 OFFCURVE",
"619 550 OFFCURVE",
"690 537 CURVE"
);
}
);
width = 707;
},
{
anchors = (
{
name = bottom;
position = "{306, 0}";
},
{
name = top;
position = "{435, 644}";
}
);
layerId = "0E5388DE-A0E6-4EB4-BC9B-CE5870C9023F";
paths = (
{
closed = 1;
nodes = (
"324 0 LINE",
"703 644 LINE",
"668 644 LINE",
"301 15 LINE",
"312 15 LINE",
"207 644 LINE",
"173 644 LINE",
"285 0 LINE"
);
},
{
closed = 1;
nodes = (
"329 633 LINE",
"331 644 LINE",
"107 644 LINE",
"106 635 LINE",
"137 626 OFFCURVE",
"167 620 OFFCURVE",
"197 616 CURVE"
);
},
{
closed = 1;
nodes = (
"758 633 LINE",
"760 644 LINE",
"527 644 LINE",
"526 635 LINE",
"572 626 OFFCURVE",
"621 620 OFFCURVE",
"676 616 CURVE"
);
}
);
width = 705;
}
);
leftKerningGroup = V;
rightKerningGroup = V;
unicode = 0056;
},
{
color = 4;
glyphname = W;
lastChange = "2020-02-24 20:55:26 +0000";
layers = (
{
anchors = (
{
name = bottom;
position = "{473, 0}";
},
{
name = top;
position = "{611, 688}";
}
);
background = {
paths = (
{
closed = 1;
nodes = (
"794 0 LINE",
"1141 688 LINE",
"958 688 LINE",
"697 109 LINE",
"732 109 LINE",
"706 688 LINE",
"502 688 LINE",
"545 0 LINE"
);
},
{
closed = 1;
nodes = (
"406 0 LINE",
"640 516 LINE",
"548 644 LINE",
"311 109 LINE",
"344 109 LINE",
"322 688 LINE",
"75 688 LINE",
"153 0 LINE"
);
},
{
closed = 1;
nodes = (
"409 612 LINE",
"423 688 LINE",
"51 688 LINE",
"42 613 LINE",
"99 576 OFFCURVE",
"160 550 OFFCURVE",
"229 537 CURVE"
);
},
{
closed = 1;
nodes = (
"800 612 LINE",
"814 688 LINE",
"477 688 LINE",
"467 613 LINE",
"520 576 OFFCURVE",
"578 550 OFFCURVE",
"642 537 CURVE"
);
},
{
closed = 1;
nodes = (
"1157 612 LINE",
"1171 688 LINE",
"868 688 LINE",
"858 614 LINE",
"910 577 OFFCURVE",
"966 550 OFFCURVE",
"1029 537 CURVE"
);
}
);
};
layerId = "A6FDB8B9-512B-4F31-B986-CD5B604F5662";
paths = (
{
closed = 1;
nodes = (
"794 0 LINE",
"1136 678 LINE",
"954 678 LINE",
"697 109 LINE",
"732 109 LINE",
"707 678 LINE",
"503 678 LINE",
"545 0 LINE"
);
},
{
closed = 1;
nodes = (
"406 0 LINE",
"640 516 LINE",
"548 644 LINE",
"311 109 LINE",
"344 109 LINE",
"322 678 LINE",
"76 678 LINE",
"153 0 LINE"
);
},
{
closed = 1;
nodes = (
"409 612 LINE",
"423 688 LINE",
"51 688 LINE",
"42 613 LINE",
"99 576 OFFCURVE",
"160 550 OFFCURVE",
"229 537 CURVE"
);
},
{
closed = 1;
nodes = (
"800 612 LINE",
"814 688 LINE",
"477 688 LINE",
"467 613 LINE",
"520 576 OFFCURVE",
"578 550 OFFCURVE",
"642 537 CURVE"
);
},
{
closed = 1;
nodes = (
"1157 612 LINE",
"1171 688 LINE",
"868 688 LINE",
"858 614 LINE",
"910 577 OFFCURVE",
"966 550 OFFCURVE",
"1029 537 CURVE"
);
}
);
width = 1050;
},
{
anchors = (
{
name = bottom;
position = "{466, 0}";
},
{
name = top;
position = "{595, 644}";
}
);
background = {
paths = (
{
closed = 1;
nodes = (
"676 0 LINE",
"1023 644 LINE",
"988 644 LINE",
"653 15 LINE",
"664 15 LINE",
"587 644 LINE",
"555 644 LINE",
"637 0 LINE"
);
},
{
closed = 1;
nodes = (
"289 0 LINE",
"585 551 LINE",
"571 586 LINE",
"267 15 LINE",
"278 15 LINE",
"203 644 LINE",
"169 644 LINE",
"251 0 LINE"
);
},
{
closed = 1;
nodes = (
"328 633 LINE",
"330 644 LINE",
"108 644 LINE",
"107 635 LINE",
"138 626 OFFCURVE",
"168 620 OFFCURVE",
"197 616 CURVE"
);
},
{
closed = 1;
nodes = (
"703 633 LINE",
"705 644 LINE",
"475 644 LINE",
"474 635 LINE",
"509 626 OFFCURVE",
"544 620 OFFCURVE",
"583 616 CURVE"
);
},
{
closed = 1;
nodes = (
"1079 633 LINE",
"1081 644 LINE",
"851 644 LINE",
"850 635 LINE",
"894 626 OFFCURVE",
"942 620 OFFCURVE",
"998 616 CURVE"
);
}
);
};
layerId = "0E5388DE-A0E6-4EB4-BC9B-CE5870C9023F";
paths = (
{
closed = 1;
nodes = (
"676 0 LINE",
"1018 634 LINE",
"983 634 LINE",
"653 15 LINE",
"664 15 LINE",
"588 634 LINE",
"556 634 LINE",
"637 0 LINE"
);
},
{
closed = 1;
nodes = (
"289 0 LINE",
"585 551 LINE",
"571 586 LINE",
"267 15 LINE",
"278 15 LINE",
"204 634 LINE",
"170 634 LINE",
"251 0 LINE"
);
},
{
closed = 1;
nodes = (
"328 633 LINE",
"330 644 LINE",
"108 644 LINE",
"107 635 LINE",
"138 626 OFFCURVE",
"168 620 OFFCURVE",
"197 616 CURVE"
);
},
{
closed = 1;
nodes = (
"703 633 LINE",
"705 644 LINE",
"475 644 LINE",
"474 635 LINE",
"509 626 OFFCURVE",
"544 620 OFFCURVE",
"583 616 CURVE"
);
},
{
closed = 1;
nodes = (
"1079 633 LINE",
"1081 644 LINE",
"851 644 LINE",
"850 635 LINE",
"894 626 OFFCURVE",
"942 620 OFFCURVE",
"998 616 CURVE"
);
}
);
width = 1027;
}
);
leftKerningGroup = V;
rightKerningGroup = V;
unicode = 0057;
},
{
color = 4;
glyphname = X;
lastChange = "2020-02-24 20:55:26 +0000";
layers = (
{
anchors = (
{
name = bottom;
position = "{335, 0}";
},
{
name = top;
position = "{473, 688}";
}
);
background = {
paths = (
{
closed = 1;
nodes = (
"138 10 LINE",
"398 315 LINE",
"335 315 LINE",
"467 10 LINE",
"705 10 LINE",
"719 82 LINE",
"562 402 LINE",
"285 402 LINE",
"-2 94 LINE",
"-18 10 LINE"
);
},
{
closed = 1;
nodes = (
"546 322 LINE",
"816 610 LINE",
"820 678 LINE",
"660 678 LINE",
"435 410 LINE",
"496 410 LINE",
"378 678 LINE",
"133 678 LINE",
"118 619 LINE",
"270 322 LINE"
);
},
{
closed = 1;
nodes = (
"733 0 LINE",
"750 84 LINE",
"580 153 LINE",
"503 142 OFFCURVE",
"421 120 OFFCURVE",
"341 81 CURVE",
"331 0 LINE"
);
},
{
closed = 1;
nodes = (
"267 0 LINE",
"283 84 LINE",
"146 154 LINE",
"85 143 OFFCURVE",
"11 121 OFFCURVE",
"-53 82 CURVE",
"-64 0 LINE"
);
},
{
closed = 1;
nodes = (
"89 688 LINE",
"73 605 LINE",
"240 535 LINE",
"317 547 OFFCURVE",
"397 569 OFFCURVE",
"475 608 CURVE",
"485 688 LINE"
);
},
{
closed = 1;
nodes = (
"540 688 LINE",
"524 605 LINE",
"665 534 LINE",
"724 546 OFFCURVE",
"784 568 OFFCURVE",
"847 607 CURVE",
"858 688 LINE"
);
}
);
};
layerId = "A6FDB8B9-512B-4F31-B986-CD5B604F5662";
paths = (
{
closed = 1;
nodes = (
"138 10 LINE",
"398 315 LINE",
"335 315 LINE",
"467 10 LINE",
"705 10 LINE",
"719 82 LINE",
"562 402 LINE",
"285 402 LINE",
"-2 94 LINE",
"-18 10 LINE"
);
},
{
closed = 1;
nodes = (
"546 322 LINE",
"816 610 LINE",
"820 678 LINE",
"660 678 LINE",
"435 410 LINE",
"496 410 LINE",
"378 678 LINE",
"133 678 LINE",
"118 619 LINE",
"270 322 LINE"
);
},
{
closed = 1;
nodes = (
"733 0 LINE",
"750 84 LINE",
"580 153 LINE",
"503 142 OFFCURVE",
"421 120 OFFCURVE",
"341 81 CURVE",
"331 0 LINE"
);
},
{
closed = 1;
nodes = (
"267 0 LINE",
"283 84 LINE",
"146 154 LINE",
"85 143 OFFCURVE",
"11 121 OFFCURVE",
"-53 82 CURVE",
"-64 0 LINE"
);
},
{
closed = 1;
nodes = (
"89 688 LINE",
"73 605 LINE",
"240 535 LINE",
"317 547 OFFCURVE",
"397 569 OFFCURVE",
"475 608 CURVE",
"485 688 LINE"
);
},
{
closed = 1;
nodes = (
"540 688 LINE",
"524 605 LINE",
"665 534 LINE",
"724 546 OFFCURVE",
"784 568 OFFCURVE",
"847 607 CURVE",
"858 688 LINE"
);
}
);
width = 771;
},
{
anchors = (
{
name = bottom;
position = "{336, 0}";
},
{
name = top;
position = "{465, 644}";
}
);
background = {
paths = (
{
closed = 1;
nodes = (
"107 0 LINE",
"413 328 LINE",
"398 328 LINE",
"566 0 LINE",
"596 0 LINE",
"597 8 LINE",
"414 363 LINE",
"404 363 LINE",
"69 3 LINE",
"69 0 LINE"
);
},
{
closed = 1;
nodes = (
"409 327 LINE",
"696 638 LINE",
"696 641 LINE",
"660 641 LINE",
"402 363 LINE",
"414 363 LINE",
"271 642 LINE",
"242 642 LINE",
"240 633 LINE",
"397 327 LINE"
);
},
{
closed = 1;
nodes = (
"680 0 LINE",
"683 12 LINE",
"569 32 LINE",
"513 30 OFFCURVE",
"462 22 OFFCURVE",
"409 7 CURVE",
"408 0 LINE"
);
},
{
closed = 1;
nodes = (
"259 0 LINE",
"262 12 LINE",
"118 32 LINE",
"74 30 OFFCURVE",
"32 22 OFFCURVE",
"-12 7 CURVE",
"-13 0 LINE"
);
},
{
closed = 1;
nodes = (
"159 644 LINE",
"157 632 LINE",
"260 612 LINE",
"319 614 OFFCURVE",
"376 622 OFFCURVE",
"431 637 CURVE",
"431 644 LINE"
);
},
{
closed = 1;
nodes = (
"518 644 LINE",
"516 632 LINE",
"649 612 LINE",
"698 614 OFFCURVE",
"745 622 OFFCURVE",
"790 637 CURVE",
"790 644 LINE"
);
}
);
};
layerId = "0E5388DE-A0E6-4EB4-BC9B-CE5870C9023F";
paths = (
{
closed = 1;
nodes = (
"116 10 LINE",
"413 328 LINE",
"398 328 LINE",
"561 10 LINE",
"591 10 LINE",
"592 18 LINE",
"414 363 LINE",
"404 363 LINE",
"78 13 LINE",
"78 10 LINE"
);
},
{
closed = 1;
nodes = (
"409 327 LINE",
"696 638 LINE",
"696 640 LINE",
"659 640 LINE",
"402 363 LINE",
"414 363 LINE",
"272 640 LINE",
"242 640 LINE",
"240 633 LINE",
"397 327 LINE"
);
},
{
closed = 1;
nodes = (
"680 0 LINE",
"683 12 LINE",
"569 32 LINE",
"513 30 OFFCURVE",
"462 22 OFFCURVE",
"409 7 CURVE",
"408 0 LINE"
);
},
{
closed = 1;
nodes = (
"259 0 LINE",
"262 12 LINE",
"118 32 LINE",
"74 30 OFFCURVE",
"32 22 OFFCURVE",
"-12 7 CURVE",
"-13 0 LINE"
);
},
{
closed = 1;
nodes = (
"159 644 LINE",
"157 632 LINE",
"260 612 LINE",
"319 614 OFFCURVE",
"376 622 OFFCURVE",
"431 637 CURVE",
"431 644 LINE"
);
},
{
closed = 1;
nodes = (
"518 644 LINE",
"516 632 LINE",
"649 612 LINE",
"698 614 OFFCURVE",
"745 622 OFFCURVE",
"790 637 CURVE",
"790 644 LINE"
);
}
);
width = 767;
}
);
leftKerningGroup = X;
rightKerningGroup = X;
unicode = 0058;
},
{
color = 4;
glyphname = Y;
lastChange = "2020-02-24 20:55:26 +0000";
layers = (
{
anchors = (
{
name = bottom;
position = "{286, 0}";
},
{
name = center;
position = "{331, 189}";
},
{
name = top;
position = "{434, 688}";
},
{
name = topleft;
position = "{106, 688}";
}
);
background = {
paths = (
{
closed = 1;
nodes = (
"398 161 LINE",
"774 610 LINE",
"786 688 LINE",
"647 688 LINE",
"386 345 LINE",
"455 345 LINE",
"336 688 LINE",
"88 688 LINE",
"77 619 LINE",
"268 161 LINE"
);
},
{
closed = 1;
nodes = (
"518 0 LINE",
"534 84 LINE",
"436 107 LINE",
"481 331 LINE",
"252 331 LINE",
"197 114 LINE",
"161 105 OFFCURVE",
"126 94 OFFCURVE",
"90 80 CURVE",
"74 0 LINE"
);
},
{
closed = 1;
nodes = (
"285 547 OFFCURVE",
"365 569 OFFCURVE",
"443 608 CURVE",
"453 688 LINE",
"47 688 LINE",
"31 605 LINE",
"208 535 LINE"
);
},
{
closed = 1;
nodes = (
"682 546 OFFCURVE",
"743 568 OFFCURVE",
"805 607 CURVE",
"816 688 LINE",
"508 688 LINE",
"492 605 LINE",
"623 534 LINE"
);
}
);
};
layerId = "A6FDB8B9-512B-4F31-B986-CD5B604F5662";
paths = (
{
closed = 1;
nodes = (
"398 161 LINE",
"774 610 LINE",
"780 678 LINE",
"641 678 LINE",
"386 345 LINE",
"455 345 LINE",
"339 678 LINE",
"91 678 LINE",
"77 619 LINE",
"268 161 LINE"
);
},
{
closed = 1;
nodes = (
"518 0 LINE",
"534 84 LINE",
"436 107 LINE",
"481 331 LINE",
"252 331 LINE",
"197 114 LINE",
"161 105 OFFCURVE",
"126 94 OFFCURVE",
"90 80 CURVE",
"74 0 LINE"
);
},
{
closed = 1;
nodes = (
"285 547 OFFCURVE",
"365 569 OFFCURVE",
"443 608 CURVE",
"453 688 LINE",
"47 688 LINE",
"31 605 LINE",
"208 535 LINE"
);
},
{
closed = 1;
nodes = (
"682 546 OFFCURVE",
"743 568 OFFCURVE",
"805 607 CURVE",
"816 688 LINE",
"508 688 LINE",
"492 605 LINE",
"623 534 LINE"
);
}
);
width = 696;
},
{
anchors = (
{
name = bottom;
position = "{283, 0}";
},
{
name = center;
position = "{320, 179}";
},
{
name = top;
position = "{422, 644}";
},
{
name = topleft;
position = "{101, 644}";
}
);
background = {
paths = (
{
closed = 1;
nodes = (
"338 237 LINE",
"646 641 LINE",
"646 644 LINE",
"611 644 LINE",
"332 273 LINE",
"344 273 LINE",
"218 644 LINE",
"188 644 LINE",
"187 635 LINE",
"326 237 LINE"
);
},
{
closed = 1;
nodes = (
"432 0 LINE",
"435 12 LINE",
"307 30 LINE",
"355 270 LINE",
"321 270 LINE",
"268 29 LINE",
"224 27 OFFCURVE",
"180 21 OFFCURVE",
"134 10 CURVE",
"133 0 LINE"
);
},
{
closed = 1;
nodes = (
"267 614 OFFCURVE",
"323 622 OFFCURVE",
"378 637 CURVE",
"378 644 LINE",
"106 644 LINE",
"104 632 LINE",
"207 612 LINE"
);
},
{
closed = 1;
nodes = (
"645 614 OFFCURVE",
"692 622 OFFCURVE",
"737 637 CURVE",
"737 644 LINE",
"465 644 LINE",
"463 632 LINE",
"596 612 LINE"
);
}
);
};
layerId = "0E5388DE-A0E6-4EB4-BC9B-CE5870C9023F";
paths = (
{
closed = 1;
nodes = (
"338 237 LINE",
"638 631 LINE",
"638 634 LINE",
"603 634 LINE",
"332 273 LINE",
"344 273 LINE",
"221 634 LINE",
"191 634 LINE",
"190 625 LINE",
"326 237 LINE"
);
},
{
closed = 1;
nodes = (
"432 0 LINE",
"435 12 LINE",
"307 30 LINE",
"355 270 LINE",
"321 270 LINE",
"268 29 LINE",
"224 27 OFFCURVE",
"180 21 OFFCURVE",
"134 10 CURVE",
"133 0 LINE"
);
},
{
closed = 1;
nodes = (
"267 614 OFFCURVE",
"323 622 OFFCURVE",
"378 637 CURVE",
"378 644 LINE",
"106 644 LINE",
"104 632 LINE",
"207 612 LINE"
);
},
{
closed = 1;
nodes = (
"645 614 OFFCURVE",
"692 622 OFFCURVE",
"737 637 CURVE",
"737 644 LINE",
"465 644 LINE",
"463 632 LINE",
"596 612 LINE"
);
}
);
width = 681;
}
);
leftKerningGroup = Y;
rightKerningGroup = Y;
unicode = 0059;
},
{
color = 4;
glyphname = Yacute;
lastChange = "2020-02-24 20:56:35 +0000";
layers = (
{
anchors = (
{
name = top;
position = "{467, 869}";
}
);
components = (
{
name = Y;
}
);
layerId = "0E5388DE-A0E6-4EB4-BC9B-CE5870C9023F";
paths = (
{
closed = 1;
nodes = (
"448 768 OFFCURVE",
"503 806 OFFCURVE",
"558 847 CURVE",
"542 869 LINE",
"536 869 LINE",
"380 740 LINE",
"386 731 LINE"
);
}
);
width = 681;
},
{
anchors = (
{
name = top;
position = "{495, 995}";
}
);
components = (
{
name = Y;
}
);
layerId = "A6FDB8B9-512B-4F31-B986-CD5B604F5662";
paths = (
{
closed = 1;
nodes = (
"455 763 OFFCURVE",
"547 797 OFFCURVE",
"638 839 CURVE",
"564 986 LINE",
"537 986 LINE",
"318 808 LINE",
"360 735 LINE"
);
}
);
width = 696;
}
);
leftKerningGroup = Y;
rightKerningGroup = Y;
unicode = 00DD;
},
{
color = 4;
glyphname = Ydieresis;
lastChange = "2020-02-24 20:56:35 +0000";
layers = (
{
anchors = (
{
name = top;
position = "{460, 834}";
}
);
components = (
{
name = Y;
}
);
layerId = "0E5388DE-A0E6-4EB4-BC9B-CE5870C9023F";
paths = (
{
closed = 1;
nodes = (
"384 831 OFFCURVE",
"371 823 OFFCURVE",
"359 811 CURVE",
"362 799 OFFCURVE",
"370 786 OFFCURVE",
"381 773 CURVE",
"395 775 OFFCURVE",
"410 783 OFFCURVE",
"420 794 CURVE",
"418 808 OFFCURVE",
"411 822 OFFCURVE",
"399 834 CURVE"
);
},
{
closed = 1;
nodes = (
"513 831 OFFCURVE",
"499 823 OFFCURVE",
"488 811 CURVE",
"492 796 OFFCURVE",
"500 783 OFFCURVE",
"511 773 CURVE",
"524 775 OFFCURVE",
"537 782 OFFCURVE",
"549 794 CURVE",
"547 808 OFFCURVE",
"540 821 OFFCURVE",
"529 834 CURVE"
);
}
);
width = 681;
},
{
anchors = (
{
name = top;
position = "{492, 980}";
}
);
components = (
{
name = Y;
}
);
layerId = "A6FDB8B9-512B-4F31-B986-CD5B604F5662";
paths = (
{
closed = 1;
nodes = (
"328 971 OFFCURVE",
"276 939 OFFCURVE",
"239 901 CURVE",
"248 844 OFFCURVE",
"281 789 OFFCURVE",
"322 756 CURVE",
"375 763 OFFCURVE",
"430 797 OFFCURVE",
"464 838 CURVE",
"456 892 OFFCURVE",
"425 943 OFFCURVE",
"383 980 CURVE"
);
},
{
closed = 1;
nodes = (
"564 971 OFFCURVE",
"512 939 OFFCURVE",
"475 901 CURVE",
"484 844 OFFCURVE",
"516 789 OFFCURVE",
"557 756 CURVE",
"611 763 OFFCURVE",
"666 797 OFFCURVE",
"700 838 CURVE",
"692 892 OFFCURVE",
"659 943 OFFCURVE",
"618 980 CURVE"
);
}
);
width = 696;
}
);
leftKerningGroup = Y;
rightKerningGroup = Y;
unicode = 0178;
},
{
color = 4;
glyphname = Z;
lastChange = "2020-02-24 20:55:26 +0000";
layers = (
{
anchors = (
{
name = bottom;
position = "{296, 0}";
},
{
name = top;
position = "{434, 688}";
}
);
layerId = "A6FDB8B9-512B-4F31-B986-CD5B604F5662";
paths = (
{
closed = 1;
nodes = (
"751 688 LINE",
"126 688 LINE",
"67 400 LINE",
"171 400 LINE",
"261 553 LINE",
"525 564 LINE",
"494 631 LINE",
"-8 93 LINE",
"-24 0 LINE",
"609 0 LINE",
"664 281 LINE",
"562 281 LINE",
"478 139 LINE",
"202 122 LINE",
"232 57 LINE",
"735 596 LINE"
);
}
);
width = 695;
},
{
anchors = (
{
name = bottom;
position = "{274, 0}";
},
{
name = top;
position = "{403, 644}";
}
);
layerId = "0E5388DE-A0E6-4EB4-BC9B-CE5870C9023F";
paths = (
{
closed = 1;
nodes = (
"644 644 LINE",
"171 644 LINE",
"139 465 LINE",
"146 465 LINE",
"198 613 LINE",
"596 620 LINE",
"592 630 LINE",
"20 3 LINE",
"20 0 LINE",
"521 0 LINE",
"553 186 LINE",
"546 186 LINE",
"493 31 LINE",
"67 24 LINE",
"71 14 LINE",
"644 641 LINE"
);
}
);
width = 645;
}
);
leftKerningGroup = Z;
rightKerningGroup = Z;
unicode = 005A;
},
{
color = 4;
glyphname = Zcaron;
lastChange = "2020-02-24 20:56:35 +0000";
layers = (
{
anchors = (
{
name = top;
position = "{444, 850}";
}
);
components = (
{
name = Z;
}
);
layerId = "0E5388DE-A0E6-4EB4-BC9B-CE5870C9023F";
paths = (
{
closed = 1;
nodes = (
"426 747 LINE",
"543 838 LINE",
"533 850 LINE",
"424 778 LINE",
"337 850 LINE",
"325 838 LINE",
"414 747 LINE"
);
}
);
width = 645;
},
{
anchors = (
{
name = top;
position = "{496, 999}";
}
);
components = (
{
name = Z;
}
);
layerId = "A6FDB8B9-512B-4F31-B986-CD5B604F5662";
paths = (
{
closed = 1;
nodes = (
"521 753 LINE",
"680 925 LINE",
"614 999 LINE",
"466 897 LINE",
"353 999 LINE",
"263 925 LINE",
"379 753 LINE"
);
}
);
width = 695;
}
);
leftKerningGroup = Z;
rightKerningGroup = Z;
unicode = 017D;
},
{
color = 4;
glyphname = "Oslash.rule-Weight_121_214";
lastChange = "2020-02-24 20:55:26 +0000";
layers = (
{
anchors = (
{
name = bottom;
position = "{345, 0}";
},
{
name = center;
position = "{378, 322}";
},
{
name = ogonek;
position = "{498, 30}";
},
{
name = top;
position = "{345, 644}";
},
{
name = topleft;
position = "{104, 644}";
},
{
name = topright;
position = "{680, 644}";
}
);
layerId = "0E5388DE-A0E6-4EB4-BC9B-CE5870C9023F";
paths = (
{
closed = 1;
nodes = (
"190 52 LINE",
"110 -82 LINE",
"135 -96 LINE",
"214 37 LINE"
);
},
{
closed = 1;
nodes = (
"510 -7 OFFCURVE",
"666 176 OFFCURVE",
"666 392 CURVE SMOOTH",
"666 547 OFFCURVE",
"572 651 OFFCURVE",
"433 651 CURVE SMOOTH",
"247 651 OFFCURVE",
"89 468 OFFCURVE",
"89 253 CURVE SMOOTH",
"89 99 OFFCURVE",
"185 -7 OFFCURVE",
"324 -7 CURVE SMOOTH"
);
},
{
closed = 1;
nodes = (
"205 23 OFFCURVE",
"124 116 OFFCURVE",
"124 255 CURVE SMOOTH",
"124 363 OFFCURVE",
"172 479 OFFCURVE",
"255 569 CURVE",
"241 557 LINE",
"297 596 OFFCURVE",
"364 618 OFFCURVE",
"427 618 CURVE SMOOTH",
"551 618 OFFCURVE",
"631 530 OFFCURVE",
"631 392 CURVE SMOOTH",
"631 340 OFFCURVE",
"618 277 OFFCURVE",
"597 226 CURVE SMOOTH",
"544 103 OFFCURVE",
"438 23 OFFCURVE",
"327 23 CURVE SMOOTH"
);
},
{
closed = 1;
nodes = (
"547 601 LINE",
"621 726 LINE",
"596 740 LINE",
"522 615 LINE"
);
}
);
width = 722;
},
{
anchors = (
{
name = bottom;
position = "{379, 0}";
},
{
name = center;
position = "{382, 344}";
},
{
name = ogonek;
position = "{565, 13}";
},
{
name = top;
position = "{379, 688}";
},
{
name = topleft;
position = "{77, 688}";
},
{
name = topright;
position = "{698, 688}";
}
);
layerId = "A6FDB8B9-512B-4F31-B986-CD5B604F5662";
paths = (
{
closed = 1;
nodes = (
"194 117 LINE",
"95 -70 LINE",
"192 -119 LINE",
"292 67 LINE"
);
},
{
closed = 1;
nodes = (
"577 -15 OFFCURVE",
"737 153 OFFCURVE",
"737 415 CURVE SMOOTH",
"737 596 OFFCURVE",
"624 703 OFFCURVE",
"435 703 CURVE SMOOTH",
"194 703 OFFCURVE",
"26 527 OFFCURVE",
"26 274 CURVE SMOOTH",
"26 93 OFFCURVE",
"139 -15 OFFCURVE",
"328 -15 CURVE SMOOTH"
);
},
{
closed = 1;
nodes = (
"283 122 OFFCURVE",
"259 156 OFFCURVE",
"259 231 CURVE SMOOTH",
"259 351 OFFCURVE",
"303 487 OFFCURVE",
"371 581 CURVE",
"290 528 LINE",
"342 550 OFFCURVE",
"371 558 OFFCURVE",
"407 558 CURVE SMOOTH",
"476 558 OFFCURVE",
"504 526 OFFCURVE",
"504 450 CURVE SMOOTH",
"504 402 OFFCURVE",
"483 291 OFFCURVE",
"464 236 CURVE SMOOTH",
"435 158 OFFCURVE",
"395 122 OFFCURVE",
"338 122 CURVE SMOOTH"
);
},
{
closed = 1;
nodes = (
"569 584 LINE",
"653 741 LINE",
"555 790 LINE",
"471 632 LINE"
);
}
);
width = 730;
}
);
leftKerningGroup = O;
rightKerningGroup = O;
},
{
color = 4;
glyphname = a;
lastChange = "2020-02-24 20:55:26 +0000";
layers = (
{
anchors = (
{
name = bottom;
position = "{242, 0}";
},
{
name = ogonek;
position = "{486, 10}";
},
{
name = top;
position = "{327, 517}";
}
);
layerId = "A6FDB8B9-512B-4F31-B986-CD5B604F5662";
paths = (
{
closed = 1;
nodes = (
"266 102 OFFCURVE",
"325 220 OFFCURVE",
"374 341 CURVE",
"345 371 LINE",
"307 283 OFFCURVE",
"260 202 OFFCURVE",
"202 130 CURVE",
"224 132 LINE",
"205 135 OFFCURVE",
"188 142 OFFCURVE",
"173 153 CURVE",
"180 137 LINE",
"193 239 OFFCURVE",
"219 336 OFFCURVE",
"259 430 CURVE",
"202 405 LINE",
"263 407 OFFCURVE",
"316 401 OFFCURVE",
"366 389 CURVE",
"367 444 LINE",
"355 496 OFFCURVE",
"317 526 OFFCURVE",
"263 526 CURVE SMOOTH",
"129 526 OFFCURVE",
"-3 343 OFFCURVE",
"-3 166 CURVE SMOOTH",
"-3 45 OFFCURVE",
"56 -7 OFFCURVE",
"171 -7 CURVE"
);
},
{
closed = 1;
nodes = (
"562 516 LINE",
"375 516 LINE",
"296 202 LINE",
"318 194 LINE",
"266 60 LINE",
"293 12 OFFCURVE",
"339 -9 OFFCURVE",
"387 -9 CURVE SMOOTH",
"462 -9 OFFCURVE",
"541 44 OFFCURVE",
"555 134 CURVE",
"509 140 OFFCURVE",
"466 138 OFFCURVE",
"424 130 CURVE",
"460 38 LINE"
);
}
);
width = 571;
},
{
anchors = (
{
name = bottom;
position = "{199, 0}";
},
{
name = ogonek;
position = "{401, 10}";
},
{
name = top;
position = "{273, 478}";
}
);
layerId = "0E5388DE-A0E6-4EB4-BC9B-CE5870C9023F";
paths = (
{
closed = 1;
nodes = (
"264 55 OFFCURVE",
"330 164 OFFCURVE",
"399 350 CURVE",
"385 359 LINE",
"312 168 OFFCURVE",
"239 55 OFFCURVE",
"160 11 CURVE",
"184 16 LINE",
"144 23 OFFCURVE",
"113 42 OFFCURVE",
"77 63 CURVE",
"103 40 LINE",
"36 215 OFFCURVE",
"117 441 OFFCURVE",
"258 470 CURVE",
"232 472 LINE",
"302 462 OFFCURVE",
"358 438 OFFCURVE",
"398 400 CURVE",
"399 410 LINE",
"373 458 OFFCURVE",
"326 486 OFFCURVE",
"271 486 CURVE SMOOTH",
"149 486 OFFCURVE",
"50 345 OFFCURVE",
"50 170 CURVE SMOOTH",
"50 45 OFFCURVE",
"101 -19 OFFCURVE",
"185 -2 CURVE"
);
},
{
closed = 1;
nodes = (
"434 478 LINE",
"405 478 LINE",
"358 251 LINE",
"361 250 LINE",
"313 51 LINE",
"318 16 OFFCURVE",
"336 -5 OFFCURVE",
"362 -5 CURVE SMOOTH",
"390 -5 OFFCURVE",
"419 21 OFFCURVE",
"433 60 CURVE",
"396 44 OFFCURVE",
"364 36 OFFCURVE",
"331 36 CURVE",
"339 21 LINE"
);
}
);
width = 497;
}
);
leftKerningGroup = o;
rightKerningGroup = n;
unicode = 0061;
},
{
color = 4;
glyphname = aacute;
lastChange = "2020-02-24 20:56:35 +0000";
layers = (
{
anchors = (
{
name = top;
position = "{388, 824}";
}
);
components = (
{
name = a;
}
);
layerId = "A6FDB8B9-512B-4F31-B986-CD5B604F5662";
paths = (
{
closed = 1;
nodes = (
"348 592 OFFCURVE",
"440 626 OFFCURVE",
"531 668 CURVE",
"457 815 LINE",
"430 815 LINE",
"211 637 LINE",
"253 564 LINE"
);
}
);
width = 571;
},
{
anchors = (
{
name = top;
position = "{318, 703}";
}
);
components = (
{
name = a;
}
);
layerId = "0E5388DE-A0E6-4EB4-BC9B-CE5870C9023F";
paths = (
{
closed = 1;
nodes = (
"299 602 OFFCURVE",
"354 640 OFFCURVE",
"409 681 CURVE",
"393 703 LINE",
"387 703 LINE",
"231 574 LINE",
"237 565 LINE"
);
}
);
width = 497;
}
);
leftKerningGroup = o;
rightKerningGroup = n;
unicode = 00E1;
},
{
color = 4;
glyphname = adieresis;
lastChange = "2020-02-24 20:56:35 +0000";
layers = (
{
anchors = (
{
name = top;
position = "{311, 668}";
}
);
components = (
{
name = a;
}
);
layerId = "0E5388DE-A0E6-4EB4-BC9B-CE5870C9023F";
paths = (
{
closed = 1;
nodes = (
"235 665 OFFCURVE",
"222 657 OFFCURVE",
"210 645 CURVE",
"213 633 OFFCURVE",
"221 620 OFFCURVE",
"232 607 CURVE",
"246 609 OFFCURVE",
"261 617 OFFCURVE",
"271 628 CURVE",
"269 642 OFFCURVE",
"262 656 OFFCURVE",
"250 668 CURVE"
);
},
{
closed = 1;
nodes = (
"364 665 OFFCURVE",
"350 657 OFFCURVE",
"339 645 CURVE",
"343 630 OFFCURVE",
"351 617 OFFCURVE",
"362 607 CURVE",
"375 609 OFFCURVE",
"388 616 OFFCURVE",
"400 628 CURVE",
"398 642 OFFCURVE",
"391 655 OFFCURVE",
"380 668 CURVE"
);
}
);
width = 497;
},
{
anchors = (
{
name = top;
position = "{385, 809}";
}
);
components = (
{
name = a;
}
);
layerId = "A6FDB8B9-512B-4F31-B986-CD5B604F5662";
paths = (
{
closed = 1;
nodes = (
"221 800 OFFCURVE",
"169 768 OFFCURVE",
"132 730 CURVE",
"141 673 OFFCURVE",
"174 618 OFFCURVE",
"215 585 CURVE",
"268 592 OFFCURVE",
"323 626 OFFCURVE",
"357 667 CURVE",
"349 721 OFFCURVE",
"318 772 OFFCURVE",
"276 809 CURVE"
);
},
{
closed = 1;
nodes = (
"457 800 OFFCURVE",
"405 768 OFFCURVE",
"368 730 CURVE",
"377 673 OFFCURVE",
"409 618 OFFCURVE",
"450 585 CURVE",
"504 592 OFFCURVE",
"559 626 OFFCURVE",
"593 667 CURVE",
"585 721 OFFCURVE",
"552 772 OFFCURVE",
"511 809 CURVE"
);
}
);
width = 571;
}
);
leftKerningGroup = o;
rightKerningGroup = n;
unicode = 00E4;
},
{
color = 4;
glyphname = agrave;
lastChange = "2020-02-24 20:56:35 +0000";
layers = (
{
anchors = (
{
name = top;
position = "{318, 703}";
}
);
components = (
{
name = a;
}
);
layerId = "0E5388DE-A0E6-4EB4-BC9B-CE5870C9023F";
paths = (
{
closed = 1;
nodes = (
"375 574 LINE",
"219 703 LINE",
"213 703 LINE",
"197 681 LINE",
"252 640 OFFCURVE",
"307 602 OFFCURVE",
"369 565 CURVE"
);
}
);
width = 497;
},
{
anchors = (
{
name = top;
position = "{388, 824}";
}
);
components = (
{
name = a;
}
);
layerId = "A6FDB8B9-512B-4F31-B986-CD5B604F5662";
paths = (
{
closed = 1;
nodes = (
"509 637 LINE",
"290 815 LINE",
"263 815 LINE",
"189 668 LINE",
"280 626 OFFCURVE",
"372 592 OFFCURVE",
"467 564 CURVE"
);
}
);
width = 571;
}
);
leftKerningGroup = o;
rightKerningGroup = n;
unicode = 00E0;
},
{
color = 4;
glyphname = aring;
lastChange = "2020-02-24 20:56:35 +0000";
layers = (
{
anchors = (
{
name = top;
position = "{303, 635}";
}
);
components = (
{
name = a;
}
);
layerId = "0E5388DE-A0E6-4EB4-BC9B-CE5870C9023F";
paths = (
{
closed = 1;
nodes = (
"339 567 OFFCURVE",
"374 602 OFFCURVE",
"374 645 CURVE SMOOTH",
"374 680 OFFCURVE",
"348 705 OFFCURVE",
"313 705 CURVE SMOOTH",
"270 705 OFFCURVE",
"235 670 OFFCURVE",
"235 628 CURVE SMOOTH",
"235 592 OFFCURVE",
"261 567 OFFCURVE",
"297 567 CURVE SMOOTH"
);
},
{
closed = 1;
nodes = (
"274 591 OFFCURVE",
"259 605 OFFCURVE",
"259 627 CURVE SMOOTH",
"259 657 OFFCURVE",
"283 681 OFFCURVE",
"313 681 CURVE SMOOTH",
"335 681 OFFCURVE",
"350 667 OFFCURVE",
"350 645 CURVE SMOOTH",
"350 615 OFFCURVE",
"326 591 OFFCURVE",
"297 591 CURVE SMOOTH"
);
}
);
width = 497;
},
{
anchors = (
{
name = top;
position = "{378, 802}";
}
);
components = (
{
name = a;
}
);
layerId = "A6FDB8B9-512B-4F31-B986-CD5B604F5662";
paths = (
{
closed = 1;
nodes = (
"436 556 OFFCURVE",
"507 628 OFFCURVE",
"507 715 CURVE SMOOTH",
"507 788 OFFCURVE",
"452 842 OFFCURVE",
"377 842 CURVE SMOOTH",
"291 842 OFFCURVE",
"219 770 OFFCURVE",
"219 683 CURVE SMOOTH",
"219 610 OFFCURVE",
"274 556 OFFCURVE",
"349 556 CURVE SMOOTH"
);
},
{
closed = 1;
nodes = (
"322 640 OFFCURVE",
"304 658 OFFCURVE",
"304 688 CURVE SMOOTH",
"304 727 OFFCURVE",
"335 758 OFFCURVE",
"373 758 CURVE SMOOTH",
"404 758 OFFCURVE",
"422 740 OFFCURVE",
"422 710 CURVE SMOOTH",
"422 671 OFFCURVE",
"392 640 OFFCURVE",
"353 640 CURVE SMOOTH"
);
}
);
width = 571;
}
);
leftKerningGroup = o;
rightKerningGroup = n;
unicode = 00E5;
},
{
color = 4;
glyphname = atilde;
lastChange = "2020-02-24 20:56:35 +0000";
layers = (
{
anchors = (
{
name = top;
position = "{314, 687}";
}
);
components = (
{
name = a;
}
);
layerId = "0E5388DE-A0E6-4EB4-BC9B-CE5870C9023F";
paths = (
{
closed = 1;
nodes = (
"239 641 LINE",
"345 612 LINE SMOOTH",
"371 605 OFFCURVE",
"381 612 OFFCURVE",
"439 680 CURVE",
"432 687 LINE",
"371 635 LINE",
"264 664 LINE SMOOTH",
"241 670 OFFCURVE",
"234 672 OFFCURVE",
"170 597 CURVE",
"177 589 LINE"
);
}
);
width = 497;
},
{
anchors = (
{
name = top;
position = "{386, 809}";
}
);
components = (
{
name = a;
}
);
layerId = "A6FDB8B9-512B-4F31-B986-CD5B604F5662";
paths = (
{
closed = 1;
nodes = (
"270 645 LINE",
"396 611 LINE SMOOTH",
"443 598 OFFCURVE",
"473 595 OFFCURVE",
"571 769 CURVE",
"529 809 LINE",
"457 755 LINE",
"331 789 LINE SMOOTH",
"278 803 OFFCURVE",
"252 797 OFFCURVE",
"157 631 CURVE",
"198 591 LINE"
);
}
);
width = 571;
}
);
leftKerningGroup = o;
rightKerningGroup = n;
unicode = 00E3;
},
{
color = 4;
glyphname = ae;
lastChange = "2020-02-24 20:55:26 +0000";
layers = (
{
anchors = (
{
name = bottom;
position = "{306, 0}";
},
{
name = top;
position = "{402, 478}";
}
);
layerId = "0E5388DE-A0E6-4EB4-BC9B-CE5870C9023F";
paths = (
{
closed = 1;
nodes = (
"241 38 OFFCURVE",
"280 104 OFFCURVE",
"395 350 CURVE",
"379 357 LINE",
"264 115 OFFCURVE",
"220 44 OFFCURVE",
"160 11 CURVE",
"184 17 LINE",
"149 24 OFFCURVE",
"117 38 OFFCURVE",
"77 64 CURVE",
"106 40 LINE",
"29 204 OFFCURVE",
"118 437 OFFCURVE",
"272 473 CURVE",
"229 470 LINE",
"314 463 OFFCURVE",
"372 442 OFFCURVE",
"421 402 CURVE",
"433 415 LINE",
"403 457 OFFCURVE",
"341 486 OFFCURVE",
"281 486 CURVE SMOOTH",
"148 486 OFFCURVE",
"50 353 OFFCURVE",
"50 173 CURVE SMOOTH",
"50 47 OFFCURVE",
"101 -19 OFFCURVE",
"185 -2 CURVE"
);
},
{
closed = 1;
nodes = (
"546 -7 OFFCURVE",
"607 37 OFFCURVE",
"642 112 CURVE",
"632 118 LINE",
"568 26 OFFCURVE",
"486 1 OFFCURVE",
"396 48 CURVE",
"319 198 OFFCURVE",
"386 407 OFFCURVE",
"527 460 CURVE",
"560 458 OFFCURVE",
"584 448 OFFCURVE",
"623 432 CURVE",
"629 416 OFFCURVE",
"632 400 OFFCURVE",
"632 386 CURVE SMOOTH",
"632 304 OFFCURVE",
"544 253 OFFCURVE",
"351 224 CURVE",
"351 197 LINE",
"557 226 OFFCURVE",
"665 290 OFFCURVE",
"665 383 CURVE SMOOTH",
"665 440 OFFCURVE",
"616 485 OFFCURVE",
"554 485 CURVE SMOOTH",
"437 485 OFFCURVE",
"333 343 OFFCURVE",
"333 183 CURVE SMOOTH",
"333 68 OFFCURVE",
"390 -7 OFFCURVE",
"477 -7 CURVE SMOOTH"
);
}
);
width = 706;
},
{
anchors = (
{
name = bottom;
position = "{334, 0}";
},
{
name = top;
position = "{438, 516}";
}
);
layerId = "A6FDB8B9-512B-4F31-B986-CD5B604F5662";
paths = (
{
closed = 1;
nodes = (
"241 54 OFFCURVE",
"310 166 OFFCURVE",
"375 341 CURVE",
"346 358 LINE",
"295 252 OFFCURVE",
"267 206 OFFCURVE",
"208 135 CURVE",
"237 153 LINE",
"211 153 OFFCURVE",
"198 156 OFFCURVE",
"182 166 CURVE",
"195 142 LINE",
"199 225 OFFCURVE",
"237 356 OFFCURVE",
"272 409 CURVE",
"204 396 LINE",
"267 397 OFFCURVE",
"327 390 OFFCURVE",
"384 376 CURVE",
"457 469 LINE",
"398 508 OFFCURVE",
"338 527 OFFCURVE",
"282 527 CURVE SMOOTH",
"130 527 OFFCURVE",
"4 394 OFFCURVE",
"4 190 CURVE SMOOTH",
"4 61 OFFCURVE",
"58 -7 OFFCURVE",
"161 -7 CURVE"
);
},
{
closed = 1;
nodes = (
"626 -15 OFFCURVE",
"718 53 OFFCURVE",
"750 157 CURVE",
"731 184 LINE",
"636 143 OFFCURVE",
"532 135 OFFCURVE",
"493 165 CURVE",
"493 277 OFFCURVE",
"507 343 OFFCURVE",
"543 399 CURVE",
"556 399 OFFCURVE",
"571 397 OFFCURVE",
"588 393 CURVE",
"589 385 OFFCURVE",
"589 378 OFFCURVE",
"589 371 CURVE SMOOTH",
"589 302 OFFCURVE",
"555 284 OFFCURVE",
"446 280 CURVE",
"446 212 LINE",
"623 188 OFFCURVE",
"773 264 OFFCURVE",
"773 380 CURVE SMOOTH",
"773 473 OFFCURVE",
"704 529 OFFCURVE",
"588 529 CURVE SMOOTH",
"423 529 OFFCURVE",
"304 400 OFFCURVE",
"304 223 CURVE SMOOTH",
"304 77 OFFCURVE",
"386 -15 OFFCURVE",
"516 -15 CURVE SMOOTH"
);
}
);
width = 772;
}
);
leftKerningGroup = o;
rightKerningGroup = e;
unicode = 00E6;
},
{
color = 4;
glyphname = b;
lastChange = "2020-02-24 20:55:26 +0000";
layers = (
{
anchors = (
{
name = bottom;
position = "{221, 0}";
},
{
name = top;
position = "{326, 516}";
}
);
layerId = "A6FDB8B9-512B-4F31-B986-CD5B604F5662";
paths = (
{
closed = 1;
nodes = (
"427 -12 OFFCURVE",
"555 171 OFFCURVE",
"555 348 CURVE SMOOTH",
"555 469 OFFCURVE",
"496 521 OFFCURVE",
"381 521 CURVE",
"286 412 OFFCURVE",
"227 294 OFFCURVE",
"178 173 CURVE",
"207 143 LINE",
"245 231 OFFCURVE",
"292 312 OFFCURVE",
"350 384 CURVE",
"328 382 LINE",
"347 379 OFFCURVE",
"364 372 OFFCURVE",
"379 361 CURVE",
"372 377 LINE",
"359 275 OFFCURVE",
"333 178 OFFCURVE",
"293 84 CURVE",
"350 111 LINE",
"284 107 OFFCURVE",
"226 118 OFFCURVE",
"171 140 CURVE",
"138 91 LINE",
"153 29 OFFCURVE",
"213 -12 OFFCURVE",
"282 -12 CURVE SMOOTH"
);
},
{
closed = 1;
nodes = (
"25 0 LINE",
"96 12 OFFCURVE",
"156 41 OFFCURVE",
"205 85 CURVE",
"252 312 LINE",
"235 320 LINE",
"292 506 LINE",
"345 769 LINE",
"151 709 LINE",
"-13 0 LINE"
);
},
{
closed = 1;
nodes = (
"345 769 LINE",
"245 773 OFFCURVE",
"153 755 OFFCURVE",
"70 716 CURVE",
"138 584 LINE"
);
}
);
width = 553;
},
{
anchors = (
{
name = bottom;
position = "{195, 0}";
},
{
name = top;
position = "{291, 478}";
}
);
layerId = "0E5388DE-A0E6-4EB4-BC9B-CE5870C9023F";
paths = (
{
closed = 1;
nodes = (
"337 -8 OFFCURVE",
"436 131 OFFCURVE",
"436 305 CURVE SMOOTH",
"436 431 OFFCURVE",
"386 496 OFFCURVE",
"301 480 CURVE",
"227 429 OFFCURVE",
"162 325 OFFCURVE",
"91 142 CURVE",
"105 130 LINE",
"171 310 OFFCURVE",
"247 426 OFFCURVE",
"326 466 CURVE",
"302 461 LINE",
"337 454 OFFCURVE",
"369 440 OFFCURVE",
"409 413 CURVE",
"380 437 LINE",
"456 288 OFFCURVE",
"372 52 OFFCURVE",
"228 10 CURVE",
"257 10 LINE",
"183 17 OFFCURVE",
"136 39 OFFCURVE",
"94 87 CURVE",
"85 67 LINE",
"115 17 OFFCURVE",
"158 -8 OFFCURVE",
"213 -8 CURVE SMOOTH"
);
},
{
closed = 1;
nodes = (
"55 0 LINE",
"72 19 OFFCURVE",
"81 35 OFFCURVE",
"95 71 CURVE",
"127 226 LINE",
"124 228 LINE",
"167 416 LINE",
"229 725 LINE",
"200 718 LINE",
"49 0 LINE"
);
},
{
closed = 1;
nodes = (
"229 725 LINE",
"190 725 OFFCURVE",
"156 720 OFFCURVE",
"106 708 CURVE",
"201 685 LINE"
);
}
);
width = 486;
}
);
leftKerningGroup = h;
rightKerningGroup = o;
unicode = 0062;
},
{
color = 4;
glyphname = c;
lastChange = "2020-02-24 20:55:26 +0000";
layers = (
{
anchors = (
{
name = bottom;
position = "{187, 0}";
},
{
name = top;
position = "{281, 516}";
}
);
background = {
paths = (
{
closed = 1;
nodes = (
"315 -15 OFFCURVE",
"394 61 OFFCURVE",
"405 179 CURVE",
"375 194 LINE",
"304 132 OFFCURVE",
"156 126 OFFCURVE",
"195 214 CURVE",
"195 99 LINE",
"194 220 OFFCURVE",
"222 348 OFFCURVE",
"268 445 CURVE",
"171 391 LINE",
"261 393 OFFCURVE",
"305 388 OFFCURVE",
"382 357 CURVE",
"448 502 LINE",
"408 519 OFFCURVE",
"356 529 OFFCURVE",
"305 529 CURVE SMOOTH",
"125 529 OFFCURVE",
"4 404 OFFCURVE",
"4 217 CURVE SMOOTH",
"4 66 OFFCURVE",
"74 -15 OFFCURVE",
"204 -15 CURVE SMOOTH"
);
},
{
closed = 1;
nodes = (
"410 291 LINE",
"448 502 LINE",
"274 502 LINE",
"321 291 LINE"
);
}
);
};
layerId = "A6FDB8B9-512B-4F31-B986-CD5B604F5662";
paths = (
{
closed = 1;
nodes = (
"315 -15 OFFCURVE",
"394 61 OFFCURVE",
"405 179 CURVE",
"375 194 LINE",
"338 164 OFFCURVE",
"290 148 OFFCURVE",
"251 148 CURVE SMOOTH",
"217 148 OFFCURVE",
"189 160 OFFCURVE",
"182 184 CURVE",
"195 99 LINE",
"194 220 OFFCURVE",
"222 348 OFFCURVE",
"268 445 CURVE",
"171 393 LINE",
"247 395 OFFCURVE",
"318 385 OFFCURVE",
"382 357 CURVE",
"448 502 LINE",
"408 519 OFFCURVE",
"356 529 OFFCURVE",
"305 529 CURVE SMOOTH",
"125 529 OFFCURVE",
"4 404 OFFCURVE",
"4 217 CURVE SMOOTH",
"4 66 OFFCURVE",
"74 -15 OFFCURVE",
"204 -15 CURVE SMOOTH"
);
},
{
closed = 1;
nodes = (
"410 291 LINE",
"448 502 LINE",
"274 502 LINE",
"321 291 LINE"
);
}
);
width = 442;
},
{
anchors = (
{
name = bottom;
position = "{183, 0}";
},
{
name = top;
position = "{252, 478}";
}
);
background = {
paths = (
{
closed = 1;
nodes = (
"257 -7 OFFCURVE",
"318 42 OFFCURVE",
"343 114 CURVE",
"333 120 LINE",
"275 21 OFFCURVE",
"201 0 OFFCURVE",
"100 54 CURVE",
"114 40 LINE",
"35 197 OFFCURVE",
"103 421 OFFCURVE",
"246 465 CURVE",
"228 463 LINE",
"279 460 OFFCURVE",
"325 442 OFFCURVE",
"361 429 CURVE",
"375 457 LINE",
"349 474 OFFCURVE",
"306 485 OFFCURVE",
"266 485 CURVE SMOOTH",
"146 485 OFFCURVE",
"49 356 OFFCURVE",
"49 196 CURVE SMOOTH",
"49 74 OFFCURVE",
"107 -7 OFFCURVE",
"193 -7 CURVE SMOOTH"
);
},
{
closed = 1;
nodes = (
"351 329 LINE",
"375 457 LINE",
"333 458 LINE",
"340 329 LINE"
);
}
);
};
layerId = "0E5388DE-A0E6-4EB4-BC9B-CE5870C9023F";
paths = (
{
closed = 1;
nodes = (
"257 -7 OFFCURVE",
"318 42 OFFCURVE",
"343 114 CURVE",
"333 120 LINE",
"296 56 OFFCURVE",
"252 25 OFFCURVE",
"198 25 CURVE SMOOTH",
"169 25 OFFCURVE",
"136 35 OFFCURVE",
"100 54 CURVE",
"114 40 LINE",
"39 187 OFFCURVE",
"97 420 OFFCURVE",
"246 465 CURVE",
"223 465 LINE",
"272 459 OFFCURVE",
"318 447 OFFCURVE",
"361 429 CURVE",
"375 457 LINE",
"349 474 OFFCURVE",
"306 485 OFFCURVE",
"266 485 CURVE SMOOTH",
"146 485 OFFCURVE",
"49 356 OFFCURVE",
"49 196 CURVE SMOOTH",
"49 74 OFFCURVE",
"107 -7 OFFCURVE",
"193 -7 CURVE SMOOTH"
);
},
{
closed = 1;
nodes = (
"351 329 LINE",
"375 457 LINE",
"333 458 LINE",
"340 329 LINE"
);
}
);
width = 410;
}
);
leftKerningGroup = o;
rightKerningGroup = c;
unicode = 0063;
},
{
color = 4;
glyphname = ccedilla;
lastChange = "2020-02-24 20:56:35 +0000";
layers = (
{
anchors = (
{
name = _bottom;
position = "{183, 0}";
},
{
name = bottom;
position = "{171, -206}";
}
);
components = (
{
name = c;
}
);
layerId = "0E5388DE-A0E6-4EB4-BC9B-CE5870C9023F";
paths = (
{
closed = 1;
nodes = (
"178 -223 OFFCURVE",
"257 -192 OFFCURVE",
"257 -129 CURVE SMOOTH",
"257 -95 OFFCURVE",
"229 -71 OFFCURVE",
"164 -49 CURVE",
"149 -72 LINE",
"210 -94 OFFCURVE",
"233 -111 OFFCURVE",
"233 -135 CURVE SMOOTH",
"233 -150 OFFCURVE",
"222 -170 OFFCURVE",
"207 -181 CURVE",
"99 -175 LINE",
"97 -192 LINE"
);
},
{
closed = 1;
nodes = (
"149 -72 LINE",
"171 -72 LINE",
"198 11 LINE",
"176 11 LINE"
);
}
);
width = 410;
},
{
anchors = (
{
name = _bottom;
position = "{187, 0}";
},
{
name = bottom;
position = "{174, -259}";
}
);
components = (
{
name = c;
}
);
layerId = "A6FDB8B9-512B-4F31-B986-CD5B604F5662";
paths = (
{
closed = 1;
nodes = (
"212 -279 OFFCURVE",
"320 -233 OFFCURVE",
"320 -130 CURVE SMOOTH",
"320 -75 OFFCURVE",
"278 -43 OFFCURVE",
"171 -17 CURVE",
"113 -110 LINE",
"197 -141 OFFCURVE",
"214 -150 OFFCURVE",
"214 -161 CURVE SMOOTH",
"214 -163 OFFCURVE",
"213 -166 OFFCURVE",
"211 -168 CURVE",
"71 -144 LINE",
"57 -241 LINE"
);
},
{
closed = 1;
nodes = (
"113 -110 LINE",
"186 -110 LINE",
"235 19 LINE",
"159 19 LINE"
);
}
);
width = 442;
}
);
leftKerningGroup = o;
rightKerningGroup = c;
unicode = 00E7;
},
{
color = 4;
glyphname = d;
lastChange = "2020-02-24 20:55:26 +0000";
layers = (
{
anchors = (
{
name = bottom;
position = "{227, 0}";
},
{
name = center;
position = "{470, 603}";
},
{
name = top;
position = "{331, 516}";
},
{
name = topright;
position = "{705, 769}";
}
);
layerId = "A6FDB8B9-512B-4F31-B986-CD5B604F5662";
paths = (
{
closed = 1;
nodes = (
"607 769 LINE",
"413 709 LINE",
"298 202 LINE",
"320 194 LINE",
"268 60 LINE",
"295 12 OFFCURVE",
"341 -9 OFFCURVE",
"388 -9 CURVE SMOOTH",
"462 -9 OFFCURVE",
"540 44 OFFCURVE",
"554 134 CURVE",
"509 138 OFFCURVE",
"470 137 OFFCURVE",
"423 130 CURVE",
"461 40 LINE"
);
},
{
closed = 1;
nodes = (
"266 102 OFFCURVE",
"325 220 OFFCURVE",
"374 341 CURVE",
"345 371 LINE",
"307 283 OFFCURVE",
"260 202 OFFCURVE",
"202 130 CURVE",
"224 132 LINE",
"205 135 OFFCURVE",
"188 142 OFFCURVE",
"173 153 CURVE",
"180 137 LINE",
"193 239 OFFCURVE",
"219 336 OFFCURVE",
"259 430 CURVE",
"202 405 LINE",
"263 407 OFFCURVE",
"316 401 OFFCURVE",
"366 389 CURVE",
"367 444 LINE",
"355 496 OFFCURVE",
"317 526 OFFCURVE",
"263 526 CURVE SMOOTH",
"129 526 OFFCURVE",
"-3 343 OFFCURVE",
"-3 166 CURVE SMOOTH",
"-3 45 OFFCURVE",
"56 -7 OFFCURVE",
"171 -7 CURVE"
);
},
{
closed = 1;
nodes = (
"607 769 LINE",
"509 773 OFFCURVE",
"417 756 OFFCURVE",
"332 716 CURVE",
"400 584 LINE"
);
},
{
closed = 1;
nodes = (
"511 783 LINE",
"511 784 LINE",
"510 784 LINE"
);
}
);
width = 569;
},
{
anchors = (
{
name = bottom;
position = "{201, 0}";
},
{
name = center;
position = "{386, 568}";
},
{
name = top;
position = "{297, 478}";
},
{
name = topright;
position = "{578, 725}";
}
);
layerId = "0E5388DE-A0E6-4EB4-BC9B-CE5870C9023F";
paths = (
{
closed = 1;
nodes = (
"484 725 LINE",
"455 718 LINE",
"359 252 LINE",
"362 251 LINE",
"314 51 LINE",
"319 16 OFFCURVE",
"337 -5 OFFCURVE",
"363 -5 CURVE SMOOTH",
"391 -5 OFFCURVE",
"420 21 OFFCURVE",
"434 60 CURVE",
"401 44 OFFCURVE",
"367 36 OFFCURVE",
"333 36 CURVE",
"340 21 LINE"
);
},
{
closed = 1;
nodes = (
"264 55 OFFCURVE",
"330 164 OFFCURVE",
"399 350 CURVE",
"385 359 LINE",
"312 168 OFFCURVE",
"239 55 OFFCURVE",
"160 11 CURVE",
"184 16 LINE",
"144 23 OFFCURVE",
"113 42 OFFCURVE",
"77 63 CURVE",
"103 40 LINE",
"36 215 OFFCURVE",
"117 441 OFFCURVE",
"258 470 CURVE",
"232 472 LINE",
"302 462 OFFCURVE",
"358 438 OFFCURVE",
"398 400 CURVE",
"399 410 LINE",
"373 458 OFFCURVE",
"326 486 OFFCURVE",
"271 486 CURVE SMOOTH",
"149 486 OFFCURVE",
"50 345 OFFCURVE",
"50 170 CURVE SMOOTH",
"50 45 OFFCURVE",
"101 -19 OFFCURVE",
"185 -2 CURVE"
);
},
{
closed = 1;
nodes = (
"484 725 LINE",
"445 725 OFFCURVE",
"411 720 OFFCURVE",
"361 708 CURVE",
"456 685 LINE"
);
},
{
closed = 1;
nodes = (
"471 783 LINE",
"471 784 LINE",
"470 784 LINE"
);
}
);
width = 500;
}
);
leftKerningGroup = o;
rightKerningGroup = d;
unicode = 0064;
},
{
color = 4;
glyphname = eth;
lastChange = "2020-02-24 20:55:26 +0000";
layers = (
{
layerId = "A6FDB8B9-512B-4F31-B986-CD5B604F5662";
paths = (
{
closed = 1;
nodes = (
"404 -15 OFFCURVE",
"506 148 OFFCURVE",
"506 333 CURVE SMOOTH",
"506 498 OFFCURVE",
"425 682 OFFCURVE",
"256 781 CURVE",
"166 735 LINE",
"263 628 OFFCURVE",
"312 499 OFFCURVE",
"312 365 CURVE SMOOTH",
"312 279 OFFCURVE",
"292 194 OFFCURVE",
"253 111 CURVE",
"240 109 OFFCURVE",
"224 114 OFFCURVE",
"195 123 CURVE",
"192 207 OFFCURVE",
"223 329 OFFCURVE",
"252 385 CURVE",
"298 379 OFFCURVE",
"342 366 OFFCURVE",
"392 346 CURVE",
"391 478 LINE",
"361 503 OFFCURVE",
"319 516 OFFCURVE",
"269 516 CURVE SMOOTH",
"115 516 OFFCURVE",
"3 398 OFFCURVE",
"3 214 CURVE SMOOTH",
"3 69 OFFCURVE",
"80 -15 OFFCURVE",
"215 -15 CURVE SMOOTH"
);
},
{
closed = 1;
nodes = (
"540 670 LINE",
"511 754 LINE",
"92 611 LINE",
"121 528 LINE"
);
}
);
width = 514;
},
{
layerId = "0E5388DE-A0E6-4EB4-BC9B-CE5870C9023F";
paths = (
{
closed = 1;
nodes = (
"317 -7 OFFCURVE",
"406 129 OFFCURVE",
"406 321 CURVE SMOOTH",
"406 484 OFFCURVE",
"349 619 OFFCURVE",
"232 733 CURVE",
"213 716 LINE",
"314 608 OFFCURVE",
"376 453 OFFCURVE",
"376 311 CURVE SMOOTH",
"376 166 OFFCURVE",
"313 51 OFFCURVE",
"214 16 CURVE",
"163 23 OFFCURVE",
"130 45 OFFCURVE",
"100 62 CURVE",
"41 211 OFFCURVE",
"112 413 OFFCURVE",
"239 455 CURVE",
"310 443 OFFCURVE",
"334 431 OFFCURVE",
"386 413 CURVE",
"386 425 LINE",
"365 455 OFFCURVE",
"312 478 OFFCURVE",
"266 478 CURVE SMOOTH",
"145 478 OFFCURVE",
"48 348 OFFCURVE",
"48 186 CURVE SMOOTH",
"48 67 OFFCURVE",
"102 -7 OFFCURVE",
"190 -7 CURVE SMOOTH"
);
},
{
closed = 1;
nodes = (
"434 633 LINE",
"427 655 LINE",
"163 567 LINE",
"170 545 LINE"
);
}
);
width = 465;
}
);
leftKerningGroup = o;
unicode = 00F0;
},
{
color = 4;
glyphname = e;
lastChange = "2020-02-24 20:55:26 +0000";
layers = (
{
anchors = (
{
name = bottom;
position = "{191, 0}";
},
{
name = ogonek;
position = "{395, 10}";
},
{
name = top;
position = "{260, 515}";
}
);
background = {
paths = (
{
closed = 1;
nodes = (
"324 -15 OFFCURVE",
"416 53 OFFCURVE",
"448 157 CURVE",
"429 184 LINE",
"334 143 OFFCURVE",
"230 135 OFFCURVE",
"191 165 CURVE",
"191 292 OFFCURVE",
"207 353 OFFCURVE",
"252 414 CURVE",
"199 400 LINE",
"244 402 OFFCURVE",
"289 396 OFFCURVE",
"329 381 CURVE",
"275 432 LINE",
"283 415 OFFCURVE",
"287 392 OFFCURVE",
"287 371 CURVE SMOOTH",
"287 302 OFFCURVE",
"253 284 OFFCURVE",
"144 280 CURVE",
"144 212 LINE",
"321 188 OFFCURVE",
"471 264 OFFCURVE",
"471 380 CURVE SMOOTH",
"471 473 OFFCURVE",
"402 529 OFFCURVE",
"286 529 CURVE SMOOTH",
"121 529 OFFCURVE",
"2 400 OFFCURVE",
"2 223 CURVE SMOOTH",
"2 77 OFFCURVE",
"84 -15 OFFCURVE",
"214 -15 CURVE SMOOTH"
);
}
);
};
layerId = "A6FDB8B9-512B-4F31-B986-CD5B604F5662";
paths = (
{
closed = 1;
nodes = (
"324 -15 OFFCURVE",
"416 53 OFFCURVE",
"448 157 CURVE",
"429 184 LINE",
"372 159 OFFCURVE",
"316 147 OFFCURVE",
"270 147 CURVE SMOOTH",
"220 147 OFFCURVE",
"181 161 OFFCURVE",
"164 189 CURVE",
"192 115 LINE",
"191 135 OFFCURVE",
"191 153 OFFCURVE",
"191 170 CURVE SMOOTH",
"191 294 OFFCURVE",
"208 354 OFFCURVE",
"252 414 CURVE",
"199 400 LINE",
"244 402 OFFCURVE",
"289 396 OFFCURVE",
"329 381 CURVE",
"275 432 LINE",
"283 415 OFFCURVE",
"287 392 OFFCURVE",
"287 371 CURVE SMOOTH",
"287 302 OFFCURVE",
"253 284 OFFCURVE",
"144 280 CURVE",
"144 212 LINE",
"321 188 OFFCURVE",
"471 264 OFFCURVE",
"471 380 CURVE SMOOTH",
"471 473 OFFCURVE",
"402 529 OFFCURVE",
"286 529 CURVE SMOOTH",
"121 529 OFFCURVE",
"2 400 OFFCURVE",
"2 223 CURVE SMOOTH",
"2 77 OFFCURVE",
"84 -15 OFFCURVE",
"214 -15 CURVE SMOOTH"
);
}
);
width = 470;
},
{
anchors = (
{
name = bottom;
position = "{176, 0}";
},
{
name = ogonek;
position = "{294, 10}";
},
{
name = top;
position = "{244, 470}";
}
);
background = {
paths = (
{
closed = 1;
nodes = (
"259 -7 OFFCURVE",
"320 37 OFFCURVE",
"355 112 CURVE",
"345 118 LINE",
"281 26 OFFCURVE",
"199 1 OFFCURVE",
"109 48 CURVE",
"32 198 OFFCURVE",
"99 407 OFFCURVE",
"240 460 CURVE",
"273 458 OFFCURVE",
"297 448 OFFCURVE",
"336 432 CURVE",
"342 416 OFFCURVE",
"345 400 OFFCURVE",
"345 386 CURVE SMOOTH",
"345 304 OFFCURVE",
"257 253 OFFCURVE",
"64 224 CURVE",
"64 197 LINE",
"270 226 OFFCURVE",
"378 290 OFFCURVE",
"378 383 CURVE SMOOTH",
"378 440 OFFCURVE",
"329 485 OFFCURVE",
"267 485 CURVE SMOOTH",
"150 485 OFFCURVE",
"46 343 OFFCURVE",
"46 183 CURVE SMOOTH",
"46 68 OFFCURVE",
"103 -7 OFFCURVE",
"190 -7 CURVE SMOOTH"
);
},
{
closed = 1;
nodes = (
"-21 217 LINE",
"0 330 LINE",
"-19 333 LINE",
"-37 303 OFFCURVE",
"-48 272 OFFCURVE",
"-48 246 CURVE SMOOTH",
"-48 216 OFFCURVE",
"-29 199 OFFCURVE",
"12 199 CURVE"
);
},
{
closed = 1;
nodes = (
"65 224 LINE",
"-35 220 LINE",
"12 199 LINE",
"65 199 LINE"
);
}
);
};
layerId = "0E5388DE-A0E6-4EB4-BC9B-CE5870C9023F";
paths = (
{
closed = 1;
nodes = (
"259 -7 OFFCURVE",
"320 37 OFFCURVE",
"355 112 CURVE",
"345 118 LINE",
"302 56 OFFCURVE",
"251 25 OFFCURVE",
"195 25 CURVE SMOOTH",
"165 25 OFFCURVE",
"133 34 OFFCURVE",
"100 53 CURVE",
"113 40 LINE",
"88 85 OFFCURVE",
"76 136 OFFCURVE",
"76 187 CURVE SMOOTH",
"76 308 OFFCURVE",
"143 428 OFFCURVE",
"248 463 CURVE",
"231 460 LINE",
"273 457 OFFCURVE",
"311 446 OFFCURVE",
"347 428 CURVE",
"332 441 LINE",
"341 422 OFFCURVE",
"345 403 OFFCURVE",
"345 386 CURVE SMOOTH",
"345 304 OFFCURVE",
"257 253 OFFCURVE",
"64 224 CURVE",
"64 197 LINE",
"270 226 OFFCURVE",
"378 290 OFFCURVE",
"378 383 CURVE SMOOTH",
"378 440 OFFCURVE",
"329 485 OFFCURVE",
"267 485 CURVE SMOOTH",
"150 485 OFFCURVE",
"46 343 OFFCURVE",
"46 183 CURVE SMOOTH",
"46 68 OFFCURVE",
"103 -7 OFFCURVE",
"190 -7 CURVE SMOOTH"
);
}
);
width = 419;
}
);
leftKerningGroup = o;
rightKerningGroup = e;
unicode = 0065;
},
{
color = 4;
glyphname = eacute;
lastChange = "2020-02-24 20:56:35 +0000";
layers = (
{
anchors = (
{
name = top;
position = "{321, 822}";
}
);
components = (
{
name = e;
}
);
layerId = "A6FDB8B9-512B-4F31-B986-CD5B604F5662";
paths = (
{
closed = 1;
nodes = (
"281 590 OFFCURVE",
"373 624 OFFCURVE",
"464 666 CURVE",
"390 813 LINE",
"363 813 LINE",
"144 635 LINE",
"186 562 LINE"
);
}
);
width = 470;
},
{
anchors = (
{
name = top;
position = "{289, 695}";
}
);
components = (
{
name = e;
}
);
layerId = "0E5388DE-A0E6-4EB4-BC9B-CE5870C9023F";
paths = (
{
closed = 1;
nodes = (
"270 594 OFFCURVE",
"325 632 OFFCURVE",
"380 673 CURVE",
"364 695 LINE",
"358 695 LINE",
"202 566 LINE",
"208 557 LINE"
);
}
);
width = 419;
}
);
leftKerningGroup = o;
rightKerningGroup = e;
unicode = 00E9;
},
{
color = 4;
glyphname = edieresis;
lastChange = "2020-02-24 20:56:35 +0000";
layers = (
{
anchors = (
{
name = top;
position = "{282, 660}";
}
);
components = (
{
name = e;
}
);
layerId = "0E5388DE-A0E6-4EB4-BC9B-CE5870C9023F";
paths = (
{
closed = 1;
nodes = (
"206 657 OFFCURVE",
"193 649 OFFCURVE",
"181 637 CURVE",
"184 625 OFFCURVE",
"192 612 OFFCURVE",
"203 599 CURVE",
"217 601 OFFCURVE",
"232 609 OFFCURVE",
"242 620 CURVE",
"240 634 OFFCURVE",
"233 648 OFFCURVE",
"221 660 CURVE"
);
},
{
closed = 1;
nodes = (
"335 657 OFFCURVE",
"321 649 OFFCURVE",
"310 637 CURVE",
"314 622 OFFCURVE",
"322 609 OFFCURVE",
"333 599 CURVE",
"346 601 OFFCURVE",
"359 608 OFFCURVE",
"371 620 CURVE",
"369 634 OFFCURVE",
"362 647 OFFCURVE",
"351 660 CURVE"
);
}
);
width = 419;
},
{
anchors = (
{
name = top;
position = "{318, 807}";
}
);
components = (
{
name = e;
}
);
layerId = "A6FDB8B9-512B-4F31-B986-CD5B604F5662";
paths = (
{
closed = 1;
nodes = (
"154 798 OFFCURVE",
"102 766 OFFCURVE",
"65 728 CURVE",
"74 671 OFFCURVE",
"107 616 OFFCURVE",
"148 583 CURVE",
"201 590 OFFCURVE",
"256 624 OFFCURVE",
"290 665 CURVE",
"282 719 OFFCURVE",
"251 770 OFFCURVE",
"209 807 CURVE"
);
},
{
closed = 1;
nodes = (
"390 798 OFFCURVE",
"338 766 OFFCURVE",
"301 728 CURVE",
"310 671 OFFCURVE",
"342 616 OFFCURVE",
"383 583 CURVE",
"437 590 OFFCURVE",
"492 624 OFFCURVE",
"526 665 CURVE",
"518 719 OFFCURVE",
"485 770 OFFCURVE",
"444 807 CURVE"
);
}
);
width = 470;
}
);
leftKerningGroup = o;
rightKerningGroup = e;
unicode = 00EB;
},
{
color = 4;
glyphname = egrave;
lastChange = "2020-02-24 20:56:35 +0000";
layers = (
{
anchors = (
{
name = top;
position = "{289, 695}";
}
);
components = (
{
name = e;
}
);
layerId = "0E5388DE-A0E6-4EB4-BC9B-CE5870C9023F";
paths = (
{
closed = 1;
nodes = (
"346 566 LINE",
"190 695 LINE",
"184 695 LINE",
"168 673 LINE",
"223 632 OFFCURVE",
"278 594 OFFCURVE",
"340 557 CURVE"
);
}
);
width = 419;
},
{
anchors = (
{
name = top;
position = "{321, 822}";
}
);
components = (
{
name = e;
}
);
layerId = "A6FDB8B9-512B-4F31-B986-CD5B604F5662";
paths = (
{
closed = 1;
nodes = (
"442 635 LINE",
"223 813 LINE",
"196 813 LINE",
"122 666 LINE",
"213 624 OFFCURVE",
"305 590 OFFCURVE",
"400 562 CURVE"
);
}
);
width = 470;
}
);
leftKerningGroup = o;
rightKerningGroup = e;
unicode = 00E8;
},
{
color = 4;
glyphname = f;
lastChange = "2020-02-24 20:55:26 +0000";
layers = (
{
layerId = "A6FDB8B9-512B-4F31-B986-CD5B604F5662";
rightMetricsKey = "=-48";
paths = (
{
closed = 1;
nodes = (
"108 -205 OFFCURVE",
"200 -48 OFFCURVE",
"242 227 CURVE SMOOTH",
"284 503 LINE",
"277 551 OFFCURVE",
"275 581 OFFCURVE",
"276 605 CURVE",
"333 608 OFFCURVE",
"382 608 OFFCURVE",
"441 605 CURVE",
"471 702 OFFCURVE",
"417 778 OFFCURVE",
"319 778 CURVE SMOOTH",
"217 778 OFFCURVE",
"123 694 OFFCURVE",
"110 590 CURVE SMOOTH",
"61 205 LINE SMOOTH",
"52 131 OFFCURVE",
"47 88 OFFCURVE",
"41 -31 CURVE",
"-15 -35 OFFCURVE",
"-69 -35 OFFCURVE",
"-129 -31 CURVE",
"-163 -130 OFFCURVE",
"-113 -205 OFFCURVE",
"-23 -205 CURVE SMOOTH"
);
},
{
closed = 1;
nodes = (
"371 400 LINE",
"392 509 LINE",
"104 509 LINE",
"70 498 OFFCURVE",
"40 483 OFFCURVE",
"9 462 CURVE",
"-4 400 LINE"
);
}
);
width = 325;
},
{
layerId = "0E5388DE-A0E6-4EB4-BC9B-CE5870C9023F";
rightMetricsKey = "=-32";
paths = (
{
closed = 1;
nodes = (
"39 -208 OFFCURVE",
"80 -155 OFFCURVE",
"103 -12 CURVE SMOOTH",
"181 475 LINE",
"200 618 OFFCURVE",
"205 642 OFFCURVE",
"226 686 CURVE",
"281 692 OFFCURVE",
"340 694 OFFCURVE",
"401 692 CURVE",
"387 716 OFFCURVE",
"352 732 OFFCURVE",
"312 732 CURVE SMOOTH",
"241 732 OFFCURVE",
"184 684 OFFCURVE",
"173 615 CURVE SMOOTH",
"74 -10 LINE SMOOTH",
"62 -84 OFFCURVE",
"54 -117 OFFCURVE",
"37 -162 CURVE",
"-22 -165 OFFCURVE",
"-75 -167 OFFCURVE",
"-135 -167 CURVE",
"-123 -190 OFFCURVE",
"-84 -208 OFFCURVE",
"-47 -208 CURVE SMOOTH"
);
},
{
closed = 1;
nodes = (
"339 452 LINE",
"344 478 LINE",
"154 478 LINE SMOOTH",
"116 478 OFFCURVE",
"85 472 OFFCURVE",
"57 459 CURVE",
"56 452 LINE"
);
}
);
width = 278;
}
);
leftKerningGroup = f;
rightKerningGroup = f;
unicode = 0066;
},
{
color = 4;
glyphname = g;
lastChange = "2020-02-24 20:55:26 +0000";
layers = (
{
anchors = (
{
name = bottom;
position = "{207, -196}";
},
{
name = top;
position = "{310, 516}";
}
);
layerId = "A6FDB8B9-512B-4F31-B986-CD5B604F5662";
leftMetricsKey = "=-2";
rightMetricsKey = "=-6";
paths = (
{
closed = 1;
nodes = (
"387 -207 OFFCURVE",
"524 -127 OFFCURVE",
"524 -23 CURVE SMOOTH",
"524 35 OFFCURVE",
"485 72 OFFCURVE",
"407 90 CURVE SMOOTH",
"237 129 LINE",
"237 178 LINE",
"160 181 OFFCURVE",
"110 128 OFFCURVE",
"110 68 CURVE SMOOTH",
"110 39 OFFCURVE",
"122 8 OFFCURVE",
"150 -18 CURVE",
"333 -63 LINE",
"333 -85 OFFCURVE",
"296 -102 OFFCURVE",
"247 -102 CURVE SMOOTH",
"163 -102 OFFCURVE",
"112 -53 OFFCURVE",
"106 33 CURVE",
"35 16 OFFCURVE",
"-21 -21 OFFCURVE",
"-70 -84 CURVE",
"-31 -160 OFFCURVE",
"76 -207 OFFCURVE",
"209 -207 CURVE SMOOTH"
);
},
{
closed = 1;
nodes = (
"400 150 OFFCURVE",
"510 231 OFFCURVE",
"510 346 CURVE SMOOTH",
"510 449 OFFCURVE",
"422 516 OFFCURVE",
"287 516 CURVE SMOOTH",
"134 516 OFFCURVE",
"22 432 OFFCURVE",
"22 316 CURVE SMOOTH",
"22 215 OFFCURVE",
"110 150 OFFCURVE",
"246 150 CURVE SMOOTH"
);
},
{
closed = 1;
nodes = (
"261 241 OFFCURVE",
"241 242 OFFCURVE",
"221 245 CURVE",
"219 304 OFFCURVE",
"229 361 OFFCURVE",
"251 416 CURVE",
"276 417 OFFCURVE",
"295 416 OFFCURVE",
"312 412 CURVE",
"315 354 OFFCURVE",
"305 298 OFFCURVE",
"281 242 CURVE"
);
},
{
closed = 1;
nodes = (
"505 406 LINE",
"576 388 LINE",
"599 516 LINE",
"287 516 LINE",
"480 364 LINE"
);
}
);
width = 576;
},
{
anchors = (
{
name = bottom;
position = "{175, -195}";
},
{
name = top;
position = "{260, 478}";
}
);
layerId = "0E5388DE-A0E6-4EB4-BC9B-CE5870C9023F";
leftMetricsKey = "=38";
rightMetricsKey = "=7";
paths = (
{
closed = 1;
nodes = (
"301 -201 OFFCURVE",
"394 -144 OFFCURVE",
"394 -68 CURVE SMOOTH",
"394 -22 OFFCURVE",
"361 13 OFFCURVE",
"300 33 CURVE SMOOTH",
"191 69 LINE",
"192 170 LINE",
"171 152 OFFCURVE",
"159 126 OFFCURVE",
"159 101 CURVE SMOOTH",
"159 79 OFFCURVE",
"168 57 OFFCURVE",
"186 38 CURVE",
"336 -12 LINE",
"402 -91 OFFCURVE",
"323 -176 OFFCURVE",
"183 -176 CURVE SMOOTH",
"41 -176 OFFCURVE",
"-28 -97 OFFCURVE",
"29 1 CURVE",
"14 -2 OFFCURVE",
"16 -2 OFFCURVE",
"-10 -19 CURVE",
"-55 -119 OFFCURVE",
"30 -201 OFFCURVE",
"178 -201 CURVE SMOOTH"
);
},
{
closed = 1;
nodes = (
"309 157 OFFCURVE",
"393 239 OFFCURVE",
"393 335 CURVE SMOOTH",
"393 419 OFFCURVE",
"335 478 OFFCURVE",
"254 478 CURVE SMOOTH",
"153 478 OFFCURVE",
"67 396 OFFCURVE",
"67 298 CURVE SMOOTH",
"67 215 OFFCURVE",
"126 157 OFFCURVE",
"210 157 CURVE SMOOTH"
);
},
{
closed = 1;
nodes = (
"208 178 OFFCURVE",
"176 186 OFFCURVE",
"125 205 CURVE",
"68 297 OFFCURVE",
"117 419 OFFCURVE",
"227 458 CURVE",
"266 454 OFFCURVE",
"301 442 OFFCURVE",
"336 431 CURVE",
"392 340 OFFCURVE",
"342 216 OFFCURVE",
"233 177 CURVE"
);
},
{
closed = 1;
nodes = (
"331 462 LINE",
"433 445 LINE",
"442 478 LINE",
"254 478 LINE",
"323 441 LINE"
);
}
);
width = 464;
}
);
leftKerningGroup = g;
rightKerningGroup = g;
unicode = 0067;
},
{
color = 4;
glyphname = h;
lastChange = "2020-02-24 20:55:26 +0000";
layers = (
{
anchors = (
{
name = bottom;
position = "{241, 0}";
},
{
name = center;
position = "{237, 603}";
},
{
name = top;
position = "{231, 739}";
}
);
layerId = "A6FDB8B9-512B-4F31-B986-CD5B604F5662";
paths = (
{
closed = 1;
nodes = (
"224 182 OFFCURVE",
"278 282 OFFCURVE",
"355 379 CURVE",
"322 367 LINE",
"345 363 OFFCURVE",
"361 354 OFFCURVE",
"376 339 CURVE",
"360 363 LINE",
"280 60 LINE",
"307 12 OFFCURVE",
"353 -9 OFFCURVE",
"401 -9 CURVE SMOOTH",
"477 -9 OFFCURVE",
"556 44 OFFCURVE",
"571 134 CURVE",
"549 137 OFFCURVE",
"536 136 OFFCURVE",
"500 135 CURVE",
"554 365 LINE SMOOTH",
"577 463 OFFCURVE",
"532 521 OFFCURVE",
"436 521 CURVE SMOOTH",
"423 521 OFFCURVE",
"410 520 OFFCURVE",
"396 518 CURVE",
"329 467 OFFCURVE",
"229 295 OFFCURVE",
"167 126 CURVE",
"181 52 LINE"
);
},
{
closed = 1;
nodes = (
"191 0 LINE",
"246 282 LINE",
"229 289 LINE",
"292 506 LINE",
"344 769 LINE",
"150 709 LINE",
"-13 0 LINE"
);
},
{
closed = 1;
nodes = (
"344 769 LINE",
"246 773 OFFCURVE",
"154 756 OFFCURVE",
"69 716 CURVE",
"137 584 LINE"
);
}
);
width = 585;
},
{
anchors = (
{
name = bottom;
position = "{213, 0}";
},
{
name = center;
position = "{234, 568}";
},
{
name = top;
position = "{205, 695}";
}
);
layerId = "0E5388DE-A0E6-4EB4-BC9B-CE5870C9023F";
paths = (
{
closed = 1;
nodes = (
"184 310 OFFCURVE",
"274 431 OFFCURVE",
"350 464 CURVE",
"334 465 LINE",
"369 448 OFFCURVE",
"388 434 OFFCURVE",
"422 400 CURVE",
"424 422 LINE",
"331 51 LINE",
"336 16 OFFCURVE",
"354 -5 OFFCURVE",
"380 -5 CURVE SMOOTH",
"408 -5 OFFCURVE",
"437 21 OFFCURVE",
"451 60 CURVE",
"424 47 OFFCURVE",
"395 39 OFFCURVE",
"360 36 CURVE",
"439 373 LINE SMOOTH",
"452 428 OFFCURVE",
"409 480 OFFCURVE",
"349 480 CURVE SMOOTH",
"341 480 OFFCURVE",
"331 478 OFFCURVE",
"317 475 CURVE",
"241 424 OFFCURVE",
"168 319 OFFCURVE",
"98 159 CURVE",
"109 141 LINE"
);
},
{
closed = 1;
nodes = (
"84 0 LINE",
"131 226 LINE",
"128 228 LINE",
"171 416 LINE",
"233 725 LINE",
"204 718 LINE",
"53 0 LINE"
);
},
{
closed = 1;
nodes = (
"233 725 LINE",
"194 725 OFFCURVE",
"160 720 OFFCURVE",
"110 708 CURVE",
"205 685 LINE"
);
}
);
width = 514;
}
);
leftKerningGroup = h;
rightKerningGroup = n;
unicode = 0068;
},
{
color = 4;
glyphname = i;
lastChange = "2020-02-24 20:56:35 +0000";
layers = (
{
anchors = (
{
name = bottom;
position = "{117, 0}";
},
{
name = ogonek;
position = "{238, 10}";
},
{
name = top;
position = "{202, 516}";
}
);
layerId = "A6FDB8B9-512B-4F31-B986-CD5B604F5662";
paths = (
{
closed = 1;
nodes = (
"298 453 LINE",
"271 501 OFFCURVE",
"226 523 OFFCURVE",
"178 523 CURVE SMOOTH",
"103 523 OFFCURVE",
"23 468 OFFCURVE",
"9 379 CURVE",
"53 376 OFFCURVE",
"92 378 OFFCURVE",
"140 384 CURVE",
"114 475 LINE",
"18 60 LINE",
"45 12 OFFCURVE",
"91 -10 OFFCURVE",
"138 -10 CURVE SMOOTH",
"214 -10 OFFCURVE",
"294 45 OFFCURVE",
"309 134 CURVE",
"266 137 OFFCURVE",
"225 136 OFFCURVE",
"175 130 CURVE",
"216 42 LINE"
);
},
{
closed = 1;
nodes = (
"211 818 OFFCURVE",
"150 780 OFFCURVE",
"107 735 CURVE",
"118 669 OFFCURVE",
"156 605 OFFCURVE",
"203 567 CURVE",
"266 575 OFFCURVE",
"330 614 OFFCURVE",
"370 662 CURVE",
"360 725 OFFCURVE",
"323 785 OFFCURVE",
"275 828 CURVE"
);
}
);
width = 319;
},
{
anchors = (
{
name = bottom;
position = "{99, 0}";
},
{
name = ogonek;
position = "{181, 10}";
},
{
name = top;
position = "{150, 478}";
}
);
layerId = "0E5388DE-A0E6-4EB4-BC9B-CE5870C9023F";
paths = (
{
closed = 1;
nodes = (
"180 437 LINE",
"171 466 OFFCURVE",
"152 483 OFFCURVE",
"129 483 CURVE SMOOTH",
"101 483 OFFCURVE",
"75 460 OFFCURVE",
"63 424 CURVE",
"92 436 OFFCURVE",
"118 439 OFFCURVE",
"163 437 CURVE",
"156 456 LINE",
"70 51 LINE",
"75 16 OFFCURVE",
"93 -5 OFFCURVE",
"119 -5 CURVE SMOOTH",
"147 -5 OFFCURVE",
"176 21 OFFCURVE",
"190 60 CURVE",
"159 44 OFFCURVE",
"125 36 OFFCURVE",
"88 36 CURVE",
"96 19 LINE"
);
},
{
closed = 1;
nodes = (
"176 668 OFFCURVE",
"160 659 OFFCURVE",
"149 646 CURVE",
"153 631 OFFCURVE",
"162 616 OFFCURVE",
"174 605 CURVE",
"189 607 OFFCURVE",
"205 616 OFFCURVE",
"215 628 CURVE",
"213 643 OFFCURVE",
"204 660 OFFCURVE",
"192 671 CURVE"
);
}
);
width = 251;
}
);
leftKerningGroup = i;
rightKerningGroup = i;
unicode = 0069;
},
{
color = 4;
glyphname = iacute;
lastChange = "2020-02-24 20:56:35 +0000";
layers = (
{
anchors = (
{
name = bottom;
position = "{117, 0}";
},
{
name = ogonek;
position = "{238, 10}";
},
{
name = top;
position = "{202, 516}";
}
);
layerId = "A6FDB8B9-512B-4F31-B986-CD5B604F5662";
paths = (
{
closed = 1;
nodes = (
"298 453 LINE",
"271 501 OFFCURVE",
"226 523 OFFCURVE",
"178 523 CURVE SMOOTH",
"103 523 OFFCURVE",
"23 468 OFFCURVE",
"9 379 CURVE",
"53 376 OFFCURVE",
"92 378 OFFCURVE",
"140 384 CURVE",
"114 475 LINE",
"18 60 LINE",
"45 12 OFFCURVE",
"91 -10 OFFCURVE",
"138 -10 CURVE SMOOTH",
"214 -10 OFFCURVE",
"294 45 OFFCURVE",
"309 134 CURVE",
"266 137 OFFCURVE",
"225 136 OFFCURVE",
"175 130 CURVE",
"216 42 LINE"
);
},
{
closed = 1;
nodes = (
"223 591 OFFCURVE",
"315 625 OFFCURVE",
"406 667 CURVE",
"332 814 LINE",
"305 814 LINE",
"86 636 LINE",
"128 563 LINE"
);
}
);
width = 319;
},
{
anchors = (
{
name = bottom;
position = "{99, 0}";
},
{
name = ogonek;
position = "{181, 10}";
},
{
name = top;
position = "{150, 478}";
}
);
layerId = "0E5388DE-A0E6-4EB4-BC9B-CE5870C9023F";
paths = (
{
closed = 1;
nodes = (
"180 437 LINE",
"171 466 OFFCURVE",
"152 483 OFFCURVE",
"129 483 CURVE SMOOTH",
"101 483 OFFCURVE",
"75 460 OFFCURVE",
"63 424 CURVE",
"92 436 OFFCURVE",
"118 439 OFFCURVE",
"163 437 CURVE",
"156 456 LINE",
"70 51 LINE",
"75 16 OFFCURVE",
"93 -5 OFFCURVE",
"119 -5 CURVE SMOOTH",
"147 -5 OFFCURVE",
"176 21 OFFCURVE",
"190 60 CURVE",
"159 44 OFFCURVE",
"125 36 OFFCURVE",
"88 36 CURVE",
"96 19 LINE"
);
},
{
closed = 1;
nodes = (
"176 602 OFFCURVE",
"231 640 OFFCURVE",
"286 681 CURVE",
"270 703 LINE",
"264 703 LINE",
"108 574 LINE",
"114 565 LINE"
);
}
);
width = 251;
}
);
leftKerningGroup = n;
rightKerningGroup = i;
unicode = 00ED;
},
{
color = 4;
glyphname = idieresis;
lastChange = "2020-02-24 20:56:35 +0000";
layers = (
{
anchors = (
{
name = bottom;
position = "{99, 0}";
},
{
name = ogonek;
position = "{181, 10}";
},
{
name = top;
position = "{150, 478}";
}
);
layerId = "0E5388DE-A0E6-4EB4-BC9B-CE5870C9023F";
paths = (
{
closed = 1;
nodes = (
"180 437 LINE",
"171 466 OFFCURVE",
"152 483 OFFCURVE",
"129 483 CURVE SMOOTH",
"101 483 OFFCURVE",
"75 460 OFFCURVE",
"63 424 CURVE",
"92 436 OFFCURVE",
"118 439 OFFCURVE",
"163 437 CURVE",
"156 456 LINE",
"70 51 LINE",
"75 16 OFFCURVE",
"93 -5 OFFCURVE",
"119 -5 CURVE SMOOTH",
"147 -5 OFFCURVE",
"176 21 OFFCURVE",
"190 60 CURVE",
"159 44 OFFCURVE",
"125 36 OFFCURVE",
"88 36 CURVE",
"96 19 LINE"
);
},
{
closed = 1;
nodes = (
"112 665 OFFCURVE",
"99 657 OFFCURVE",
"87 645 CURVE",
"90 633 OFFCURVE",
"98 620 OFFCURVE",
"109 607 CURVE",
"123 609 OFFCURVE",
"138 617 OFFCURVE",
"148 628 CURVE",
"146 642 OFFCURVE",
"139 656 OFFCURVE",
"127 668 CURVE"
);
},
{
closed = 1;
nodes = (
"241 665 OFFCURVE",
"227 657 OFFCURVE",
"216 645 CURVE",
"220 630 OFFCURVE",
"228 617 OFFCURVE",
"239 607 CURVE",
"252 609 OFFCURVE",
"265 616 OFFCURVE",
"277 628 CURVE",
"275 642 OFFCURVE",
"268 655 OFFCURVE",
"257 668 CURVE"
);
}
);
width = 251;
},
{
anchors = (
{
name = bottom;
position = "{117, 0}";
},
{
name = ogonek;
position = "{238, 10}";
},
{
name = top;
position = "{202, 516}";
}
);
layerId = "A6FDB8B9-512B-4F31-B986-CD5B604F5662";
paths = (
{
closed = 1;
nodes = (
"298 453 LINE",
"271 501 OFFCURVE",
"226 523 OFFCURVE",
"178 523 CURVE SMOOTH",
"103 523 OFFCURVE",
"23 468 OFFCURVE",
"9 379 CURVE",
"53 376 OFFCURVE",
"92 378 OFFCURVE",
"140 384 CURVE",
"114 475 LINE",
"18 60 LINE",
"45 12 OFFCURVE",
"91 -10 OFFCURVE",
"138 -10 CURVE SMOOTH",
"214 -10 OFFCURVE",
"294 45 OFFCURVE",
"309 134 CURVE",
"266 137 OFFCURVE",
"225 136 OFFCURVE",
"175 130 CURVE",
"216 42 LINE"
);
},
{
closed = 1;
nodes = (
"96 799 OFFCURVE",
"44 767 OFFCURVE",
"7 729 CURVE",
"16 672 OFFCURVE",
"49 617 OFFCURVE",
"90 584 CURVE",
"143 591 OFFCURVE",
"198 625 OFFCURVE",
"232 666 CURVE",
"224 720 OFFCURVE",
"193 771 OFFCURVE",
"151 808 CURVE"
);
},
{
closed = 1;
nodes = (
"332 799 OFFCURVE",
"280 767 OFFCURVE",
"243 729 CURVE",
"252 672 OFFCURVE",
"284 617 OFFCURVE",
"325 584 CURVE",
"379 591 OFFCURVE",
"434 625 OFFCURVE",
"468 666 CURVE",
"460 720 OFFCURVE",
"427 771 OFFCURVE",
"386 808 CURVE"
);
}
);
width = 319;
}
);
leftKerningGroup = n;
rightKerningGroup = i;
unicode = 00EF;
},
{
color = 4;
glyphname = igrave;
lastChange = "2020-02-24 20:56:35 +0000";
layers = (
{
anchors = (
{
name = bottom;
position = "{99, 0}";
},
{
name = ogonek;
position = "{181, 10}";
},
{
name = top;
position = "{150, 478}";
}
);
layerId = "0E5388DE-A0E6-4EB4-BC9B-CE5870C9023F";
paths = (
{
closed = 1;
nodes = (
"180 437 LINE",
"171 466 OFFCURVE",
"152 483 OFFCURVE",
"129 483 CURVE SMOOTH",
"101 483 OFFCURVE",
"75 460 OFFCURVE",
"63 424 CURVE",
"92 436 OFFCURVE",
"118 439 OFFCURVE",
"163 437 CURVE",
"156 456 LINE",
"70 51 LINE",
"75 16 OFFCURVE",
"93 -5 OFFCURVE",
"119 -5 CURVE SMOOTH",
"147 -5 OFFCURVE",
"176 21 OFFCURVE",
"190 60 CURVE",
"159 44 OFFCURVE",
"125 36 OFFCURVE",
"88 36 CURVE",
"96 19 LINE"
);
},
{
closed = 1;
nodes = (
"252 574 LINE",
"96 703 LINE",
"90 703 LINE",
"74 681 LINE",
"129 640 OFFCURVE",
"184 602 OFFCURVE",
"246 565 CURVE"
);
}
);
width = 251;
},
{
anchors = (
{
name = bottom;
position = "{117, 0}";
},
{
name = ogonek;
position = "{238, 10}";
},
{
name = top;
position = "{202, 516}";
}
);
layerId = "A6FDB8B9-512B-4F31-B986-CD5B604F5662";
paths = (
{
closed = 1;
nodes = (
"298 453 LINE",
"271 501 OFFCURVE",
"226 523 OFFCURVE",
"178 523 CURVE SMOOTH",
"103 523 OFFCURVE",
"23 468 OFFCURVE",
"9 379 CURVE",
"53 376 OFFCURVE",
"92 378 OFFCURVE",
"140 384 CURVE",
"114 475 LINE",
"18 60 LINE",
"45 12 OFFCURVE",
"91 -10 OFFCURVE",
"138 -10 CURVE SMOOTH",
"214 -10 OFFCURVE",
"294 45 OFFCURVE",
"309 134 CURVE",
"266 137 OFFCURVE",
"225 136 OFFCURVE",
"175 130 CURVE",
"216 42 LINE"
);
},
{
closed = 1;
nodes = (
"384 636 LINE",
"165 814 LINE",
"138 814 LINE",
"64 667 LINE",
"155 625 OFFCURVE",
"247 591 OFFCURVE",
"342 563 CURVE"
);
}
);
width = 319;
}
);
leftKerningGroup = n;
rightKerningGroup = i;
unicode = 00EC;
},
{
color = 4;
glyphname = j;
lastChange = "2020-02-24 20:56:35 +0000";
layers = (
{
anchors = (
{
name = bottom;
position = "{58, -196}";
},
{
name = top;
position = "{199, 516}";
}
);
layerId = "A6FDB8B9-512B-4F31-B986-CD5B604F5662";
paths = (
{
closed = 1;
nodes = (
"294 453 LINE",
"267 501 OFFCURVE",
"221 523 OFFCURVE",
"174 523 CURVE SMOOTH",
"99 523 OFFCURVE",
"19 468 OFFCURVE",
"5 379 CURVE",
"55 375 OFFCURVE",
"98 378 OFFCURVE",
"157 387 CURVE"
);
},
{
closed = 1;
nodes = (
"104 440 LINE",
"57 223 LINE SMOOTH",
"42 155 OFFCURVE",
"30 66 OFFCURVE",
"28 -31 CURVE",
"-28 -35 OFFCURVE",
"-84 -35 OFFCURVE",
"-144 -31 CURVE",
"-167 -128 OFFCURVE",
"-105 -205 OFFCURVE",
"-1 -205 CURVE SMOOTH",
"118 -205 OFFCURVE",
"191 -102 OFFCURVE",
"226 87 CURVE SMOOTH",
"294 453 LINE"
);
},
{
closed = 1;
nodes = (
"208 818 OFFCURVE",
"147 780 OFFCURVE",
"104 735 CURVE",
"115 669 OFFCURVE",
"153 605 OFFCURVE",
"200 567 CURVE",
"263 575 OFFCURVE",
"327 614 OFFCURVE",
"367 662 CURVE",
"357 725 OFFCURVE",
"320 785 OFFCURVE",
"272 828 CURVE"
);
}
);
width = 299;
},
{
anchors = (
{
name = bottom;
position = "{31, -195}";
},
{
name = top;
position = "{148, 478}";
}
);
layerId = "0E5388DE-A0E6-4EB4-BC9B-CE5870C9023F";
paths = (
{
closed = 1;
nodes = (
"177 437 LINE",
"169 466 OFFCURVE",
"150 483 OFFCURVE",
"126 483 CURVE SMOOTH",
"99 483 OFFCURVE",
"72 459 OFFCURVE",
"60 424 CURVE",
"87 435 OFFCURVE",
"126 440 OFFCURVE",
"160 437 CURVE"
);
},
{
closed = 1;
nodes = (
"151 454 LINE",
"62 -69 LINE SMOOTH",
"54 -117 OFFCURVE",
"51 -126 OFFCURVE",
"29 -164 CURVE",
"-21 -169 OFFCURVE",
"-83 -167 OFFCURVE",
"-122 -167 CURVE",
"-109 -192 OFFCURVE",
"-79 -208 OFFCURVE",
"-43 -208 CURVE SMOOTH",
"27 -208 OFFCURVE",
"78 -156 OFFCURVE",
"92 -71 CURVE SMOOTH",
"177 437 LINE"
);
},
{
closed = 1;
nodes = (
"174 668 OFFCURVE",
"158 659 OFFCURVE",
"147 646 CURVE",
"151 631 OFFCURVE",
"160 616 OFFCURVE",
"172 605 CURVE",
"187 607 OFFCURVE",
"203 616 OFFCURVE",
"213 628 CURVE",
"211 643 OFFCURVE",
"202 660 OFFCURVE",
"190 671 CURVE"
);
}
);
width = 235;
}
);
leftKerningGroup = j;
rightKerningGroup = j;
unicode = 006A;
},
{
color = 4;
glyphname = k;
lastChange = "2020-02-24 20:55:26 +0000";
layers = (
{
anchors = (
{
name = bottom;
position = "{256, 0}";
},
{
name = top;
position = "{400, 769}";
}
);
layerId = "A6FDB8B9-512B-4F31-B986-CD5B604F5662";
paths = (
{
closed = 1;
nodes = (
"190 0 LINE",
"344 769 LINE",
"150 709 LINE",
"-13 0 LINE"
);
},
{
closed = 1;
nodes = (
"332 9 OFFCURVE",
"375 -11 OFFCURVE",
"416 -11 CURVE SMOOTH",
"486 -11 OFFCURVE",
"553 45 OFFCURVE",
"557 137 CURVE",
"534 138 OFFCURVE",
"517 138 OFFCURVE",
"502 138 CURVE SMOOTH",
"465 138 OFFCURVE",
"452 136 OFFCURVE",
"428 132 CURVE",
"509 69 LINE",
"381 355 LINE",
"241 245 LINE",
"300 51 LINE"
);
},
{
closed = 1;
nodes = (
"318 236 LINE",
"359 301 OFFCURVE",
"404 358 OFFCURVE",
"448 404 CURVE",
"338 359 LINE",
"549 280 LINE",
"598 516 LINE",
"577 518 OFFCURVE",
"559 520 OFFCURVE",
"541 520 CURVE SMOOTH",
"425 520 OFFCURVE",
"367 461 OFFCURVE",
"241 245 CURVE"
);
},
{
closed = 1;
nodes = (
"344 769 LINE",
"244 773 OFFCURVE",
"152 755 OFFCURVE",
"69 716 CURVE",
"137 584 LINE"
);
}
);
width = 592;
},
{
anchors = (
{
name = bottom;
position = "{187, 0}";
},
{
name = top;
position = "{219, 725}";
}
);
layerId = "0E5388DE-A0E6-4EB4-BC9B-CE5870C9023F";
paths = (
{
closed = 1;
nodes = (
"80 0 LINE",
"226 725 LINE",
"197 718 LINE",
"47 0 LINE"
);
},
{
closed = 1;
nodes = (
"324 1 OFFCURVE",
"334 -2 OFFCURVE",
"342 -2 CURVE SMOOTH",
"368 -2 OFFCURVE",
"387 19 OFFCURVE",
"394 54 CURVE",
"375 44 OFFCURVE",
"355 39 OFFCURVE",
"333 39 CURVE SMOOTH",
"324 39 OFFCURVE",
"321 39 OFFCURVE",
"318 40 CURVE",
"343 20 LINE",
"175 275 LINE",
"150 262 LINE",
"315 6 LINE"
);
},
{
closed = 1;
nodes = (
"174 256 LINE",
"276 369 OFFCURVE",
"318 407 OFFCURVE",
"381 448 CURVE",
"354 437 LINE",
"413 426 LINE",
"426 483 LINE",
"424 484 OFFCURVE",
"422 484 OFFCURVE",
"415 484 CURVE SMOOTH",
"365 484 OFFCURVE",
"292 423 OFFCURVE",
"150 262 CURVE"
);
},
{
closed = 1;
nodes = (
"226 725 LINE",
"173 725 OFFCURVE",
"137 720 OFFCURVE",
"103 708 CURVE",
"198 685 LINE"
);
}
);
width = 449;
}
);
leftKerningGroup = h;
rightKerningGroup = x;
unicode = 006B;
},
{
color = 4;
glyphname = l;
lastChange = "2020-02-24 20:55:26 +0000";
layers = (
{
anchors = (
{
name = bottom;
position = "{109, 0}";
},
{
name = center;
position = "{176, 385}";
},
{
name = top;
position = "{243, 740}";
},
{
name = topright;
position = "{443, 769}";
}
);
layerId = "A6FDB8B9-512B-4F31-B986-CD5B604F5662";
paths = (
{
closed = 1;
nodes = (
"339 769 LINE",
"241 773 OFFCURVE",
"148 757 OFFCURVE",
"64 716 CURVE",
"132 584 LINE"
);
},
{
closed = 1;
nodes = (
"339 769 LINE",
"145 709 LINE",
"-4 60 LINE",
"23 12 OFFCURVE",
"69 -10 OFFCURVE",
"116 -10 CURVE SMOOTH",
"192 -10 OFFCURVE",
"272 45 OFFCURVE",
"287 134 CURVE",
"244 137 OFFCURVE",
"203 136 OFFCURVE",
"153 130 CURVE",
"194 42 LINE"
);
}
);
width = 301;
},
{
anchors = (
{
name = bottom;
position = "{101, 0}";
},
{
name = center;
position = "{147, 363}";
},
{
name = top;
position = "{206, 680}";
},
{
name = topright;
position = "{322, 725}";
}
);
layerId = "0E5388DE-A0E6-4EB4-BC9B-CE5870C9023F";
paths = (
{
closed = 1;
nodes = (
"227 725 LINE",
"182 725 OFFCURVE",
"138 719 OFFCURVE",
"104 708 CURVE",
"199 685 LINE"
);
},
{
closed = 1;
nodes = (
"227 725 LINE",
"198 718 LINE",
"59 51 LINE",
"64 16 OFFCURVE",
"82 -5 OFFCURVE",
"108 -5 CURVE SMOOTH",
"136 -5 OFFCURVE",
"165 21 OFFCURVE",
"179 60 CURVE",
"148 44 OFFCURVE",
"114 36 OFFCURVE",
"77 36 CURVE",
"85 19 LINE"
);
}
);
width = 244;
}
);
leftKerningGroup = h;
rightKerningGroup = l;
unicode = 006C;
},
{
color = 4;
glyphname = m;
lastChange = "2020-02-24 20:55:26 +0000";
layers = (
{
anchors = (
{
name = bottom;
position = "{395, 0}";
},
{
name = top;
position = "{499, 516}";
}
);
layerId = "A6FDB8B9-512B-4F31-B986-CD5B604F5662";
paths = (
{
closed = 1;
nodes = (
"530 178 OFFCURVE",
"584 278 OFFCURVE",
"663 379 CURVE",
"630 367 LINE",
"652 363 OFFCURVE",
"668 355 OFFCURVE",
"684 339 CURVE",
"668 363 LINE",
"588 60 LINE",
"615 12 OFFCURVE",
"661 -9 OFFCURVE",
"709 -9 CURVE SMOOTH",
"785 -9 OFFCURVE",
"864 44 OFFCURVE",
"879 134 CURVE",
"857 137 OFFCURVE",
"844 136 OFFCURVE",
"808 135 CURVE",
"862 365 LINE SMOOTH",
"885 463 OFFCURVE",
"840 521 OFFCURVE",
"744 521 CURVE SMOOTH",
"731 521 OFFCURVE",
"718 520 OFFCURVE",
"704 518 CURVE",
"637 467 OFFCURVE",
"537 296 OFFCURVE",
"475 126 CURVE",
"489 52 LINE"
);
},
{
closed = 1;
nodes = (
"212 0 LINE",
"267 282 LINE",
"247 289 LINE",
"302 453 LINE",
"275 501 OFFCURVE",
"229 522 OFFCURVE",
"181 522 CURVE SMOOTH",
"106 522 OFFCURVE",
"27 469 OFFCURVE",
"13 379 CURVE",
"90 376 OFFCURVE",
"116 377 OFFCURVE",
"144 384 CURVE",
"118 475 LINE",
"8 0 LINE"
);
},
{
closed = 1;
nodes = (
"499 0 LINE",
"554 282 LINE",
"534 289 LINE",
"565 378 LINE SMOOTH",
"594 462 OFFCURVE",
"545 522 OFFCURVE",
"458 522 CURVE SMOOTH",
"445 522 OFFCURVE",
"431 521 OFFCURVE",
"417 518 CURVE",
"350 467 OFFCURVE",
"250 296 OFFCURVE",
"188 126 CURVE",
"202 52 LINE",
"241 174 OFFCURVE",
"295 274 OFFCURVE",
"376 379 CURVE",
"343 367 LINE",
"365 363 OFFCURVE",
"381 355 OFFCURVE",
"397 339 CURVE",
"381 363 LINE",
"295 0 LINE"
);
}
);
width = 893;
},
{
anchors = (
{
name = bottom;
position = "{358, 0}";
},
{
name = top;
position = "{454, 478}";
}
);
layerId = "0E5388DE-A0E6-4EB4-BC9B-CE5870C9023F";
paths = (
{
closed = 1;
nodes = (
"467 310 OFFCURVE",
"557 431 OFFCURVE",
"633 464 CURVE",
"617 465 LINE",
"652 448 OFFCURVE",
"671 434 OFFCURVE",
"705 400 CURVE",
"707 422 LINE",
"614 51 LINE",
"619 16 OFFCURVE",
"637 -5 OFFCURVE",
"663 -5 CURVE SMOOTH",
"691 -5 OFFCURVE",
"720 21 OFFCURVE",
"734 60 CURVE",
"707 47 OFFCURVE",
"678 39 OFFCURVE",
"643 36 CURVE",
"722 373 LINE SMOOTH",
"735 428 OFFCURVE",
"692 480 OFFCURVE",
"632 480 CURVE SMOOTH",
"624 480 OFFCURVE",
"614 478 OFFCURVE",
"600 475 CURVE",
"524 424 OFFCURVE",
"451 319 OFFCURVE",
"381 159 CURVE",
"392 141 LINE"
);
},
{
closed = 1;
nodes = (
"95 0 LINE",
"140 226 LINE",
"137 227 LINE",
"184 437 LINE",
"175 466 OFFCURVE",
"156 483 OFFCURVE",
"132 483 CURVE SMOOTH",
"105 483 OFFCURVE",
"78 459 OFFCURVE",
"66 424 CURVE",
"98 436 OFFCURVE",
"128 440 OFFCURVE",
"166 437 CURVE",
"159 456 LINE",
"62 0 LINE"
);
},
{
closed = 1;
nodes = (
"369 0 LINE",
"414 226 LINE",
"411 227 LINE",
"442 366 LINE SMOOTH",
"455 433 OFFCURVE",
"421 480 OFFCURVE",
"359 480 CURVE SMOOTH",
"352 480 OFFCURVE",
"344 479 OFFCURVE",
"326 475 CURVE",
"250 424 OFFCURVE",
"177 319 OFFCURVE",
"107 159 CURVE",
"118 141 LINE",
"193 310 OFFCURVE",
"283 431 OFFCURVE",
"359 464 CURVE",
"343 465 LINE",
"378 448 OFFCURVE",
"397 434 OFFCURVE",
"431 400 CURVE",
"428 432 LINE",
"336 0 LINE"
);
}
);
width = 797;
}
);
leftKerningGroup = n;
rightKerningGroup = n;
unicode = 006D;
},
{
color = 4;
glyphname = n;
lastChange = "2020-02-24 20:55:26 +0000";
layers = (
{
anchors = (
{
name = bottom;
position = "{261, 0}";
},
{
name = top;
position = "{355, 516}";
}
);
layerId = "A6FDB8B9-512B-4F31-B986-CD5B604F5662";
paths = (
{
closed = 1;
nodes = (
"328 12 OFFCURVE",
"374 -9 OFFCURVE",
"422 -9 CURVE SMOOTH",
"498 -9 OFFCURVE",
"577 44 OFFCURVE",
"592 134 CURVE",
"570 137 OFFCURVE",
"557 136 OFFCURVE",
"521 135 CURVE",
"575 365 LINE SMOOTH",
"598 463 OFFCURVE",
"553 521 OFFCURVE",
"457 521 CURVE SMOOTH",
"444 521 OFFCURVE",
"431 520 OFFCURVE",
"417 518 CURVE",
"350 467 OFFCURVE",
"250 295 OFFCURVE",
"188 126 CURVE",
"202 52 LINE",
"245 182 OFFCURVE",
"299 282 OFFCURVE",
"376 379 CURVE",
"343 367 LINE",
"366 363 OFFCURVE",
"382 354 OFFCURVE",
"397 339 CURVE",
"381 363 LINE",
"301 60 LINE"
);
},
{
closed = 1;
nodes = (
"212 0 LINE",
"267 282 LINE",
"247 289 LINE",
"302 453 LINE",
"275 501 OFFCURVE",
"229 522 OFFCURVE",
"181 522 CURVE SMOOTH",
"106 522 OFFCURVE",
"27 469 OFFCURVE",
"13 379 CURVE",
"90 376 OFFCURVE",
"116 377 OFFCURVE",
"144 384 CURVE",
"118 475 LINE",
"8 0 LINE"
);
}
);
width = 606;
},
{
anchors = (
{
name = bottom;
position = "{221, 0}";
},
{
name = top;
position = "{310, 478}";
}
);
layerId = "0E5388DE-A0E6-4EB4-BC9B-CE5870C9023F";
paths = (
{
closed = 1;
nodes = (
"345 16 OFFCURVE",
"363 -5 OFFCURVE",
"389 -5 CURVE SMOOTH",
"417 -5 OFFCURVE",
"446 21 OFFCURVE",
"460 60 CURVE",
"433 47 OFFCURVE",
"404 39 OFFCURVE",
"369 36 CURVE",
"448 373 LINE SMOOTH",
"461 428 OFFCURVE",
"418 480 OFFCURVE",
"358 480 CURVE SMOOTH",
"350 480 OFFCURVE",
"340 478 OFFCURVE",
"326 475 CURVE",
"250 424 OFFCURVE",
"177 319 OFFCURVE",
"107 159 CURVE",
"118 141 LINE",
"193 310 OFFCURVE",
"283 431 OFFCURVE",
"359 464 CURVE",
"343 465 LINE",
"378 448 OFFCURVE",
"397 434 OFFCURVE",
"431 400 CURVE",
"433 422 LINE",
"340 51 LINE"
);
},
{
closed = 1;
nodes = (
"95 0 LINE",
"140 226 LINE",
"137 227 LINE",
"184 437 LINE",
"175 466 OFFCURVE",
"156 483 OFFCURVE",
"132 483 CURVE SMOOTH",
"105 483 OFFCURVE",
"78 459 OFFCURVE",
"66 424 CURVE",
"98 436 OFFCURVE",
"128 440 OFFCURVE",
"166 437 CURVE",
"159 456 LINE",
"62 0 LINE"
);
}
);
width = 523;
}
);
leftKerningGroup = n;
rightKerningGroup = n;
unicode = 006E;
},
{
color = 4;
glyphname = ntilde;
lastChange = "2020-02-24 20:56:35 +0000";
layers = (
{
anchors = (
{
name = top;
position = "{414, 808}";
}
);
components = (
{
name = n;
}
);
layerId = "A6FDB8B9-512B-4F31-B986-CD5B604F5662";
paths = (
{
closed = 1;
nodes = (
"298 644 LINE",
"424 610 LINE SMOOTH",
"471 597 OFFCURVE",
"501 594 OFFCURVE",
"599 768 CURVE",
"557 808 LINE",
"485 754 LINE",
"359 788 LINE SMOOTH",
"306 802 OFFCURVE",
"280 796 OFFCURVE",
"185 630 CURVE",
"226 590 LINE"
);
}
);
width = 606;
},
{
anchors = (
{
name = top;
position = "{351, 687}";
}
);
components = (
{
name = n;
}
);
layerId = "0E5388DE-A0E6-4EB4-BC9B-CE5870C9023F";
paths = (
{
closed = 1;
nodes = (
"276 641 LINE",
"382 612 LINE SMOOTH",
"408 605 OFFCURVE",
"418 612 OFFCURVE",
"476 680 CURVE",
"469 687 LINE",
"408 635 LINE",
"301 664 LINE SMOOTH",
"278 670 OFFCURVE",
"271 672 OFFCURVE",
"207 597 CURVE",
"214 589 LINE"
);
}
);
width = 523;
}
);
leftKerningGroup = n;
rightKerningGroup = n;
unicode = 00F1;
},
{
color = 4;
glyphname = o;
lastChange = "2020-02-24 20:55:26 +0000";
layers = (
{
anchors = (
{
name = bottom;
position = "{202, 0}";
},
{
name = center;
position = "{254, 258}";
},
{
name = ogonek;
position = "{407, 10}";
},
{
name = top;
position = "{296, 516}";
},
{
name = topright;
position = "{540, 516}";
}
);
layerId = "A6FDB8B9-512B-4F31-B986-CD5B604F5662";
paths = (
{
closed = 1;
nodes = (
"382 -15 OFFCURVE",
"505 119 OFFCURVE",
"505 304 CURVE SMOOTH",
"505 448 OFFCURVE",
"428 529 OFFCURVE",
"293 529 CURVE SMOOTH",
"124 529 OFFCURVE",
"3 398 OFFCURVE",
"3 213 CURVE SMOOTH",
"3 69 OFFCURVE",
"81 -15 OFFCURVE",
"213 -15 CURVE SMOOTH"
);
},
{
closed = 1;
nodes = (
"232 112 OFFCURVE",
"213 115 OFFCURVE",
"195 123 CURVE",
"192 207 OFFCURVE",
"221 342 OFFCURVE",
"253 398 CURVE",
"274 397 OFFCURVE",
"294 392 OFFCURVE",
"313 385 CURVE",
"317 300 OFFCURVE",
"285 165 OFFCURVE",
"254 111 CURVE"
);
}
);
width = 508;
},
{
anchors = (
{
name = bottom;
position = "{181, 0}";
},
{
name = center;
position = "{229, 239}";
},
{
name = ogonek;
position = "{293, 10}";
},
{
name = top;
position = "{267, 478}";
},
{
name = topright;
position = "{487, 478}";
}
);
layerId = "0E5388DE-A0E6-4EB4-BC9B-CE5870C9023F";
paths = (
{
closed = 1;
nodes = (
"310 -7 OFFCURVE",
"409 129 OFFCURVE",
"409 293 CURVE SMOOTH",
"409 412 OFFCURVE",
"355 485 OFFCURVE",
"268 485 CURVE SMOOTH",
"148 485 OFFCURVE",
"49 349 OFFCURVE",
"49 185 CURVE SMOOTH",
"49 67 OFFCURVE",
"103 -7 OFFCURVE",
"191 -7 CURVE SMOOTH"
);
},
{
closed = 1;
nodes = (
"174 23 OFFCURVE",
"134 39 OFFCURVE",
"101 62 CURVE",
"41 211 OFFCURVE",
"113 415 OFFCURVE",
"241 462 CURVE",
"282 456 OFFCURVE",
"321 441 OFFCURVE",
"357 417 CURVE",
"416 262 OFFCURVE",
"345 60 OFFCURVE",
"216 16 CURVE"
);
}
);
width = 458;
}
);
leftKerningGroup = o;
rightKerningGroup = o;
unicode = 006F;
},
{
color = 4;
glyphname = oacute;
lastChange = "2020-02-24 20:56:35 +0000";
layers = (
{
anchors = (
{
name = top;
position = "{357, 823}";
}
);
components = (
{
name = o;
}
);
layerId = "A6FDB8B9-512B-4F31-B986-CD5B604F5662";
paths = (
{
closed = 1;
nodes = (
"317 591 OFFCURVE",
"409 625 OFFCURVE",
"500 667 CURVE",
"426 814 LINE",
"399 814 LINE",
"180 636 LINE",
"222 563 LINE"
);
}
);
width = 508;
},
{
anchors = (
{
name = top;
position = "{312, 703}";
}
);
components = (
{
name = o;
}
);
layerId = "0E5388DE-A0E6-4EB4-BC9B-CE5870C9023F";
paths = (
{
closed = 1;
nodes = (
"293 602 OFFCURVE",
"348 640 OFFCURVE",
"403 681 CURVE",
"387 703 LINE",
"381 703 LINE",
"225 574 LINE",
"231 565 LINE"
);
}
);
width = 458;
}
);
leftKerningGroup = o;
rightKerningGroup = o;
unicode = 00F3;
},
{
color = 4;
glyphname = odieresis;
lastChange = "2020-02-24 20:56:35 +0000";
layers = (
{
anchors = (
{
name = top;
position = "{305, 668}";
}
);
components = (
{
name = o;
}
);
layerId = "0E5388DE-A0E6-4EB4-BC9B-CE5870C9023F";
paths = (
{
closed = 1;
nodes = (
"229 665 OFFCURVE",
"216 657 OFFCURVE",
"204 645 CURVE",
"207 633 OFFCURVE",
"215 620 OFFCURVE",
"226 607 CURVE",
"240 609 OFFCURVE",
"255 617 OFFCURVE",
"265 628 CURVE",
"263 642 OFFCURVE",
"256 656 OFFCURVE",
"244 668 CURVE"
);
},
{
closed = 1;
nodes = (
"358 665 OFFCURVE",
"344 657 OFFCURVE",
"333 645 CURVE",
"337 630 OFFCURVE",
"345 617 OFFCURVE",
"356 607 CURVE",
"369 609 OFFCURVE",
"382 616 OFFCURVE",
"394 628 CURVE",
"392 642 OFFCURVE",
"385 655 OFFCURVE",
"374 668 CURVE"
);
}
);
width = 458;
},
{
anchors = (
{
name = top;
position = "{354, 808}";
}
);
components = (
{
name = o;
}
);
layerId = "A6FDB8B9-512B-4F31-B986-CD5B604F5662";
paths = (
{
closed = 1;
nodes = (
"190 799 OFFCURVE",
"138 767 OFFCURVE",
"101 729 CURVE",
"110 672 OFFCURVE",
"143 617 OFFCURVE",
"184 584 CURVE",
"237 591 OFFCURVE",
"292 625 OFFCURVE",
"326 666 CURVE",
"318 720 OFFCURVE",
"287 771 OFFCURVE",
"245 808 CURVE"
);
},
{
closed = 1;
nodes = (
"426 799 OFFCURVE",
"374 767 OFFCURVE",
"337 729 CURVE",
"346 672 OFFCURVE",
"378 617 OFFCURVE",
"419 584 CURVE",
"473 591 OFFCURVE",
"528 625 OFFCURVE",
"562 666 CURVE",
"554 720 OFFCURVE",
"521 771 OFFCURVE",
"480 808 CURVE"
);
}
);
width = 508;
}
);
leftKerningGroup = o;
rightKerningGroup = o;
unicode = 00F6;
},
{
color = 4;
glyphname = ograve;
lastChange = "2020-02-24 20:56:35 +0000";
layers = (
{
anchors = (
{
name = top;
position = "{312, 703}";
}
);
components = (
{
name = o;
}
);
layerId = "0E5388DE-A0E6-4EB4-BC9B-CE5870C9023F";
paths = (
{
closed = 1;
nodes = (
"369 574 LINE",
"213 703 LINE",
"207 703 LINE",
"191 681 LINE",
"246 640 OFFCURVE",
"301 602 OFFCURVE",
"363 565 CURVE"
);
}
);
width = 458;
},
{
anchors = (
{
name = top;
position = "{357, 823}";
}
);
components = (
{
name = o;
}
);
layerId = "A6FDB8B9-512B-4F31-B986-CD5B604F5662";
paths = (
{
closed = 1;
nodes = (
"478 636 LINE",
"259 814 LINE",
"232 814 LINE",
"158 667 LINE",
"249 625 OFFCURVE",
"341 591 OFFCURVE",
"436 563 CURVE"
);
}
);
width = 508;
}
);
leftKerningGroup = o;
rightKerningGroup = o;
unicode = 00F2;
},
{
color = 4;
glyphname = oslash;
lastChange = "2020-02-24 20:55:26 +0000";
layers = (
{
anchors = (
{
name = bottom;
position = "{188, 0}";
},
{
name = center;
position = "{238, 239}";
},
{
name = ogonek;
position = "{370, 10}";
},
{
name = top;
position = "{258, 478}";
},
{
name = topright;
position = "{497, 478}";
}
);
layerId = "0E5388DE-A0E6-4EB4-BC9B-CE5870C9023F";
paths = (
{
closed = 1;
nodes = (
"112 42 LINE",
"36 -100 LINE",
"59 -111 LINE",
"135 30 LINE"
);
},
{
closed = 1;
nodes = (
"321 -7 OFFCURVE",
"421 127 OFFCURVE",
"421 290 CURVE SMOOTH",
"421 410 OFFCURVE",
"365 485 OFFCURVE",
"276 485 CURVE SMOOTH",
"154 485 OFFCURVE",
"53 350 OFFCURVE",
"53 187 CURVE SMOOTH",
"53 68 OFFCURVE",
"109 -7 OFFCURVE",
"199 -7 CURVE SMOOTH"
);
},
{
closed = 1;
nodes = (
"174 22 OFFCURVE",
"147 39 OFFCURVE",
"104 61 CURVE",
"89 96 OFFCURVE",
"81 137 OFFCURVE",
"81 180 CURVE SMOOTH",
"81 309 OFFCURVE",
"152 429 OFFCURVE",
"248 463 CURVE",
"293 458 OFFCURVE",
"322 441 OFFCURVE",
"369 417 CURVE",
"384 379 OFFCURVE",
"392 338 OFFCURVE",
"392 295 CURVE SMOOTH",
"392 165 OFFCURVE",
"321 46 OFFCURVE",
"225 15 CURVE"
);
},
{
closed = 1;
nodes = (
"356 439 LINE",
"432 580 LINE",
"408 593 LINE",
"332 452 LINE"
);
},
{
closed = 1;
nodes = (
"135 30 LINE",
"356 439 LINE",
"332 452 LINE",
"112 42 LINE"
);
}
);
width = 473;
},
{
anchors = (
{
name = bottom;
position = "{208, 0}";
},
{
name = center;
position = "{260, 259}";
},
{
name = ogonek;
position = "{432, 10}";
},
{
name = top;
position = "{293, 516}";
},
{
name = topright;
position = "{570, 516}";
}
);
layerId = "A6FDB8B9-512B-4F31-B986-CD5B604F5662";
paths = (
{
closed = 1;
nodes = (
"124 95 LINE",
"42 -72 LINE",
"137 -115 LINE",
"218 51 LINE"
);
},
{
closed = 1;
nodes = (
"395 -15 OFFCURVE",
"521 117 OFFCURVE",
"521 300 CURVE SMOOTH",
"521 446 OFFCURVE",
"440 529 OFFCURVE",
"299 529 CURVE SMOOTH",
"126 529 OFFCURVE",
"1 400 OFFCURVE",
"1 217 CURVE SMOOTH",
"1 69 OFFCURVE",
"85 -15 OFFCURVE",
"221 -15 CURVE SMOOTH"
);
},
{
closed = 1;
nodes = (
"244 110 OFFCURVE",
"226 114 OFFCURVE",
"196 123 CURVE",
"195 132 OFFCURVE",
"195 141 OFFCURVE",
"195 151 CURVE SMOOTH",
"195 233 OFFCURVE",
"222 345 OFFCURVE",
"259 398 CURVE",
"278 398 OFFCURVE",
"298 394 OFFCURVE",
"327 385 CURVE",
"328 376 OFFCURVE",
"328 367 OFFCURVE",
"328 357 CURVE SMOOTH",
"328 273 OFFCURVE",
"295 159 OFFCURVE",
"262 111 CURVE"
);
},
{
closed = 1;
nodes = (
"403 428 LINE",
"486 596 LINE",
"391 638 LINE",
"312 478 LINE"
);
},
{
closed = 1;
nodes = (
"218 51 LINE",
"403 428 LINE",
"312 478 LINE",
"124 95 LINE"
);
}
);
width = 523;
}
);
leftKerningGroup = o;
rightKerningGroup = o;
unicode = 00F8;
},
{
color = 4;
glyphname = otilde;
lastChange = "2020-02-24 20:56:35 +0000";
layers = (
{
anchors = (
{
name = top;
position = "{308, 687}";
}
);
components = (
{
name = o;
}
);
layerId = "0E5388DE-A0E6-4EB4-BC9B-CE5870C9023F";
paths = (
{
closed = 1;
nodes = (
"233 641 LINE",
"339 612 LINE SMOOTH",
"365 605 OFFCURVE",
"375 612 OFFCURVE",
"433 680 CURVE",
"426 687 LINE",
"365 635 LINE",
"258 664 LINE SMOOTH",
"235 670 OFFCURVE",
"228 672 OFFCURVE",
"164 597 CURVE",
"171 589 LINE"
);
}
);
width = 458;
},
{
anchors = (
{
name = top;
position = "{355, 808}";
}
);
components = (
{
name = o;
}
);
layerId = "A6FDB8B9-512B-4F31-B986-CD5B604F5662";
paths = (
{
closed = 1;
nodes = (
"239 644 LINE",
"365 610 LINE SMOOTH",
"412 597 OFFCURVE",
"442 594 OFFCURVE",
"540 768 CURVE",
"498 808 LINE",
"426 754 LINE",
"300 788 LINE SMOOTH",
"247 802 OFFCURVE",
"221 796 OFFCURVE",
"126 630 CURVE",
"167 590 LINE"
);
}
);
width = 508;
}
);
leftKerningGroup = o;
rightKerningGroup = o;
unicode = 00F5;
},
{
color = 4;
glyphname = oe;
lastChange = "2020-02-24 20:55:26 +0000";
layers = (
{
anchors = (
{
name = bottom;
position = "{324, 0}";
},
{
name = top;
position = "{420, 478}";
}
);
layerId = "0E5388DE-A0E6-4EB4-BC9B-CE5870C9023F";
paths = (
{
closed = 1;
nodes = (
"306 -7 OFFCURVE",
"405 131 OFFCURVE",
"405 296 CURVE SMOOTH",
"405 414 OFFCURVE",
"353 485 OFFCURVE",
"268 485 CURVE SMOOTH",
"148 485 OFFCURVE",
"49 349 OFFCURVE",
"49 186 CURVE SMOOTH",
"49 67 OFFCURVE",
"103 -7 OFFCURVE",
"189 -7 CURVE SMOOTH"
);
},
{
closed = 1;
nodes = (
"169 22 OFFCURVE",
"137 42 OFFCURVE",
"101 62 CURVE",
"41 212 OFFCURVE",
"112 416 OFFCURVE",
"241 462 CURVE",
"276 458 OFFCURVE",
"284 455 OFFCURVE",
"357 417 CURVE",
"416 263 OFFCURVE",
"345 60 OFFCURVE",
"216 16 CURVE"
);
},
{
closed = 1;
nodes = (
"586 -7 OFFCURVE",
"647 37 OFFCURVE",
"682 112 CURVE",
"672 118 LINE",
"608 26 OFFCURVE",
"526 1 OFFCURVE",
"436 48 CURVE",
"359 198 OFFCURVE",
"426 407 OFFCURVE",
"567 460 CURVE",
"600 458 OFFCURVE",
"624 448 OFFCURVE",
"663 432 CURVE",
"669 416 OFFCURVE",
"672 400 OFFCURVE",
"672 386 CURVE SMOOTH",
"672 304 OFFCURVE",
"584 253 OFFCURVE",
"391 224 CURVE",
"391 197 LINE",
"597 226 OFFCURVE",
"705 290 OFFCURVE",
"705 383 CURVE SMOOTH",
"705 440 OFFCURVE",
"656 485 OFFCURVE",
"594 485 CURVE SMOOTH",
"477 485 OFFCURVE",
"373 343 OFFCURVE",
"373 183 CURVE SMOOTH",
"373 68 OFFCURVE",
"430 -7 OFFCURVE",
"517 -7 CURVE SMOOTH"
);
}
);
width = 747;
},
{
anchors = (
{
name = bottom;
position = "{334, 0}";
},
{
name = top;
position = "{438, 516}";
}
);
layerId = "A6FDB8B9-512B-4F31-B986-CD5B604F5662";
paths = (
{
closed = 1;
nodes = (
"356 -15 OFFCURVE",
"468 118 OFFCURVE",
"468 303 CURVE SMOOTH",
"468 448 OFFCURVE",
"399 529 OFFCURVE",
"276 529 CURVE SMOOTH",
"119 529 OFFCURVE",
"5 397 OFFCURVE",
"5 215 CURVE SMOOTH",
"5 70 OFFCURVE",
"78 -15 OFFCURVE",
"202 -15 CURVE SMOOTH"
);
},
{
closed = 1;
nodes = (
"242 110 OFFCURVE",
"226 113 OFFCURVE",
"197 123 CURVE",
"194 203 OFFCURVE",
"223 338 OFFCURVE",
"255 398 CURVE",
"271 398 OFFCURVE",
"290 394 OFFCURVE",
"315 385 CURVE",
"319 309 OFFCURVE",
"289 172 OFFCURVE",
"256 111 CURVE"
);
},
{
closed = 1;
nodes = (
"624 -15 OFFCURVE",
"716 53 OFFCURVE",
"748 157 CURVE",
"729 184 LINE",
"634 143 OFFCURVE",
"530 135 OFFCURVE",
"491 165 CURVE",
"491 277 OFFCURVE",
"505 343 OFFCURVE",
"541 399 CURVE",
"554 399 OFFCURVE",
"569 397 OFFCURVE",
"586 393 CURVE",
"587 385 OFFCURVE",
"587 378 OFFCURVE",
"587 371 CURVE SMOOTH",
"587 302 OFFCURVE",
"553 284 OFFCURVE",
"444 280 CURVE",
"444 212 LINE",
"621 188 OFFCURVE",
"771 264 OFFCURVE",
"771 380 CURVE SMOOTH",
"771 473 OFFCURVE",
"702 529 OFFCURVE",
"586 529 CURVE SMOOTH",
"442 529 OFFCURVE",
"339 400 OFFCURVE",
"339 223 CURVE SMOOTH",
"339 77 OFFCURVE",
"407 -15 OFFCURVE",
"514 -15 CURVE SMOOTH"
);
}
);
width = 771;
}
);
leftKerningGroup = o;
rightKerningGroup = e;
unicode = 0153;
},
{
color = 4;
glyphname = p;
lastChange = "2020-02-24 20:55:26 +0000";
layers = (
{
anchors = (
{
name = bottom;
position = "{239, 0}";
},
{
name = top;
position = "{343, 516}";
}
);
layerId = "A6FDB8B9-512B-4F31-B986-CD5B604F5662";
paths = (
{
closed = 1;
nodes = (
"445 -12 OFFCURVE",
"577 171 OFFCURVE",
"577 348 CURVE SMOOTH",
"577 469 OFFCURVE",
"518 521 OFFCURVE",
"403 521 CURVE",
"308 412 OFFCURVE",
"249 294 OFFCURVE",
"200 173 CURVE",
"229 143 LINE",
"267 231 OFFCURVE",
"314 312 OFFCURVE",
"372 384 CURVE",
"350 382 LINE",
"369 379 OFFCURVE",
"386 372 OFFCURVE",
"401 361 CURVE",
"394 377 LINE",
"381 275 OFFCURVE",
"355 178 OFFCURVE",
"315 84 CURVE",
"372 109 LINE",
"311 107 OFFCURVE",
"258 113 OFFCURVE",
"208 125 CURVE",
"207 70 LINE",
"219 18 OFFCURVE",
"257 -12 OFFCURVE",
"311 -12 CURVE SMOOTH"
);
},
{
closed = 1;
nodes = (
"241 -196 LINE",
"256 -126 LINE",
"67 -68 LINE",
"28 -78 OFFCURVE",
"-15 -96 OFFCURVE",
"-82 -130 CURVE",
"-95 -196 LINE"
);
},
{
closed = 1;
nodes = (
"168 -196 LINE",
"274 312 LINE",
"257 320 LINE",
"303 453 LINE",
"276 501 OFFCURVE",
"230 522 OFFCURVE",
"183 522 CURVE SMOOTH",
"107 522 OFFCURVE",
"28 468 OFFCURVE",
"14 379 CURVE",
"67 377 OFFCURVE",
"111 373 OFFCURVE",
"145 384 CURVE",
"119 475 LINE",
"-36 -196 LINE"
);
}
);
width = 574;
},
{
anchors = (
{
name = bottom;
position = "{203, 0}";
},
{
name = top;
position = "{299, 478}";
}
);
layerId = "0E5388DE-A0E6-4EB4-BC9B-CE5870C9023F";
paths = (
{
closed = 1;
nodes = (
"351 -7 OFFCURVE",
"450 134 OFFCURVE",
"450 309 CURVE SMOOTH",
"450 434 OFFCURVE",
"399 498 OFFCURVE",
"315 481 CURVE",
"236 424 OFFCURVE",
"170 315 OFFCURVE",
"101 129 CURVE",
"115 120 LINE",
"188 311 OFFCURVE",
"261 424 OFFCURVE",
"340 468 CURVE",
"316 463 LINE",
"356 456 OFFCURVE",
"387 437 OFFCURVE",
"423 416 CURVE",
"397 439 LINE",
"464 264 OFFCURVE",
"383 38 OFFCURVE",
"242 9 CURVE",
"268 7 LINE",
"198 17 OFFCURVE",
"142 41 OFFCURVE",
"102 79 CURVE",
"101 69 LINE",
"127 21 OFFCURVE",
"174 -7 OFFCURVE",
"229 -7 CURVE SMOOTH"
);
},
{
closed = 1;
nodes = (
"163 -195 LINE",
"164 -186 LINE",
"47 -166 LINE",
"13 -169 OFFCURVE",
"-5 -173 OFFCURVE",
"-35 -185 CURVE",
"-36 -195 LINE"
);
},
{
closed = 1;
nodes = (
"56 -195 LINE",
"142 226 LINE",
"139 228 LINE",
"186 437 LINE",
"177 466 OFFCURVE",
"158 483 OFFCURVE",
"134 483 CURVE SMOOTH",
"107 483 OFFCURVE",
"80 459 OFFCURVE",
"68 424 CURVE",
"97 435 OFFCURVE",
"127 439 OFFCURVE",
"168 437 CURVE",
"161 456 LINE",
"23 -195 LINE"
);
}
);
width = 500;
}
);
leftKerningGroup = p;
rightKerningGroup = o;
unicode = 0070;
},
{
color = 4;
glyphname = thorn;
lastChange = "2020-02-24 20:55:26 +0000";
layers = (
{
anchors = (
{
name = bottom;
position = "{199, 0}";
},
{
name = top;
position = "{295, 478}";
}
);
layerId = "0E5388DE-A0E6-4EB4-BC9B-CE5870C9023F";
paths = (
{
closed = 1;
nodes = (
"47 -195 LINE",
"133 226 LINE",
"130 228 LINE",
"173 416 LINE",
"235 725 LINE",
"206 718 LINE",
"14 -195 LINE"
);
},
{
closed = 1;
nodes = (
"154 -195 LINE",
"155 -186 LINE",
"38 -166 LINE",
"6 -169 OFFCURVE",
"-12 -173 OFFCURVE",
"-44 -185 CURVE",
"-45 -195 LINE"
);
},
{
closed = 1;
nodes = (
"235 725 LINE",
"196 725 OFFCURVE",
"160 720 OFFCURVE",
"112 708 CURVE",
"207 685 LINE"
);
},
{
closed = 1;
nodes = (
"342 -7 OFFCURVE",
"441 134 OFFCURVE",
"441 309 CURVE SMOOTH",
"441 434 OFFCURVE",
"390 498 OFFCURVE",
"306 481 CURVE",
"227 424 OFFCURVE",
"161 315 OFFCURVE",
"92 129 CURVE",
"106 120 LINE",
"179 311 OFFCURVE",
"252 424 OFFCURVE",
"331 468 CURVE",
"307 463 LINE",
"347 456 OFFCURVE",
"378 437 OFFCURVE",
"414 416 CURVE",
"388 439 LINE",
"455 264 OFFCURVE",
"374 38 OFFCURVE",
"233 9 CURVE",
"259 7 LINE",
"189 17 OFFCURVE",
"133 41 OFFCURVE",
"93 79 CURVE",
"92 69 LINE",
"118 21 OFFCURVE",
"165 -7 OFFCURVE",
"220 -7 CURVE SMOOTH"
);
}
);
width = 491;
},
{
anchors = (
{
name = bottom;
position = "{226, 0}";
},
{
name = top;
position = "{330, 516}";
}
);
layerId = "A6FDB8B9-512B-4F31-B986-CD5B604F5662";
paths = (
{
closed = 1;
nodes = (
"143 -196 LINE",
"249 312 LINE",
"232 320 LINE",
"289 506 LINE",
"342 769 LINE",
"148 709 LINE",
"-61 -196 LINE"
);
},
{
closed = 1;
nodes = (
"216 -196 LINE",
"231 -126 LINE",
"42 -68 LINE",
"3 -78 OFFCURVE",
"-40 -96 OFFCURVE",
"-107 -130 CURVE",
"-120 -196 LINE"
);
},
{
closed = 1;
nodes = (
"342 769 LINE",
"242 773 OFFCURVE",
"150 755 OFFCURVE",
"67 716 CURVE",
"135 584 LINE"
);
},
{
closed = 1;
nodes = (
"420 -12 OFFCURVE",
"552 171 OFFCURVE",
"552 348 CURVE SMOOTH",
"552 469 OFFCURVE",
"493 521 OFFCURVE",
"378 521 CURVE",
"283 412 OFFCURVE",
"224 294 OFFCURVE",
"175 173 CURVE",
"204 143 LINE",
"242 231 OFFCURVE",
"289 312 OFFCURVE",
"347 384 CURVE",
"325 382 LINE",
"344 379 OFFCURVE",
"361 372 OFFCURVE",
"376 361 CURVE",
"369 377 LINE",
"356 275 OFFCURVE",
"330 178 OFFCURVE",
"290 84 CURVE",
"347 109 LINE",
"286 107 OFFCURVE",
"233 113 OFFCURVE",
"183 125 CURVE",
"182 70 LINE",
"194 18 OFFCURVE",
"232 -12 OFFCURVE",
"286 -12 CURVE SMOOTH"
);
}
);
width = 549;
}
);
leftKerningGroup = h;
rightKerningGroup = o;
unicode = 00FE;
},
{
color = 4;
glyphname = q;
lastChange = "2020-02-24 20:55:26 +0000";
layers = (
{
anchors = (
{
name = bottom;
position = "{221, 0}";
},
{
name = top;
position = "{325, 516}";
}
);
layerId = "A6FDB8B9-512B-4F31-B986-CD5B604F5662";
paths = (
{
closed = 1;
nodes = (
"266 102 OFFCURVE",
"325 220 OFFCURVE",
"374 341 CURVE",
"345 371 LINE",
"307 283 OFFCURVE",
"260 202 OFFCURVE",
"202 130 CURVE",
"224 132 LINE",
"205 135 OFFCURVE",
"188 142 OFFCURVE",
"173 153 CURVE",
"180 137 LINE",
"193 239 OFFCURVE",
"219 336 OFFCURVE",
"259 430 CURVE",
"202 405 LINE",
"263 407 OFFCURVE",
"316 401 OFFCURVE",
"366 389 CURVE",
"367 444 LINE",
"355 496 OFFCURVE",
"317 526 OFFCURVE",
"263 526 CURVE SMOOTH",
"129 526 OFFCURVE",
"-3 343 OFFCURVE",
"-3 166 CURVE SMOOTH",
"-3 45 OFFCURVE",
"56 -7 OFFCURVE",
"171 -7 CURVE"
);
},
{
closed = 1;
nodes = (
"482 -196 LINE",
"497 -126 LINE",
"308 -68 LINE",
"271 -77 OFFCURVE",
"223 -97 OFFCURVE",
"159 -130 CURVE",
"146 -196 LINE"
);
},
{
closed = 1;
nodes = (
"409 -196 LINE",
"561 516 LINE",
"374 516 LINE",
"296 202 LINE",
"318 194 LINE",
"258 26 LINE",
"205 -196 LINE"
);
}
);
width = 551;
},
{
anchors = (
{
name = bottom;
position = "{192, 0}";
},
{
name = top;
position = "{288, 478}";
}
);
layerId = "0E5388DE-A0E6-4EB4-BC9B-CE5870C9023F";
paths = (
{
closed = 1;
nodes = (
"264 55 OFFCURVE",
"330 164 OFFCURVE",
"399 350 CURVE",
"385 359 LINE",
"312 168 OFFCURVE",
"239 55 OFFCURVE",
"160 11 CURVE",
"184 16 LINE",
"144 23 OFFCURVE",
"113 42 OFFCURVE",
"77 63 CURVE",
"103 40 LINE",
"36 215 OFFCURVE",
"117 441 OFFCURVE",
"258 470 CURVE",
"232 472 LINE",
"302 462 OFFCURVE",
"358 438 OFFCURVE",
"398 400 CURVE",
"399 410 LINE",
"373 458 OFFCURVE",
"326 486 OFFCURVE",
"271 486 CURVE SMOOTH",
"149 486 OFFCURVE",
"50 345 OFFCURVE",
"50 170 CURVE SMOOTH",
"50 45 OFFCURVE",
"101 -19 OFFCURVE",
"185 -2 CURVE"
);
},
{
closed = 1;
nodes = (
"372 -195 LINE",
"373 -186 LINE",
"292 -166 LINE",
"250 -169 OFFCURVE",
"223 -174 OFFCURVE",
"174 -185 CURVE",
"172 -195 LINE"
);
},
{
closed = 1;
nodes = (
"297 -195 LINE",
"434 478 LINE",
"405 478 LINE",
"358 251 LINE",
"361 250 LINE",
"321 77 LINE",
"265 -195 LINE"
);
}
);
width = 481;
}
);
leftKerningGroup = o;
rightKerningGroup = q;
unicode = 0071;
},
{
color = 4;
glyphname = r;
lastChange = "2020-02-24 20:55:26 +0000";
layers = (
{
anchors = (
{
name = bottom;
position = "{110, 0}";
},
{
name = top;
position = "{309, 516}";
}
);
layerId = "A6FDB8B9-512B-4F31-B986-CD5B604F5662";
rightMetricsKey = "=25";
paths = (
{
closed = 1;
nodes = (
"212 0 LINE",
"267 282 LINE",
"247 289 LINE",
"302 453 LINE",
"275 501 OFFCURVE",
"229 522 OFFCURVE",
"181 522 CURVE SMOOTH",
"106 522 OFFCURVE",
"27 469 OFFCURVE",
"13 379 CURVE",
"90 376 OFFCURVE",
"116 377 OFFCURVE",
"144 384 CURVE",
"118 475 LINE",
"8 0 LINE"
);
},
{
closed = 1;
nodes = (
"236 152 OFFCURVE",
"272 228 OFFCURVE",
"316 293 CURVE",
"429 259 LINE",
"487 521 LINE",
"392 535 OFFCURVE",
"311 431 OFFCURVE",
"188 126 CURVE",
"202 52 LINE"
);
}
);
width = 459;
},
{
anchors = (
{
name = bottom;
position = "{78, 0}";
},
{
name = top;
position = "{233, 478}";
}
);
layerId = "0E5388DE-A0E6-4EB4-BC9B-CE5870C9023F";
rightMetricsKey = "=12";
paths = (
{
closed = 1;
nodes = (
"95 0 LINE",
"140 226 LINE",
"137 227 LINE",
"184 437 LINE",
"175 466 OFFCURVE",
"156 483 OFFCURVE",
"132 483 CURVE SMOOTH",
"104 483 OFFCURVE",
"78 460 OFFCURVE",
"66 424 CURVE",
"95 435 OFFCURVE",
"126 439 OFFCURVE",
"166 437 CURVE",
"159 456 LINE",
"62 0 LINE"
);
},
{
closed = 1;
nodes = (
"184 293 OFFCURVE",
"245 387 OFFCURVE",
"306 436 CURVE",
"347 424 LINE",
"363 484 LINE",
"293 491 OFFCURVE",
"203 377 OFFCURVE",
"107 159 CURVE",
"118 141 LINE"
);
}
);
width = 326;
}
);
leftKerningGroup = n;
rightKerningGroup = r;
unicode = 0072;
},
{
color = 4;
glyphname = s;
lastChange = "2020-02-24 20:55:26 +0000";
layers = (
{
anchors = (
{
name = bottom;
position = "{173, 0}";
},
{
name = top;
position = "{287, 516}";
}
);
background = {
paths = (
{
closed = 1;
nodes = (
"38 17 OFFCURVE",
"112 -10 OFFCURVE",
"190 -10 CURVE SMOOTH",
"324 -10 OFFCURVE",
"431 68 OFFCURVE",
"431 166 CURVE SMOOTH",
"431 307 OFFCURVE",
"216 335 OFFCURVE",
"216 381 CURVE SMOOTH",
"216 387 OFFCURVE",
"217 394 OFFCURVE",
"221 402 CURVE",
"119 388 LINE",
"253 396 OFFCURVE",
"352 388 OFFCURVE",
"396 370 CURVE",
"464 491 LINE",
"403 515 OFFCURVE",
"341 526 OFFCURVE",
"284 526 CURVE SMOOTH",
"145 526 OFFCURVE",
"34 461 OFFCURVE",
"34 356 CURVE SMOOTH",
"34 213 OFFCURVE",
"248 182 OFFCURVE",
"248 136 CURVE SMOOTH",
"248 124 OFFCURVE",
"241 116 OFFCURVE",
"231 109 CURVE",
"277 109 LINE",
"21 192 LINE",
"-9 64 LINE"
);
},
{
closed = 1;
nodes = (
"428 327 LINE",
"464 491 LINE",
"287 490 LINE",
"341 327 LINE"
);
}
);
};
layerId = "A6FDB8B9-512B-4F31-B986-CD5B604F5662";
paths = (
{
closed = 1;
nodes = (
"38 17 OFFCURVE",
"112 -10 OFFCURVE",
"190 -10 CURVE SMOOTH",
"324 -10 OFFCURVE",
"431 68 OFFCURVE",
"431 166 CURVE SMOOTH",
"431 307 OFFCURVE",
"216 335 OFFCURVE",
"216 381 CURVE SMOOTH",
"216 387 OFFCURVE",
"217 394 OFFCURVE",
"221 402 CURVE",
"149 394 LINE",
"236 394 OFFCURVE",
"319 387 OFFCURVE",
"396 370 CURVE",
"464 491 LINE",
"403 515 OFFCURVE",
"341 526 OFFCURVE",
"284 526 CURVE SMOOTH",
"145 526 OFFCURVE",
"34 461 OFFCURVE",
"34 356 CURVE SMOOTH",
"34 213 OFFCURVE",
"248 182 OFFCURVE",
"248 136 CURVE SMOOTH",
"248 124 OFFCURVE",
"241 116 OFFCURVE",
"231 109 CURVE",
"277 109 LINE",
"21 192 LINE",
"-9 64 LINE"
);
},
{
closed = 1;
nodes = (
"428 327 LINE",
"464 491 LINE",
"287 490 LINE",
"341 327 LINE"
);
}
);
width = 461;
},
{
anchors = (
{
name = bottom;
position = "{147, 0}";
},
{
name = top;
position = "{243, 478}";
}
);
background = {
paths = (
{
closed = 1;
nodes = (
"52 11 OFFCURVE",
"119 -7 OFFCURVE",
"163 -7 CURVE SMOOTH",
"245 -7 OFFCURVE",
"315 47 OFFCURVE",
"315 110 CURVE SMOOTH",
"315 224 OFFCURVE",
"99 282 OFFCURVE",
"99 375 CURVE SMOOTH",
"99 404 OFFCURVE",
"120 434 OFFCURVE",
"150 449 CURVE",
"203 456 OFFCURVE",
"243 453 OFFCURVE",
"340 436 CURVE",
"347 464 LINE",
"312 478 OFFCURVE",
"273 485 OFFCURVE",
"236 485 CURVE SMOOTH",
"139 485 OFFCURVE",
"69 437 OFFCURVE",
"69 371 CURVE SMOOTH",
"69 257 OFFCURVE",
"285 199 OFFCURVE",
"285 105 CURVE SMOOTH",
"285 65 OFFCURVE",
"238 22 OFFCURVE",
"183 12 CURVE",
"18 59 LINE",
"12 34 LINE"
);
},
{
closed = 1;
nodes = (
"322 342 LINE",
"347 464 LINE",
"304 465 LINE",
"312 342 LINE"
);
}
);
};
layerId = "0E5388DE-A0E6-4EB4-BC9B-CE5870C9023F";
paths = (
{
closed = 1;
nodes = (
"52 11 OFFCURVE",
"119 -7 OFFCURVE",
"163 -7 CURVE SMOOTH",
"245 -7 OFFCURVE",
"315 47 OFFCURVE",
"315 110 CURVE SMOOTH",
"315 224 OFFCURVE",
"99 282 OFFCURVE",
"99 375 CURVE SMOOTH",
"99 407 OFFCURVE",
"124 440 OFFCURVE",
"159 453 CURVE",
"142 448 LINE",
"199 456 OFFCURVE",
"238 454 OFFCURVE",
"340 436 CURVE",
"347 464 LINE",
"312 478 OFFCURVE",
"273 485 OFFCURVE",
"236 485 CURVE SMOOTH",
"139 485 OFFCURVE",
"69 437 OFFCURVE",
"69 371 CURVE SMOOTH",
"69 257 OFFCURVE",
"285 199 OFFCURVE",
"285 105 CURVE SMOOTH",
"285 63 OFFCURVE",
"232 17 OFFCURVE",
"173 11 CURVE",
"196 8 LINE",
"18 59 LINE",
"12 34 LINE"
);
},
{
closed = 1;
nodes = (
"322 342 LINE",
"347 464 LINE",
"306 465 LINE",
"314 342 LINE"
);
}
);
width = 390;
}
);
leftKerningGroup = s;
rightKerningGroup = s;
unicode = 0073;
},
{
color = 4;
glyphname = scaron;
lastChange = "2020-02-24 20:56:35 +0000";
layers = (
{
anchors = (
{
name = top;
position = "{284, 684}";
}
);
components = (
{
name = s;
}
);
layerId = "0E5388DE-A0E6-4EB4-BC9B-CE5870C9023F";
paths = (
{
closed = 1;
nodes = (
"266 581 LINE",
"383 672 LINE",
"373 684 LINE",
"264 612 LINE",
"177 684 LINE",
"165 672 LINE",
"254 581 LINE"
);
}
);
width = 390;
},
{
anchors = (
{
name = top;
position = "{349, 827}";
}
);
components = (
{
name = s;
}
);
layerId = "A6FDB8B9-512B-4F31-B986-CD5B604F5662";
paths = (
{
closed = 1;
nodes = (
"374 581 LINE",
"533 753 LINE",
"467 827 LINE",
"319 725 LINE",
"206 827 LINE",
"116 753 LINE",
"232 581 LINE"
);
}
);
width = 461;
}
);
leftKerningGroup = s;
rightKerningGroup = s;
unicode = 0161;
},
{
color = 4;
glyphname = germandbls;
lastChange = "2020-02-24 20:55:26 +0000";
layers = (
{
anchors = (
{
name = bottom;
position = "{221, 0}";
},
{
name = top;
position = "{374, 727}";
}
);
layerId = "0E5388DE-A0E6-4EB4-BC9B-CE5870C9023F";
paths = (
{
closed = 1;
nodes = (
"24 -208 OFFCURVE",
"80 -152 OFFCURVE",
"93 -72 CURVE SMOOTH",
"182 474 LINE",
"201 624 OFFCURVE",
"205 641 OFFCURVE",
"235 699 CURVE",
"224 686 LINE",
"264 698 OFFCURVE",
"303 705 OFFCURVE",
"337 705 CURVE SMOOTH",
"406 705 OFFCURVE",
"441 675 OFFCURVE",
"441 617 CURVE SMOOTH",
"441 515 OFFCURVE",
"277 480 OFFCURVE",
"277 382 CURVE SMOOTH",
"277 266 OFFCURVE",
"458 200 OFFCURVE",
"458 104 CURVE SMOOTH",
"458 60 OFFCURVE",
"421 21 OFFCURVE",
"370 10 CURVE",
"209 57 LINE",
"203 34 LINE",
"253 10 OFFCURVE",
"315 -7 OFFCURVE",
"352 -7 CURVE SMOOTH",
"428 -7 OFFCURVE",
"487 43 OFFCURVE",
"487 109 CURVE SMOOTH",
"487 221 OFFCURVE",
"306 291 OFFCURVE",
"306 384 CURVE SMOOTH",
"306 469 OFFCURVE",
"470 503 OFFCURVE",
"470 619 CURVE SMOOTH",
"470 698 OFFCURVE",
"429 733 OFFCURVE",
"338 733 CURVE SMOOTH",
"240 733 OFFCURVE",
"187 692 OFFCURVE",
"173 606 CURVE SMOOTH",
"63 -70 LINE SMOOTH",
"57 -109 OFFCURVE",
"52 -123 OFFCURVE",
"29 -164 CURVE",
"-26 -169 OFFCURVE",
"-95 -167 OFFCURVE",
"-135 -167 CURVE",
"-124 -190 OFFCURVE",
"-84 -208 OFFCURVE",
"-44 -208 CURVE SMOOTH"
);
},
{
closed = 1;
nodes = (
"160 452 LINE",
"166 478 LINE",
"154 478 LINE SMOOTH",
"120 478 OFFCURVE",
"90 472 OFFCURVE",
"58 459 CURVE",
"57 452 LINE"
);
}
);
width = 531;
},
{
anchors = (
{
name = bottom;
position = "{290, 0}";
},
{
name = top;
position = "{503, 769}";
}
);
layerId = "A6FDB8B9-512B-4F31-B986-CD5B604F5662";
paths = (
{
closed = 1;
nodes = (
"96 -205 OFFCURVE",
"197 -77 OFFCURVE",
"222 87 CURVE SMOOTH",
"284 499 LINE",
"279 583 OFFCURVE",
"280 626 OFFCURVE",
"289 671 CURVE",
"134 619 LINE",
"220 625 OFFCURVE",
"283 629 OFFCURVE",
"328 629 CURVE SMOOTH",
"409 629 OFFCURVE",
"432 616 OFFCURVE",
"432 582 CURVE SMOOTH",
"432 512 OFFCURVE",
"311 474 OFFCURVE",
"311 351 CURVE SMOOTH",
"311 219 OFFCURVE",
"479 183 OFFCURVE",
"479 136 CURVE SMOOTH",
"479 129 OFFCURVE",
"478 126 OFFCURVE",
"475 121 CURVE",
"281 192 LINE",
"255 64 LINE",
"297 17 OFFCURVE",
"363 -10 OFFCURVE",
"437 -10 CURVE SMOOTH",
"563 -10 OFFCURVE",
"662 66 OFFCURVE",
"662 165 CURVE SMOOTH",
"662 308 OFFCURVE",
"493 331 OFFCURVE",
"493 384 CURVE SMOOTH",
"493 454 OFFCURVE",
"622 492 OFFCURVE",
"622 615 CURVE SMOOTH",
"622 718 OFFCURVE",
"549 779 OFFCURVE",
"402 779 CURVE SMOOTH",
"229 779 OFFCURVE",
"124 708 OFFCURVE",
"108 581 CURVE SMOOTH",
"61 205 LINE SMOOTH",
"46 83 OFFCURVE",
"44 42 OFFCURVE",
"41 -31 CURVE",
"-12 -35 OFFCURVE",
"-68 -35 OFFCURVE",
"-129 -31 CURVE",
"-158 -121 OFFCURVE",
"-100 -205 OFFCURVE",
"-9 -205 CURVE SMOOTH"
);
},
{
closed = 1;
nodes = (
"176 400 LINE",
"198 509 LINE",
"105 509 LINE",
"71 498 OFFCURVE",
"41 483 OFFCURVE",
"10 462 CURVE",
"-3 400 LINE"
);
}
);
width = 668;
}
);
leftKerningGroup = f;
unicode = 00DF;
},
{
color = 4;
glyphname = t;
lastChange = "2020-02-24 20:55:26 +0000";
layers = (
{
anchors = (
{
name = bottom;
position = "{185, 0}";
},
{
name = center;
position = "{202, 300}";
},
{
name = top;
position = "{230, 636}";
},
{
name = topright;
position = "{458, 769}";
}
);
layerId = "A6FDB8B9-512B-4F31-B986-CD5B604F5662";
paths = (
{
closed = 1;
nodes = (
"299 -15 OFFCURVE",
"375 63 OFFCURVE",
"393 199 CURVE",
"363 211 LINE",
"326 171 OFFCURVE",
"293 151 OFFCURVE",
"261 151 CURVE SMOOTH",
"245 151 OFFCURVE",
"230 156 OFFCURVE",
"214 166 CURVE",
"213 74 LINE",
"329 653 LINE",
"147 653 LINE",
"22 116 LINE",
"38 33 OFFCURVE",
"98 -15 OFFCURVE",
"186 -15 CURVE SMOOTH"
);
},
{
closed = 1;
nodes = (
"422 400 LINE",
"443 509 LINE",
"121 509 LINE",
"87 498 OFFCURVE",
"57 483 OFFCURVE",
"26 462 CURVE",
"13 400 LINE"
);
}
);
width = 418;
},
{
anchors = (
{
name = bottom;
position = "{142, 0}";
},
{
name = center;
position = "{182, 281}";
},
{
name = top;
position = "{188, 592}";
},
{
name = topright;
position = "{320, 689}";
}
);
layerId = "0E5388DE-A0E6-4EB4-BC9B-CE5870C9023F";
paths = (
{
closed = 1;
nodes = (
"218 -7 OFFCURVE",
"280 53 OFFCURVE",
"303 136 CURVE",
"290 141 LINE",
"263 71 OFFCURVE",
"212 26 OFFCURVE",
"160 26 CURVE SMOOTH",
"132 26 OFFCURVE",
"107 40 OFFCURVE",
"86 68 CURVE",
"93 48 LINE",
"207 618 LINE",
"181 618 LINE",
"67 81 LINE",
"67 34 OFFCURVE",
"108 -7 OFFCURVE",
"155 -7 CURVE SMOOTH"
);
},
{
closed = 1;
nodes = (
"354 452 LINE",
"359 478 LINE",
"154 478 LINE SMOOTH",
"125 478 OFFCURVE",
"99 472 OFFCURVE",
"72 459 CURVE",
"71 452 LINE"
);
}
);
width = 360;
}
);
leftKerningGroup = t;
rightKerningGroup = t;
unicode = 0074;
},
{
color = 4;
glyphname = u;
lastChange = "2020-02-24 20:55:26 +0000";
layers = (
{
anchors = (
{
name = bottom;
position = "{245, 0}";
},
{
name = ogonek;
position = "{554, 10}";
},
{
name = top;
position = "{349, 516}";
},
{
name = topright;
position = "{626, 516}";
}
);
layerId = "A6FDB8B9-512B-4F31-B986-CD5B604F5662";
paths = (
{
closed = 1;
nodes = (
"273 502 OFFCURVE",
"228 523 OFFCURVE",
"183 523 CURVE SMOOTH",
"112 523 OFFCURVE",
"38 470 OFFCURVE",
"23 380 CURVE",
"85 377 OFFCURVE",
"146 381 OFFCURVE",
"222 391 CURVE",
"117 475 LINE",
"22 149 LINE SMOOTH",
"-9 41 OFFCURVE",
"57 -21 OFFCURVE",
"183 -4 CURVE",
"249 47 OFFCURVE",
"347 219 OFFCURVE",
"409 388 CURVE",
"395 463 LINE",
"350 328 OFFCURVE",
"300 232 OFFCURVE",
"224 136 CURVE",
"257 147 LINE",
"234 151 OFFCURVE",
"217 161 OFFCURVE",
"203 176 CURVE",
"220 152 LINE",
"300 454 LINE"
);
},
{
closed = 1;
nodes = (
"320 12 OFFCURVE",
"366 -9 OFFCURVE",
"413 -9 CURVE SMOOTH",
"488 -9 OFFCURVE",
"566 44 OFFCURVE",
"580 134 CURVE",
"535 138 OFFCURVE",
"496 137 OFFCURVE",
"449 130 CURVE",
"485 38 LINE",
"589 516 LINE",
"402 516 LINE",
"330 231 LINE",
"350 224 LINE",
"293 60 LINE"
);
}
);
width = 597;
},
{
anchors = (
{
name = bottom;
position = "{212, 0}";
},
{
name = ogonek;
position = "{446, 10}";
},
{
name = top;
position = "{308, 478}";
},
{
name = topright;
position = "{548, 478}";
}
);
layerId = "0E5388DE-A0E6-4EB4-BC9B-CE5870C9023F";
paths = (
{
closed = 1;
nodes = (
"176 462 OFFCURVE",
"159 483 OFFCURVE",
"135 483 CURVE SMOOTH",
"108 483 OFFCURVE",
"81 457 OFFCURVE",
"66 418 CURVE",
"95 433 OFFCURVE",
"132 441 OFFCURVE",
"168 441 CURVE",
"160 456 LINE",
"72 105 LINE SMOOTH",
"55 37 OFFCURVE",
"122 -19 OFFCURVE",
"194 3 CURVE",
"268 54 OFFCURVE",
"337 154 OFFCURVE",
"412 319 CURVE",
"400 336 LINE",
"324 165 OFFCURVE",
"235 45 OFFCURVE",
"161 13 CURVE",
"177 12 LINE",
"152 23 OFFCURVE",
"118 48 OFFCURVE",
"90 77 CURVE",
"92 55 LINE",
"181 426 LINE"
);
},
{
closed = 1;
nodes = (
"340 16 OFFCURVE",
"358 -5 OFFCURVE",
"384 -5 CURVE SMOOTH",
"412 -5 OFFCURVE",
"441 21 OFFCURVE",
"455 60 CURVE",
"422 44 OFFCURVE",
"388 36 OFFCURVE",
"353 36 CURVE",
"361 21 LINE",
"455 478 LINE",
"426 478 LINE",
"379 253 LINE",
"382 252 LINE",
"335 51 LINE"
);
}
);
width = 519;
}
);
leftKerningGroup = u;
rightKerningGroup = u;
unicode = 0075;
},
{
color = 4;
glyphname = uacute;
lastChange = "2020-02-24 20:56:35 +0000";
layers = (
{
anchors = (
{
name = top;
position = "{410, 823}";
}
);
components = (
{
name = u;
}
);
layerId = "A6FDB8B9-512B-4F31-B986-CD5B604F5662";
paths = (
{
closed = 1;
nodes = (
"370 591 OFFCURVE",
"462 625 OFFCURVE",
"553 667 CURVE",
"479 814 LINE",
"452 814 LINE",
"233 636 LINE",
"275 563 LINE"
);
}
);
width = 597;
},
{
anchors = (
{
name = top;
position = "{353, 703}";
}
);
components = (
{
name = u;
}
);
layerId = "0E5388DE-A0E6-4EB4-BC9B-CE5870C9023F";
paths = (
{
closed = 1;
nodes = (
"334 602 OFFCURVE",
"389 640 OFFCURVE",
"444 681 CURVE",
"428 703 LINE",
"422 703 LINE",
"266 574 LINE",
"272 565 LINE"
);
}
);
width = 519;
}
);
leftKerningGroup = u;
rightKerningGroup = u;
unicode = 00FA;
},
{
color = 4;
glyphname = udieresis;
lastChange = "2020-02-24 20:56:35 +0000";
layers = (
{
anchors = (
{
name = top;
position = "{346, 668}";
}
);
components = (
{
name = u;
}
);
layerId = "0E5388DE-A0E6-4EB4-BC9B-CE5870C9023F";
paths = (
{
closed = 1;
nodes = (
"270 665 OFFCURVE",
"257 657 OFFCURVE",
"245 645 CURVE",
"248 633 OFFCURVE",
"256 620 OFFCURVE",
"267 607 CURVE",
"281 609 OFFCURVE",
"296 617 OFFCURVE",
"306 628 CURVE",
"304 642 OFFCURVE",
"297 656 OFFCURVE",
"285 668 CURVE"
);
},
{
closed = 1;
nodes = (
"399 665 OFFCURVE",
"385 657 OFFCURVE",
"374 645 CURVE",
"378 630 OFFCURVE",
"386 617 OFFCURVE",
"397 607 CURVE",
"410 609 OFFCURVE",
"423 616 OFFCURVE",
"435 628 CURVE",
"433 642 OFFCURVE",
"426 655 OFFCURVE",
"415 668 CURVE"
);
}
);
width = 519;
},
{
anchors = (
{
name = top;
position = "{407, 808}";
}
);
components = (
{
name = u;
}
);
layerId = "A6FDB8B9-512B-4F31-B986-CD5B604F5662";
paths = (
{
closed = 1;
nodes = (
"243 799 OFFCURVE",
"191 767 OFFCURVE",
"154 729 CURVE",
"163 672 OFFCURVE",
"196 617 OFFCURVE",
"237 584 CURVE",
"290 591 OFFCURVE",
"345 625 OFFCURVE",
"379 666 CURVE",
"371 720 OFFCURVE",
"340 771 OFFCURVE",
"298 808 CURVE"
);
},
{
closed = 1;
nodes = (
"479 799 OFFCURVE",
"427 767 OFFCURVE",
"390 729 CURVE",
"399 672 OFFCURVE",
"431 617 OFFCURVE",
"472 584 CURVE",
"526 591 OFFCURVE",
"581 625 OFFCURVE",
"615 666 CURVE",
"607 720 OFFCURVE",
"574 771 OFFCURVE",
"533 808 CURVE"
);
}
);
width = 597;
}
);
leftKerningGroup = u;
rightKerningGroup = u;
unicode = 00FC;
},
{
color = 4;
glyphname = ugrave;
lastChange = "2020-02-24 20:56:35 +0000";
layers = (
{
anchors = (
{
name = top;
position = "{353, 703}";
}
);
components = (
{
name = u;
}
);
layerId = "0E5388DE-A0E6-4EB4-BC9B-CE5870C9023F";
paths = (
{
closed = 1;
nodes = (
"410 574 LINE",
"254 703 LINE",
"248 703 LINE",
"232 681 LINE",
"287 640 OFFCURVE",
"342 602 OFFCURVE",
"404 565 CURVE"
);
}
);
width = 519;
},
{
anchors = (
{
name = top;
position = "{410, 823}";
}
);
components = (
{
name = u;
}
);
layerId = "A6FDB8B9-512B-4F31-B986-CD5B604F5662";
paths = (
{
closed = 1;
nodes = (
"531 636 LINE",
"312 814 LINE",
"285 814 LINE",
"211 667 LINE",
"302 625 OFFCURVE",
"394 591 OFFCURVE",
"489 563 CURVE"
);
}
);
width = 597;
}
);
leftKerningGroup = u;
rightKerningGroup = u;
unicode = 00F9;
},
{
color = 4;
glyphname = v;
lastChange = "2020-02-24 20:55:26 +0000";
layers = (
{
anchors = (
{
name = bottom;
position = "{187, 0}";
},
{
name = top;
position = "{291, 516}";
}
);
layerId = "A6FDB8B9-512B-4F31-B986-CD5B604F5662";
paths = (
{
closed = 1;
nodes = (
"249 154 LINE",
"252 458 LINE",
"224 501 OFFCURVE",
"182 520 OFFCURVE",
"140 520 CURVE SMOOTH",
"66 520 OFFCURVE",
"-8 463 OFFCURVE",
"-11 372 CURVE",
"28 369 OFFCURVE",
"60 370 OFFCURVE",
"101 377 CURVE",
"57 471 LINE",
"88 -3 LINE",
"254 -2 OFFCURVE",
"274 2 OFFCURVE",
"319 58 CURVE SMOOTH",
"389 144 OFFCURVE",
"470 275 OFFCURVE",
"497 347 CURVE SMOOTH",
"535 449 OFFCURVE",
"497 517 OFFCURVE",
"410 517 CURVE SMOOTH",
"382 517 OFFCURVE",
"350 511 OFFCURVE",
"313 496 CURVE",
"376 275 LINE",
"376 420 LINE",
"349 329 OFFCURVE",
"312 244 OFFCURVE",
"261 154 CURVE"
);
}
);
width = 477;
},
{
anchors = (
{
name = bottom;
position = "{163, 0}";
},
{
name = top;
position = "{259, 478}";
}
);
layerId = "0E5388DE-A0E6-4EB4-BC9B-CE5870C9023F";
paths = (
{
closed = 1;
nodes = (
"182 28 LINE",
"133 448 LINE",
"125 469 OFFCURVE",
"110 482 OFFCURVE",
"91 482 CURVE SMOOTH",
"66 482 OFFCURVE",
"45 458 OFFCURVE",
"40 425 CURVE",
"58 433 OFFCURVE",
"88 437 OFFCURVE",
"121 436 CURVE",
"99 460 LINE",
"161 -6 LINE",
"185 -6 OFFCURVE",
"189 -3 OFFCURVE",
"205 21 CURVE SMOOTH",
"275 125 OFFCURVE",
"367 292 OFFCURVE",
"408 391 CURVE SMOOTH",
"432 451 OFFCURVE",
"423 478 OFFCURVE",
"377 478 CURVE SMOOTH",
"368 478 OFFCURVE",
"364 478 OFFCURVE",
"359 477 CURVE",
"394 395 LINE",
"396 426 LINE",
"353 318 OFFCURVE",
"282 185 OFFCURVE",
"184 28 CURVE"
);
}
);
width = 421;
}
);
leftKerningGroup = v;
rightKerningGroup = v;
unicode = 0076;
},
{
color = 4;
glyphname = w;
lastChange = "2020-02-24 20:55:26 +0000";
layers = (
{
anchors = (
{
name = bottom;
position = "{319, 0}";
},
{
name = top;
position = "{423, 516}";
}
);
layerId = "A6FDB8B9-512B-4F31-B986-CD5B604F5662";
paths = (
{
closed = 1;
nodes = (
"515 -2 OFFCURVE",
"531 2 OFFCURVE",
"579 61 CURVE SMOOTH",
"636 131 OFFCURVE",
"721 265 OFFCURVE",
"750 347 CURVE SMOOTH",
"760 375 OFFCURVE",
"765 400 OFFCURVE",
"765 422 CURVE SMOOTH",
"765 483 OFFCURVE",
"728 518 OFFCURVE",
"666 518 CURVE SMOOTH",
"638 518 OFFCURVE",
"604 511 OFFCURVE",
"567 496 CURVE",
"628 275 LINE",
"629 420 LINE",
"603 327 OFFCURVE",
"569 245 OFFCURVE",
"520 154 CURVE",
"508 154 LINE",
"516 458 LINE",
"491 499 OFFCURVE",
"450 520 OFFCURVE",
"400 520 CURVE SMOOTH",
"370 520 OFFCURVE",
"336 512 OFFCURVE",
"300 496 CURVE",
"376 219 LINE",
"347 412 LINE",
"356 -3 LINE"
);
},
{
closed = 1;
nodes = (
"265 -2 OFFCURVE",
"283 5 OFFCURVE",
"315 67 CURVE SMOOTH",
"348 130 OFFCURVE",
"410 281 OFFCURVE",
"444 375 CURVE",
"368 429 LINE",
"335 330 OFFCURVE",
"300 244 OFFCURVE",
"257 154 CURVE",
"245 154 LINE",
"252 458 LINE",
"225 501 OFFCURVE",
"183 520 OFFCURVE",
"141 520 CURVE SMOOTH",
"67 520 OFFCURVE",
"-7 463 OFFCURVE",
"-10 372 CURVE",
"18 369 OFFCURVE",
"43 370 OFFCURVE",
"100 377 CURVE",
"57 471 LINE",
"82 -3 LINE"
);
}
);
width = 732;
},
{
anchors = (
{
name = bottom;
position = "{294, 0}";
},
{
name = top;
position = "{390, 478}";
}
);
layerId = "0E5388DE-A0E6-4EB4-BC9B-CE5870C9023F";
paths = (
{
closed = 1;
nodes = (
"420 -6 OFFCURVE",
"421 -4 OFFCURVE",
"438 21 CURVE SMOOTH",
"503 117 OFFCURVE",
"596 289 OFFCURVE",
"637 388 CURVE SMOOTH",
"646 409 OFFCURVE",
"651 428 OFFCURVE",
"651 443 CURVE SMOOTH",
"651 467 OFFCURVE",
"637 478 OFFCURVE",
"607 478 CURVE SMOOTH",
"597 478 OFFCURVE",
"593 478 OFFCURVE",
"590 477 CURVE",
"624 395 LINE",
"626 426 LINE",
"580 312 OFFCURVE",
"509 176 OFFCURVE",
"416 28 CURVE",
"415 28 LINE",
"369 459 LINE",
"360 472 OFFCURVE",
"348 477 OFFCURVE",
"331 477 CURVE SMOOTH",
"323 477 OFFCURVE",
"314 476 OFFCURVE",
"303 474 CURVE",
"353 389 LINE",
"343 421 LINE",
"394 -6 LINE"
);
},
{
closed = 1;
nodes = (
"187 -6 OFFCURVE",
"188 1 OFFCURVE",
"201 21 CURVE SMOOTH",
"264 124 OFFCURVE",
"332 256 OFFCURVE",
"370 348 CURVE",
"362 387 LINE",
"316 275 OFFCURVE",
"255 154 OFFCURVE",
"180 28 CURVE",
"178 28 LINE",
"132 448 LINE",
"124 469 OFFCURVE",
"108 482 OFFCURVE",
"91 482 CURVE SMOOTH",
"66 482 OFFCURVE",
"46 459 OFFCURVE",
"41 425 CURVE",
"65 434 OFFCURVE",
"90 438 OFFCURVE",
"120 436 CURVE",
"99 460 LINE",
"157 -6 LINE"
);
}
);
width = 651;
}
);
leftKerningGroup = v;
rightKerningGroup = v;
unicode = 0077;
},
